<?xml version="1.0" encoding="UTF-8" standalone="no"?>
<!DOCTYPE svg PUBLIC "-//W3C//DTD SVG 1.1//EN"
 "http://www.w3.org/Graphics/SVG/1.1/DTD/svg11.dtd">
<!-- Generated by graphviz version 2.40.1 (0)
 -->
<!-- Title: snakemake_dag Pages: 1 -->
<svg width="974pt" height="548pt"
 viewBox="0.00 0.00 974.00 548.00" xmlns="http://www.w3.org/2000/svg" xmlns:xlink="http://www.w3.org/1999/xlink">
<g id="graph0" class="graph" transform="scale(1 1) rotate(0) translate(4 544)">
<title>snakemake_dag</title>
<polygon fill="#ffffff" stroke="transparent" points="-4,4 -4,-544 970,-544 970,4 -4,4"/>
<!-- 0 -->
<g id="node1" class="node">
<title>0</title>
<path fill="none" stroke="#d85656" stroke-width="2" d="M504,-36C504,-36 432,-36 432,-36 426,-36 420,-30 420,-24 420,-24 420,-12 420,-12 420,-6 426,0 432,0 432,0 504,0 504,0 510,0 516,-6 516,-12 516,-12 516,-24 516,-24 516,-30 510,-36 504,-36"/>
<text text-anchor="middle" x="468" y="-15.5" font-family="sans" font-size="10.00" fill="#000000">make_summary</text>
</g>
<!-- 1 -->
<g id="node2" class="node">
<title>1</title>
<path fill="none" stroke="#56d8c9" stroke-width="2" d="M56,-180C56,-180 12,-180 12,-180 6,-180 0,-174 0,-168 0,-168 0,-156 0,-156 0,-150 6,-144 12,-144 12,-144 56,-144 56,-144 62,-144 68,-150 68,-156 68,-156 68,-168 68,-168 68,-174 62,-180 56,-180"/>
<text text-anchor="middle" x="34" y="-159.5" font-family="sans" font-size="10.00" fill="#000000">make_dag</text>
</g>
<!-- 1&#45;&gt;0 -->
<g id="edge1" class="edge">
<title>1&#45;&gt;0</title>
<path fill="none" stroke="#c0c0c0" stroke-width="2" d="M21.4797,-143.8335C9.3925,-123.8431 -4.6887,-91.9121 13,-72 38.9296,-42.811 292.6858,-26.6329 409.5813,-20.6766"/>
<polygon fill="#c0c0c0" stroke="#c0c0c0" stroke-width="2" points="409.9693,-24.1616 419.7814,-20.1651 409.6186,-17.1704 409.9693,-24.1616"/>
</g>
<!-- 2 -->
<g id="node3" class="node">
<title>2</title>
<path fill="none" stroke="#5692d8" stroke-width="2" d="M111.5,-108C111.5,-108 34.5,-108 34.5,-108 28.5,-108 22.5,-102 22.5,-96 22.5,-96 22.5,-84 22.5,-84 22.5,-78 28.5,-72 34.5,-72 34.5,-72 111.5,-72 111.5,-72 117.5,-72 123.5,-78 123.5,-84 123.5,-84 123.5,-96 123.5,-96 123.5,-102 117.5,-108 111.5,-108"/>
<text text-anchor="middle" x="73" y="-87.5" font-family="sans" font-size="10.00" fill="#000000">save_pinned_env</text>
</g>
<!-- 1&#45;&gt;2 -->
<g id="edge17" class="edge">
<title>1&#45;&gt;2</title>
<path fill="none" stroke="#c0c0c0" stroke-width="2" d="M43.8413,-143.8314C48.1957,-135.7925 53.4098,-126.1666 58.2169,-117.2918"/>
<polygon fill="#c0c0c0" stroke="#c0c0c0" stroke-width="2" points="61.3408,-118.8732 63.0261,-108.4133 55.1857,-115.5392 61.3408,-118.8732"/>
</g>
<!-- 2&#45;&gt;0 -->
<g id="edge2" class="edge">
<title>2&#45;&gt;0</title>
<path fill="none" stroke="#c0c0c0" stroke-width="2" d="M123.61,-75.4162C128.4565,-74.1914 133.3109,-73.0298 138,-72 232.3248,-51.2855 343.406,-34.6904 409.6382,-25.6078"/>
<polygon fill="#c0c0c0" stroke="#c0c0c0" stroke-width="2" points="410.4367,-29.0315 419.8735,-24.2151 409.4929,-22.0954 410.4367,-29.0315"/>
</g>
<!-- 3 -->
<g id="node4" class="node">
<title>3</title>
<path fill="none" stroke="#56a9d8" stroke-width="2" d="M373,-324C373,-324 287,-324 287,-324 281,-324 275,-318 275,-312 275,-312 275,-300 275,-300 275,-294 281,-288 287,-288 287,-288 373,-288 373,-288 379,-288 385,-294 385,-300 385,-300 385,-312 385,-312 385,-318 379,-324 373,-324"/>
<text text-anchor="middle" x="330" y="-303.5" font-family="sans" font-size="10.00" fill="#000000">get_mut_bind_expr</text>
</g>
<!-- 3&#45;&gt;0 -->
<g id="edge3" class="edge">
<title>3&#45;&gt;0</title>
<path fill="none" stroke="#c0c0c0" stroke-width="2" d="M274.9904,-295.5963C250.4089,-287.9115 223.7115,-274.6754 209,-252 172.2541,-195.3619 201.9783,-132.627 272,-72 292.5951,-54.1682 359.6177,-38.207 409.589,-28.344"/>
<polygon fill="#c0c0c0" stroke="#c0c0c0" stroke-width="2" points="410.5021,-31.7323 419.6536,-26.3938 409.1703,-24.8601 410.5021,-31.7323"/>
</g>
<!-- 16 -->
<g id="node17" class="node">
<title>16</title>
<path fill="none" stroke="#56c9d8" stroke-width="2" d="M576,-252C576,-252 506,-252 506,-252 500,-252 494,-246 494,-240 494,-240 494,-228 494,-228 494,-222 500,-216 506,-216 506,-216 576,-216 576,-216 582,-216 588,-222 588,-228 588,-228 588,-240 588,-240 588,-246 582,-252 576,-252"/>
<text text-anchor="middle" x="541" y="-231.5" font-family="sans" font-size="10.00" fill="#000000">collapse_scores</text>
</g>
<!-- 3&#45;&gt;16 -->
<g id="edge39" class="edge">
<title>3&#45;&gt;16</title>
<path fill="none" stroke="#c0c0c0" stroke-width="2" d="M382.9719,-287.9243C413.8377,-277.3919 452.7571,-264.1113 484.2485,-253.3655"/>
<polygon fill="#c0c0c0" stroke="#c0c0c0" stroke-width="2" points="485.4322,-256.6598 493.766,-250.1178 483.1715,-250.0348 485.4322,-256.6598"/>
</g>
<!-- 4 -->
<g id="node5" class="node">
<title>4</title>
<path fill="none" stroke="#56d873" stroke-width="2" d="M351.5,-252C351.5,-252 230.5,-252 230.5,-252 224.5,-252 218.5,-246 218.5,-240 218.5,-240 218.5,-228 218.5,-228 218.5,-222 224.5,-216 230.5,-216 230.5,-216 351.5,-216 351.5,-216 357.5,-216 363.5,-222 363.5,-228 363.5,-228 363.5,-240 363.5,-240 363.5,-246 357.5,-252 351.5,-252"/>
<text text-anchor="middle" x="291" y="-231.5" font-family="sans" font-size="10.00" fill="#000000">get_mut_antibody_escape</text>
</g>
<!-- 4&#45;&gt;0 -->
<g id="edge4" class="edge">
<title>4&#45;&gt;0</title>
<path fill="none" stroke="#c0c0c0" stroke-width="2" d="M284.6052,-215.7647C281.3154,-205.4187 277.6558,-192.1474 276,-180 269.3718,-131.3733 264.299,-106.7036 299,-72 314.8782,-56.1206 367.4946,-40.8118 409.848,-30.5752"/>
<polygon fill="#c0c0c0" stroke="#c0c0c0" stroke-width="2" points="410.889,-33.9255 419.8121,-28.2133 409.2745,-27.1142 410.889,-33.9255"/>
</g>
<!-- 17 -->
<g id="node18" class="node">
<title>17</title>
<path fill="none" stroke="#d87556" stroke-width="2" d="M373.5,-180C373.5,-180 306.5,-180 306.5,-180 300.5,-180 294.5,-174 294.5,-168 294.5,-168 294.5,-156 294.5,-156 294.5,-150 300.5,-144 306.5,-144 306.5,-144 373.5,-144 373.5,-144 379.5,-144 385.5,-150 385.5,-156 385.5,-156 385.5,-168 385.5,-168 385.5,-174 379.5,-180 373.5,-180"/>
<text text-anchor="middle" x="340" y="-159.5" font-family="sans" font-size="10.00" fill="#000000">epistatic_shifts</text>
</g>
<!-- 4&#45;&gt;17 -->
<g id="edge41" class="edge">
<title>4&#45;&gt;17</title>
<path fill="none" stroke="#c0c0c0" stroke-width="2" d="M303.3648,-215.8314C308.9509,-207.6232 315.663,-197.7606 321.8072,-188.7323"/>
<polygon fill="#c0c0c0" stroke="#c0c0c0" stroke-width="2" points="324.736,-190.6496 327.4687,-180.4133 318.949,-186.7112 324.736,-190.6496"/>
</g>
<!-- 5 -->
<g id="node6" class="node">
<title>5</title>
<path fill="none" stroke="#8fd856" stroke-width="2" d="M464,-252C464,-252 394,-252 394,-252 388,-252 382,-246 382,-240 382,-240 382,-228 382,-228 382,-222 388,-216 394,-216 394,-216 464,-216 464,-216 470,-216 476,-222 476,-228 476,-228 476,-240 476,-240 476,-246 470,-252 464,-252"/>
<text text-anchor="middle" x="429" y="-231.5" font-family="sans" font-size="10.00" fill="#000000">get_SARSr_DMS</text>
</g>
<!-- 5&#45;&gt;0 -->
<g id="edge5" class="edge">
<title>5&#45;&gt;0</title>
<path fill="none" stroke="#c0c0c0" stroke-width="2" d="M381.9978,-217.8142C341.1287,-203.5182 287.9751,-184.2931 285,-180 275.8865,-166.8492 279.8734,-159.1564 285,-144 297.9025,-105.8548 308.1599,-96.6523 340,-72 360.7842,-55.9078 387.0703,-43.7303 410.4069,-35.0509"/>
<polygon fill="#c0c0c0" stroke="#c0c0c0" stroke-width="2" points="411.6301,-38.3306 419.8626,-31.6615 409.2681,-31.7411 411.6301,-38.3306"/>
</g>
<!-- 5&#45;&gt;17 -->
<g id="edge42" class="edge">
<title>5&#45;&gt;17</title>
<path fill="none" stroke="#c0c0c0" stroke-width="2" d="M406.5415,-215.8314C395.5795,-206.9632 382.2301,-196.1637 370.3735,-186.5718"/>
<polygon fill="#c0c0c0" stroke="#c0c0c0" stroke-width="2" points="372.4271,-183.7313 362.4513,-180.1628 368.0245,-189.1734 372.4271,-183.7313"/>
</g>
<!-- 6 -->
<g id="node7" class="node">
<title>6</title>
<path fill="none" stroke="#afd856" stroke-width="2" d="M639.5,-468C639.5,-468 550.5,-468 550.5,-468 544.5,-468 538.5,-462 538.5,-456 538.5,-456 538.5,-444 538.5,-444 538.5,-438 544.5,-432 550.5,-432 550.5,-432 639.5,-432 639.5,-432 645.5,-432 651.5,-438 651.5,-444 651.5,-444 651.5,-456 651.5,-456 651.5,-462 645.5,-468 639.5,-468"/>
<text text-anchor="middle" x="595" y="-447.5" font-family="sans" font-size="10.00" fill="#000000">process_ccs_XBB15</text>
</g>
<!-- 6&#45;&gt;0 -->
<g id="edge6" class="edge">
<title>6&#45;&gt;0</title>
<path fill="none" stroke="#c0c0c0" stroke-width="2" d="M651.8992,-432.1169C705.6193,-411.2631 778,-371.0883 778,-306 778,-306 778,-306 778,-162 778,-116.0242 764.1389,-99.1012 727,-72 695.6106,-49.0944 592.5748,-32.878 526.3111,-24.5145"/>
<polygon fill="#c0c0c0" stroke="#c0c0c0" stroke-width="2" points="526.3626,-20.9943 516.0085,-23.2398 525.503,-27.9413 526.3626,-20.9943"/>
</g>
<!-- 13 -->
<g id="node14" class="node">
<title>13</title>
<path fill="none" stroke="#56d8a9" stroke-width="2" d="M623.5,-396C623.5,-396 558.5,-396 558.5,-396 552.5,-396 546.5,-390 546.5,-384 546.5,-384 546.5,-372 546.5,-372 546.5,-366 552.5,-360 558.5,-360 558.5,-360 623.5,-360 623.5,-360 629.5,-360 635.5,-366 635.5,-372 635.5,-372 635.5,-384 635.5,-384 635.5,-390 629.5,-396 623.5,-396"/>
<text text-anchor="middle" x="591" y="-375.5" font-family="sans" font-size="10.00" fill="#000000">count_variants</text>
</g>
<!-- 6&#45;&gt;13 -->
<g id="edge28" class="edge">
<title>6&#45;&gt;13</title>
<path fill="none" stroke="#c0c0c0" stroke-width="2" d="M593.9906,-431.8314C593.5628,-424.131 593.0541,-414.9743 592.5787,-406.4166"/>
<polygon fill="#c0c0c0" stroke="#c0c0c0" stroke-width="2" points="596.0724,-406.2037 592.023,-396.4133 589.0831,-406.592 596.0724,-406.2037"/>
</g>
<!-- 14 -->
<g id="node15" class="node">
<title>14</title>
<path fill="none" stroke="#d8ac56" stroke-width="2" d="M738,-324C738,-324 686,-324 686,-324 680,-324 674,-318 674,-312 674,-312 674,-300 674,-300 674,-294 680,-288 686,-288 686,-288 738,-288 738,-288 744,-288 750,-294 750,-300 750,-300 750,-312 750,-312 750,-318 744,-324 738,-324"/>
<text text-anchor="middle" x="712" y="-303.5" font-family="sans" font-size="10.00" fill="#000000">fit_titrations</text>
</g>
<!-- 6&#45;&gt;14 -->
<g id="edge31" class="edge">
<title>6&#45;&gt;14</title>
<path fill="none" stroke="#c0c0c0" stroke-width="2" d="M612.2007,-431.8688C621.7933,-421.5553 633.8225,-408.2819 644,-396 661.1811,-375.2663 679.523,-350.8413 692.8223,-332.6717"/>
<polygon fill="#c0c0c0" stroke="#c0c0c0" stroke-width="2" points="695.8623,-334.4426 698.9187,-324.2982 690.2033,-330.3224 695.8623,-334.4426"/>
</g>
<!-- 15 -->
<g id="node16" class="node">
<title>15</title>
<path fill="none" stroke="#d88d56" stroke-width="2" d="M596.5,-324C596.5,-324 501.5,-324 501.5,-324 495.5,-324 489.5,-318 489.5,-312 489.5,-312 489.5,-300 489.5,-300 489.5,-294 495.5,-288 501.5,-288 501.5,-288 596.5,-288 596.5,-288 602.5,-288 608.5,-294 608.5,-300 608.5,-300 608.5,-312 608.5,-312 608.5,-318 602.5,-324 596.5,-324"/>
<text text-anchor="middle" x="549" y="-303.5" font-family="sans" font-size="10.00" fill="#000000">calculate_expression</text>
</g>
<!-- 6&#45;&gt;15 -->
<g id="edge35" class="edge">
<title>6&#45;&gt;15</title>
<path fill="none" stroke="#c0c0c0" stroke-width="2" d="M567.0391,-431.862C555.446,-422.6621 543.2598,-410.3809 537,-396 528.4006,-376.244 532.4053,-351.927 538.0061,-333.5518"/>
<polygon fill="#c0c0c0" stroke="#c0c0c0" stroke-width="2" points="541.341,-334.6154 541.212,-324.0213 534.7063,-332.3835 541.341,-334.6154"/>
</g>
<!-- 7 -->
<g id="node8" class="node">
<title>7</title>
<path fill="none" stroke="#c6d856" stroke-width="2" d="M893.5,-540C893.5,-540 744.5,-540 744.5,-540 738.5,-540 732.5,-534 732.5,-528 732.5,-528 732.5,-516 732.5,-516 732.5,-510 738.5,-504 744.5,-504 744.5,-504 893.5,-504 893.5,-504 899.5,-504 905.5,-510 905.5,-516 905.5,-516 905.5,-528 905.5,-528 905.5,-534 899.5,-540 893.5,-540"/>
<text text-anchor="middle" x="819" y="-525" font-family="sans" font-size="10.00" fill="#000000">get_ccs</text>
<text text-anchor="middle" x="819" y="-514" font-family="sans" font-size="10.00" fill="#000000">pacbioRun: pool1_BQ11_230520</text>
</g>
<!-- 7&#45;&gt;6 -->
<g id="edge18" class="edge">
<title>7&#45;&gt;6</title>
<path fill="none" stroke="#c0c0c0" stroke-width="2" d="M762.7645,-503.9243C731.8761,-493.9959 693.3904,-481.6255 661.0744,-471.2382"/>
<polygon fill="#c0c0c0" stroke="#c0c0c0" stroke-width="2" points="661.85,-467.8112 651.2587,-468.0831 659.7079,-474.4754 661.85,-467.8112"/>
</g>
<!-- 11 -->
<g id="node12" class="node">
<title>11</title>
<path fill="none" stroke="#d8cb56" stroke-width="2" d="M498.5,-468C498.5,-468 415.5,-468 415.5,-468 409.5,-468 403.5,-462 403.5,-456 403.5,-456 403.5,-444 403.5,-444 403.5,-438 409.5,-432 415.5,-432 415.5,-432 498.5,-432 498.5,-432 504.5,-432 510.5,-438 510.5,-444 510.5,-444 510.5,-456 510.5,-456 510.5,-462 504.5,-468 498.5,-468"/>
<text text-anchor="middle" x="457" y="-447.5" font-family="sans" font-size="10.00" fill="#000000">process_ccs_BQ11</text>
</g>
<!-- 7&#45;&gt;11 -->
<g id="edge22" class="edge">
<title>7&#45;&gt;11</title>
<path fill="none" stroke="#c0c0c0" stroke-width="2" d="M732.3944,-505.7537C729.2234,-505.1614 726.0839,-504.5752 723,-504 636.7928,-487.9195 614.6896,-486.6433 529,-468 526.2262,-467.3965 523.3966,-466.7636 520.5413,-466.1108"/>
<polygon fill="#c0c0c0" stroke="#c0c0c0" stroke-width="2" points="521.3126,-462.6968 510.7783,-463.8283 519.719,-469.513 521.3126,-462.6968"/>
</g>
<!-- 8 -->
<g id="node9" class="node">
<title>8</title>
<path fill="none" stroke="#c6d856" stroke-width="2" d="M308.5,-540C308.5,-540 159.5,-540 159.5,-540 153.5,-540 147.5,-534 147.5,-528 147.5,-528 147.5,-516 147.5,-516 147.5,-510 153.5,-504 159.5,-504 159.5,-504 308.5,-504 308.5,-504 314.5,-504 320.5,-510 320.5,-516 320.5,-516 320.5,-528 320.5,-528 320.5,-534 314.5,-540 308.5,-540"/>
<text text-anchor="middle" x="234" y="-525" font-family="sans" font-size="10.00" fill="#000000">get_ccs</text>
<text text-anchor="middle" x="234" y="-514" font-family="sans" font-size="10.00" fill="#000000">pacbioRun: pool2_BQ11_230520</text>
</g>
<!-- 8&#45;&gt;6 -->
<g id="edge19" class="edge">
<title>8&#45;&gt;6</title>
<path fill="none" stroke="#c0c0c0" stroke-width="2" d="M320.5446,-505.605C404.2901,-489.7399 518.6878,-468.0665 519,-468 522.0191,-467.3568 525.1023,-466.6856 528.2143,-465.9966"/>
<polygon fill="#c0c0c0" stroke="#c0c0c0" stroke-width="2" points="529.2204,-469.3578 538.2079,-463.7474 527.6834,-462.5286 529.2204,-469.3578"/>
</g>
<!-- 8&#45;&gt;11 -->
<g id="edge23" class="edge">
<title>8&#45;&gt;11</title>
<path fill="none" stroke="#c0c0c0" stroke-width="2" d="M289.9845,-503.9243C321.4365,-493.7694 360.8009,-481.0598 393.4126,-470.5304"/>
<polygon fill="#c0c0c0" stroke="#c0c0c0" stroke-width="2" points="394.8596,-473.7412 403.3005,-467.338 392.7088,-467.0798 394.8596,-473.7412"/>
</g>
<!-- 9 -->
<g id="node10" class="node">
<title>9</title>
<path fill="none" stroke="#c6d856" stroke-width="2" d="M505.5,-540C505.5,-540 350.5,-540 350.5,-540 344.5,-540 338.5,-534 338.5,-528 338.5,-528 338.5,-516 338.5,-516 338.5,-510 344.5,-504 350.5,-504 350.5,-504 505.5,-504 505.5,-504 511.5,-504 517.5,-510 517.5,-516 517.5,-516 517.5,-528 517.5,-528 517.5,-534 511.5,-540 505.5,-540"/>
<text text-anchor="middle" x="428" y="-525" font-family="sans" font-size="10.00" fill="#000000">get_ccs</text>
<text text-anchor="middle" x="428" y="-514" font-family="sans" font-size="10.00" fill="#000000">pacbioRun: pool1_XBB15_230520</text>
</g>
<!-- 9&#45;&gt;6 -->
<g id="edge20" class="edge">
<title>9&#45;&gt;6</title>
<path fill="none" stroke="#c0c0c0" stroke-width="2" d="M470.1412,-503.8314C492.4764,-494.2018 520.0936,-482.295 543.671,-472.1299"/>
<polygon fill="#c0c0c0" stroke="#c0c0c0" stroke-width="2" points="545.3647,-475.2112 553.1619,-468.038 542.5933,-468.7831 545.3647,-475.2112"/>
</g>
<!-- 9&#45;&gt;11 -->
<g id="edge24" class="edge">
<title>9&#45;&gt;11</title>
<path fill="none" stroke="#c0c0c0" stroke-width="2" d="M435.3179,-503.8314C438.4876,-495.9617 442.27,-486.5712 445.7813,-477.8533"/>
<polygon fill="#c0c0c0" stroke="#c0c0c0" stroke-width="2" points="449.0939,-478.9968 449.5835,-468.4133 442.6008,-476.3815 449.0939,-478.9968"/>
</g>
<!-- 10 -->
<g id="node11" class="node">
<title>10</title>
<path fill="none" stroke="#c6d856" stroke-width="2" d="M702.5,-540C702.5,-540 547.5,-540 547.5,-540 541.5,-540 535.5,-534 535.5,-528 535.5,-528 535.5,-516 535.5,-516 535.5,-510 541.5,-504 547.5,-504 547.5,-504 702.5,-504 702.5,-504 708.5,-504 714.5,-510 714.5,-516 714.5,-516 714.5,-528 714.5,-528 714.5,-534 708.5,-540 702.5,-540"/>
<text text-anchor="middle" x="625" y="-525" font-family="sans" font-size="10.00" fill="#000000">get_ccs</text>
<text text-anchor="middle" x="625" y="-514" font-family="sans" font-size="10.00" fill="#000000">pacbioRun: pool2_XBB15_230520</text>
</g>
<!-- 10&#45;&gt;6 -->
<g id="edge21" class="edge">
<title>10&#45;&gt;6</title>
<path fill="none" stroke="#c0c0c0" stroke-width="2" d="M617.4297,-503.8314C614.1507,-495.9617 610.238,-486.5712 606.6055,-477.8533"/>
<polygon fill="#c0c0c0" stroke="#c0c0c0" stroke-width="2" points="609.7492,-476.2979 602.6722,-468.4133 603.2876,-478.9902 609.7492,-476.2979"/>
</g>
<!-- 10&#45;&gt;11 -->
<g id="edge25" class="edge">
<title>10&#45;&gt;11</title>
<path fill="none" stroke="#c0c0c0" stroke-width="2" d="M582.6065,-503.8314C560.0376,-494.159 532.1079,-482.1891 508.3204,-471.9944"/>
<polygon fill="#c0c0c0" stroke="#c0c0c0" stroke-width="2" points="509.6588,-468.7602 499.0886,-468.038 506.9014,-475.1943 509.6588,-468.7602"/>
</g>
<!-- 11&#45;&gt;0 -->
<g id="edge7" class="edge">
<title>11&#45;&gt;0</title>
<path fill="none" stroke="#c0c0c0" stroke-width="2" d="M403.1742,-436.3786C315.6147,-412.6259 152,-360.8966 152,-306 152,-306 152,-306 152,-162 152,-108.1855 186.6209,-99.2943 233,-72 262.5008,-54.6387 350.2126,-37.4218 409.7231,-27.2499"/>
<polygon fill="#c0c0c0" stroke="#c0c0c0" stroke-width="2" points="410.4738,-30.6728 419.7515,-25.5566 409.3083,-23.7705 410.4738,-30.6728"/>
</g>
<!-- 11&#45;&gt;13 -->
<g id="edge27" class="edge">
<title>11&#45;&gt;13</title>
<path fill="none" stroke="#c0c0c0" stroke-width="2" d="M490.8139,-431.8314C508.2707,-422.4516 529.7487,-410.9112 548.3352,-400.9244"/>
<polygon fill="#c0c0c0" stroke="#c0c0c0" stroke-width="2" points="550.0446,-403.9792 557.197,-396.1628 546.7314,-397.8129 550.0446,-403.9792"/>
</g>
<!-- 11&#45;&gt;14 -->
<g id="edge30" class="edge">
<title>11&#45;&gt;14</title>
<path fill="none" stroke="#c0c0c0" stroke-width="2" d="M472.92,-431.5863C495.1005,-406.0058 533.0443,-362.5451 537,-360 575.8613,-334.9963 627.0013,-320.9783 663.9532,-313.5312"/>
<polygon fill="#c0c0c0" stroke="#c0c0c0" stroke-width="2" points="664.8193,-316.9288 673.9772,-311.6013 663.4958,-310.055 664.8193,-316.9288"/>
</g>
<!-- 11&#45;&gt;15 -->
<g id="edge34" class="edge">
<title>11&#45;&gt;15</title>
<path fill="none" stroke="#c0c0c0" stroke-width="2" d="M468.6519,-431.7623C484.6203,-406.7682 513.4188,-361.6924 531.8517,-332.8409"/>
<polygon fill="#c0c0c0" stroke="#c0c0c0" stroke-width="2" points="535.0082,-334.401 537.4427,-324.0896 529.1094,-330.6322 535.0082,-334.401"/>
</g>
<!-- 12 -->
<g id="node13" class="node">
<title>12</title>
<path fill="none" stroke="#59d856" stroke-width="2" d="M779,-468C779,-468 691,-468 691,-468 685,-468 679,-462 679,-456 679,-456 679,-444 679,-444 679,-438 685,-432 691,-432 691,-432 779,-432 779,-432 785,-432 791,-438 791,-444 791,-444 791,-456 791,-456 791,-462 785,-468 779,-468"/>
<text text-anchor="middle" x="735" y="-447.5" font-family="sans" font-size="10.00" fill="#000000">get_BA2_bc_lookup</text>
</g>
<!-- 12&#45;&gt;0 -->
<g id="edge8" class="edge">
<title>12&#45;&gt;0</title>
<path fill="none" stroke="#c0c0c0" stroke-width="2" d="M753.3802,-431.8287C777.2785,-406.1728 816,-356.7701 816,-306 816,-306 816,-306 816,-162 816,-114.8889 798.9215,-98.5438 760,-72 722.7789,-46.6159 600.2741,-30.7222 526.2869,-23.1923"/>
<polygon fill="#c0c0c0" stroke="#c0c0c0" stroke-width="2" points="526.4808,-19.6943 516.1829,-22.1851 525.7865,-26.6598 526.4808,-19.6943"/>
</g>
<!-- 12&#45;&gt;13 -->
<g id="edge26" class="edge">
<title>12&#45;&gt;13</title>
<path fill="none" stroke="#c0c0c0" stroke-width="2" d="M698.6627,-431.8314C679.6604,-422.3302 656.2242,-410.6121 636.0748,-400.5374"/>
<polygon fill="#c0c0c0" stroke="#c0c0c0" stroke-width="2" points="637.5855,-397.3797 627.076,-396.038 634.455,-403.6407 637.5855,-397.3797"/>
</g>
<!-- 12&#45;&gt;14 -->
<g id="edge29" class="edge">
<title>12&#45;&gt;14</title>
<path fill="none" stroke="#c0c0c0" stroke-width="2" d="M732.087,-431.7623C728.1468,-407.0928 721.0818,-362.8598 716.4679,-333.9731"/>
<polygon fill="#c0c0c0" stroke="#c0c0c0" stroke-width="2" points="719.9228,-333.4124 714.8893,-324.0896 713.0104,-334.5165 719.9228,-333.4124"/>
</g>
<!-- 12&#45;&gt;15 -->
<g id="edge33" class="edge">
<title>12&#45;&gt;15</title>
<path fill="none" stroke="#c0c0c0" stroke-width="2" d="M719.1268,-431.6567C701.8674,-412.3786 672.8689,-381.8723 644,-360 628.9577,-348.6033 611.2612,-337.91 595.2446,-329.0942"/>
<polygon fill="#c0c0c0" stroke="#c0c0c0" stroke-width="2" points="596.5039,-325.7968 586.0411,-324.1295 593.1805,-331.9576 596.5039,-325.7968"/>
</g>
<!-- 13&#45;&gt;0 -->
<g id="edge9" class="edge">
<title>13&#45;&gt;0</title>
<path fill="none" stroke="#c0c0c0" stroke-width="2" d="M601.9389,-359.6733C607.4474,-349.5192 613.6521,-336.4604 617,-324 637.797,-246.596 643.251,-222.6849 628,-144 621.4356,-110.1321 623.295,-96.4924 599,-72 579.271,-52.1107 551.1707,-39.2307 526.0515,-31.0598"/>
<polygon fill="#c0c0c0" stroke="#c0c0c0" stroke-width="2" points="526.8191,-27.6344 516.2324,-28.0495 524.7672,-34.3269 526.8191,-27.6344"/>
</g>
<!-- 13&#45;&gt;14 -->
<g id="edge32" class="edge">
<title>13&#45;&gt;14</title>
<path fill="none" stroke="#c0c0c0" stroke-width="2" d="M621.5334,-359.8314C637.0101,-350.6221 655.9869,-339.3301 672.5563,-329.4706"/>
<polygon fill="#c0c0c0" stroke="#c0c0c0" stroke-width="2" points="674.6724,-332.2843 681.4764,-324.1628 671.0929,-326.2687 674.6724,-332.2843"/>
</g>
<!-- 13&#45;&gt;15 -->
<g id="edge36" class="edge">
<title>13&#45;&gt;15</title>
<path fill="none" stroke="#c0c0c0" stroke-width="2" d="M580.4016,-359.8314C575.7123,-351.7925 570.0972,-342.1666 564.9202,-333.2918"/>
<polygon fill="#c0c0c0" stroke="#c0c0c0" stroke-width="2" points="567.8031,-331.2875 559.7411,-324.4133 561.7566,-334.8146 567.8031,-331.2875"/>
</g>
<!-- 14&#45;&gt;0 -->
<g id="edge10" class="edge">
<title>14&#45;&gt;0</title>
<path fill="none" stroke="#c0c0c0" stroke-width="2" d="M717.7675,-287.9097C730.2529,-244.8846 754.6256,-135.3288 702,-72 679.8822,-45.3838 588.0498,-30.5795 526.2192,-23.4602"/>
<polygon fill="#c0c0c0" stroke="#c0c0c0" stroke-width="2" points="526.5153,-19.9716 516.189,-22.342 525.7396,-26.9285 526.5153,-19.9716"/>
</g>
<!-- 14&#45;&gt;16 -->
<g id="edge37" class="edge">
<title>14&#45;&gt;16</title>
<path fill="none" stroke="#c0c0c0" stroke-width="2" d="M673.6243,-289.8418C649.8577,-279.8348 619.0263,-266.8532 593.0725,-255.9252"/>
<polygon fill="#c0c0c0" stroke="#c0c0c0" stroke-width="2" points="594.3279,-252.6563 583.7533,-252.0014 591.6114,-259.1077 594.3279,-252.6563"/>
</g>
<!-- 15&#45;&gt;0 -->
<g id="edge11" class="edge">
<title>15&#45;&gt;0</title>
<path fill="none" stroke="#c0c0c0" stroke-width="2" d="M569.6735,-287.9329C579.4589,-278.2475 590.4172,-265.5362 597,-252 618.1438,-208.5221 622.1273,-190.8008 610,-144 600.8175,-108.5637 596.1449,-97.6221 570,-72 557.0802,-59.3386 540.5873,-48.8916 524.6484,-40.6718"/>
<polygon fill="#c0c0c0" stroke="#c0c0c0" stroke-width="2" points="525.8756,-37.3746 515.3589,-36.0896 522.7789,-43.6524 525.8756,-37.3746"/>
</g>
<!-- 15&#45;&gt;16 -->
<g id="edge38" class="edge">
<title>15&#45;&gt;16</title>
<path fill="none" stroke="#c0c0c0" stroke-width="2" d="M546.9813,-287.8314C546.1257,-280.131 545.1083,-270.9743 544.1574,-262.4166"/>
<polygon fill="#c0c0c0" stroke="#c0c0c0" stroke-width="2" points="547.6289,-261.9656 543.0459,-252.4133 540.6717,-262.7386 547.6289,-261.9656"/>
</g>
<!-- 16&#45;&gt;0 -->
<g id="edge12" class="edge">
<title>16&#45;&gt;0</title>
<path fill="none" stroke="#c0c0c0" stroke-width="2" d="M565.5801,-215.7772C576.1482,-206.4022 587.3543,-194.0021 593,-180 598.9832,-165.1608 599.0935,-158.7942 593,-144 575.1403,-100.6387 534.3372,-64.3019 504.1825,-41.9626"/>
<polygon fill="#c0c0c0" stroke="#c0c0c0" stroke-width="2" points="506.1424,-39.0606 495.9876,-36.0388 502.0415,-44.7337 506.1424,-39.0606"/>
</g>
<!-- 16&#45;&gt;17 -->
<g id="edge40" class="edge">
<title>16&#45;&gt;17</title>
<path fill="none" stroke="#c0c0c0" stroke-width="2" d="M493.8744,-217.1192C464.4529,-206.5802 426.434,-192.9614 395.5488,-181.8981"/>
<polygon fill="#c0c0c0" stroke="#c0c0c0" stroke-width="2" points="396.3863,-178.4803 385.7917,-178.403 394.0256,-185.0703 396.3863,-178.4803"/>
</g>
<!-- 18 -->
<g id="node19" class="node">
<title>18</title>
<path fill="none" stroke="#5673d8" stroke-width="2" d="M469.5,-108C469.5,-108 380.5,-108 380.5,-108 374.5,-108 368.5,-102 368.5,-96 368.5,-96 368.5,-84 368.5,-84 368.5,-78 374.5,-72 380.5,-72 380.5,-72 469.5,-72 469.5,-72 475.5,-72 481.5,-78 481.5,-84 481.5,-84 481.5,-96 481.5,-96 481.5,-102 475.5,-108 469.5,-108"/>
<text text-anchor="middle" x="425" y="-87.5" font-family="sans" font-size="10.00" fill="#000000">interactive_jsd_plot</text>
</g>
<!-- 16&#45;&gt;18 -->
<g id="edge43" class="edge">
<title>16&#45;&gt;18</title>
<path fill="none" stroke="#c0c0c0" stroke-width="2" d="M494.1333,-215.942C468.6143,-205.1172 440.6997,-191.3055 433,-180 420.8379,-162.1424 419.447,-137.4481 420.7576,-118.443"/>
<polygon fill="#c0c0c0" stroke="#c0c0c0" stroke-width="2" points="424.2617,-118.5696 421.7461,-108.2778 417.2946,-117.892 424.2617,-118.5696"/>
</g>
<!-- 19 -->
<g id="node20" class="node">
<title>19</title>
<path fill="none" stroke="#56d892" stroke-width="2" d="M572,-180C572,-180 454,-180 454,-180 448,-180 442,-174 442,-168 442,-168 442,-156 442,-156 442,-150 448,-144 454,-144 454,-144 572,-144 572,-144 578,-144 584,-150 584,-156 584,-156 584,-168 584,-168 584,-174 578,-180 572,-180"/>
<text text-anchor="middle" x="513" y="-159.5" font-family="sans" font-size="10.00" fill="#000000">interactive_heatmap_plot</text>
</g>
<!-- 16&#45;&gt;19 -->
<g id="edge45" class="edge">
<title>16&#45;&gt;19</title>
<path fill="none" stroke="#c0c0c0" stroke-width="2" d="M533.9344,-215.8314C530.874,-207.9617 527.2221,-198.5712 523.8318,-189.8533"/>
<polygon fill="#c0c0c0" stroke="#c0c0c0" stroke-width="2" points="527.0473,-188.4647 520.1607,-180.4133 520.5232,-191.0019 527.0473,-188.4647"/>
</g>
<!-- 17&#45;&gt;0 -->
<g id="edge13" class="edge">
<title>17&#45;&gt;0</title>
<path fill="none" stroke="#c0c0c0" stroke-width="2" d="M339.3759,-143.8625C339.6299,-124.1931 342.8563,-92.8249 359,-72 371.9504,-55.2943 391.4362,-43.3971 410.3674,-35.102"/>
<polygon fill="#c0c0c0" stroke="#c0c0c0" stroke-width="2" points="411.9569,-38.2331 419.881,-31.2003 409.3008,-31.7566 411.9569,-38.2331"/>
</g>
<!-- 17&#45;&gt;18 -->
<g id="edge44" class="edge">
<title>17&#45;&gt;18</title>
<path fill="none" stroke="#c0c0c0" stroke-width="2" d="M361.4491,-143.8314C371.8178,-135.0485 384.4229,-124.3712 395.6646,-114.8489"/>
<polygon fill="#c0c0c0" stroke="#c0c0c0" stroke-width="2" points="398.1895,-117.297 403.5578,-108.1628 393.6651,-111.9556 398.1895,-117.297"/>
</g>
<!-- 18&#45;&gt;0 -->
<g id="edge14" class="edge">
<title>18&#45;&gt;0</title>
<path fill="none" stroke="#c0c0c0" stroke-width="2" d="M435.8507,-71.8314C440.7023,-63.7079 446.5217,-53.9637 451.868,-45.0118"/>
<polygon fill="#c0c0c0" stroke="#c0c0c0" stroke-width="2" points="454.8806,-46.7933 457.0032,-36.4133 448.8708,-43.2041 454.8806,-46.7933"/>
</g>
<!-- 19&#45;&gt;0 -->
<g id="edge15" class="edge">
<title>19&#45;&gt;0</title>
<path fill="none" stroke="#c0c0c0" stroke-width="2" d="M509.1319,-143.8616C505.0452,-125.5353 498.0811,-96.5054 490,-72 487.1288,-63.2934 483.5359,-53.989 480.0911,-45.5994"/>
<polygon fill="#c0c0c0" stroke="#c0c0c0" stroke-width="2" points="483.268,-44.1248 476.1674,-36.2615 476.8146,-46.8365 483.268,-44.1248"/>
</g>
<!-- 20 -->
<g id="node21" class="node">
<title>20</title>
<path fill="none" stroke="#70d856" stroke-width="2" d="M954,-108C954,-108 856,-108 856,-108 850,-108 844,-102 844,-96 844,-96 844,-84 844,-84 844,-78 850,-72 856,-72 856,-72 954,-72 954,-72 960,-72 966,-78 966,-84 966,-84 966,-96 966,-96 966,-102 960,-108 954,-108"/>
<text text-anchor="middle" x="905" y="-87.5" font-family="sans" font-size="10.00" fill="#000000">gisaid_rbd_mutations</text>
</g>
<!-- 20&#45;&gt;0 -->
<g id="edge16" class="edge">
<title>20&#45;&gt;0</title>
<path fill="none" stroke="#c0c0c0" stroke-width="2" d="M843.7003,-74.8263C839.0744,-73.8228 834.4693,-72.8679 830,-72 723.5785,-51.333 598.2238,-34.2288 526.4384,-25.1179"/>
<polygon fill="#c0c0c0" stroke="#c0c0c0" stroke-width="2" points="526.6039,-21.6111 516.2445,-23.8321 525.7279,-28.5561 526.6039,-21.6111"/>
</g>
</g>
</svg>
