<?xml version="1.0" encoding="UTF-8" standalone="no"?>
<!DOCTYPE svg PUBLIC "-//W3C//DTD SVG 1.1//EN"
 "http://www.w3.org/Graphics/SVG/1.1/DTD/svg11.dtd">
<!-- Generated by graphviz version 2.50.0 (20220708.1628)
 -->
<!-- Title: snakemake_dag Pages: 1 -->
<svg width="858pt" height="548pt"
 viewBox="0.00 0.00 857.50 548.00" xmlns="http://www.w3.org/2000/svg" xmlns:xlink="http://www.w3.org/1999/xlink">
<g id="graph0" class="graph" transform="scale(1 1) rotate(0) translate(4 544)">
<title>snakemake_dag</title>
<polygon fill="white" stroke="transparent" points="-4,4 -4,-544 853.5,-544 853.5,4 -4,4"/>
<!-- 0 -->
<g id="node1" class="node">
<title>0</title>
<path fill="none" stroke="#d87556" stroke-width="2" d="M436,-36C436,-36 370,-36 370,-36 364,-36 358,-30 358,-24 358,-24 358,-12 358,-12 358,-6 364,0 370,0 370,0 436,0 436,0 442,0 448,-6 448,-12 448,-12 448,-24 448,-24 448,-30 442,-36 436,-36"/>
<text text-anchor="middle" x="403" y="-15.5" font-family="sans" font-size="10.00">make_summary</text>
</g>
<!-- 1 -->
<g id="node2" class="node">
<title>1</title>
<path fill="none" stroke="#56b9d8" stroke-width="2" d="M52,-180C52,-180 12,-180 12,-180 6,-180 0,-174 0,-168 0,-168 0,-156 0,-156 0,-150 6,-144 12,-144 12,-144 52,-144 52,-144 58,-144 64,-150 64,-156 64,-156 64,-168 64,-168 64,-174 58,-180 52,-180"/>
<text text-anchor="middle" x="32" y="-159.5" font-family="sans" font-size="10.00">make_dag</text>
</g>
<!-- 1&#45;&gt;0 -->
<g id="edge1" class="edge">
<title>1&#45;&gt;0</title>
<path fill="none" stroke="grey" stroke-width="2" d="M20.62,-143.77C9.18,-124.07 -4.46,-91.99 13,-72 34.67,-47.18 245.07,-29.68 347.51,-22.55"/>
<polygon fill="grey" stroke="grey" stroke-width="2" points="347.93,-26.03 357.67,-21.85 347.45,-19.05 347.93,-26.03"/>
</g>
<!-- 2 -->
<g id="node3" class="node">
<title>2</title>
<path fill="none" stroke="#d6d856" stroke-width="2" d="M106,-108C106,-108 34,-108 34,-108 28,-108 22,-102 22,-96 22,-96 22,-84 22,-84 22,-78 28,-72 34,-72 34,-72 106,-72 106,-72 112,-72 118,-78 118,-84 118,-84 118,-96 118,-96 118,-102 112,-108 106,-108"/>
<text text-anchor="middle" x="70" y="-87.5" font-family="sans" font-size="10.00">save_pinned_env</text>
</g>
<!-- 1&#45;&gt;2 -->
<g id="edge15" class="edge">
<title>1&#45;&gt;2</title>
<path fill="none" stroke="grey" stroke-width="2" d="M41.39,-143.7C45.76,-135.64 51.06,-125.89 55.9,-116.98"/>
<polygon fill="grey" stroke="grey" stroke-width="2" points="59.02,-118.56 60.71,-108.1 52.87,-115.22 59.02,-118.56"/>
</g>
<!-- 2&#45;&gt;0 -->
<g id="edge2" class="edge">
<title>2&#45;&gt;0</title>
<path fill="none" stroke="grey" stroke-width="2" d="M118.11,-74.28C121.11,-73.48 124.09,-72.71 127,-72 202.85,-53.46 291.73,-37.38 347.71,-27.94"/>
<polygon fill="grey" stroke="grey" stroke-width="2" points="348.48,-31.36 357.76,-26.26 347.32,-24.46 348.48,-31.36"/>
</g>
<!-- 3 -->
<g id="node4" class="node">
<title>3</title>
<path fill="none" stroke="#567bd8" stroke-width="2" d="M230,-108C230,-108 148,-108 148,-108 142,-108 136,-102 136,-96 136,-96 136,-84 136,-84 136,-78 142,-72 148,-72 148,-72 230,-72 230,-72 236,-72 242,-78 242,-84 242,-84 242,-96 242,-96 242,-102 236,-108 230,-108"/>
<text text-anchor="middle" x="189" y="-87.5" font-family="sans" font-size="10.00">get_mut_bind_expr</text>
</g>
<!-- 3&#45;&gt;0 -->
<g id="edge3" class="edge">
<title>3&#45;&gt;0</title>
<path fill="none" stroke="grey" stroke-width="2" d="M241.08,-71.97C273.48,-61.37 315.1,-47.75 348.03,-36.98"/>
<polygon fill="grey" stroke="grey" stroke-width="2" points="349.54,-40.17 357.95,-33.73 347.36,-33.52 349.54,-40.17"/>
</g>
<!-- 4 -->
<g id="node5" class="node">
<title>4</title>
<path fill="none" stroke="#d8b456" stroke-width="2" d="M499.5,-252C499.5,-252 386.5,-252 386.5,-252 380.5,-252 374.5,-246 374.5,-240 374.5,-240 374.5,-228 374.5,-228 374.5,-222 380.5,-216 386.5,-216 386.5,-216 499.5,-216 499.5,-216 505.5,-216 511.5,-222 511.5,-228 511.5,-228 511.5,-240 511.5,-240 511.5,-246 505.5,-252 499.5,-252"/>
<text text-anchor="middle" x="443" y="-231.5" font-family="sans" font-size="10.00">get_mut_antibody_escape</text>
</g>
<!-- 4&#45;&gt;0 -->
<g id="edge4" class="edge">
<title>4&#45;&gt;0</title>
<path fill="none" stroke="grey" stroke-width="2" d="M425.27,-215.6C416.76,-206 407.47,-193.34 403,-180 387.92,-135 392.85,-78.86 397.87,-46.16"/>
<polygon fill="grey" stroke="grey" stroke-width="2" points="401.37,-46.46 399.55,-36.02 394.46,-45.31 401.37,-46.46"/>
</g>
<!-- 16 -->
<g id="node17" class="node">
<title>16</title>
<path fill="none" stroke="#56d8b9" stroke-width="2" d="M484,-180C484,-180 424,-180 424,-180 418,-180 412,-174 412,-168 412,-168 412,-156 412,-156 412,-150 418,-144 424,-144 424,-144 484,-144 484,-144 490,-144 496,-150 496,-156 496,-156 496,-168 496,-168 496,-174 490,-180 484,-180"/>
<text text-anchor="middle" x="454" y="-159.5" font-family="sans" font-size="10.00">epistatic_shifts</text>
</g>
<!-- 4&#45;&gt;16 -->
<g id="edge38" class="edge">
<title>4&#45;&gt;16</title>
<path fill="none" stroke="grey" stroke-width="2" d="M445.72,-215.7C446.93,-207.98 448.39,-198.71 449.74,-190.11"/>
<polygon fill="grey" stroke="grey" stroke-width="2" points="453.22,-190.53 451.31,-180.1 446.3,-189.44 453.22,-190.53"/>
</g>
<!-- 5 -->
<g id="node6" class="node">
<title>5</title>
<path fill="none" stroke="#569ad8" stroke-width="2" d="M596,-468C596,-468 514,-468 514,-468 508,-468 502,-462 502,-456 502,-456 502,-444 502,-444 502,-438 508,-432 514,-432 514,-432 596,-432 596,-432 602,-432 608,-438 608,-444 608,-444 608,-456 608,-456 608,-462 602,-468 596,-468"/>
<text text-anchor="middle" x="555" y="-447.5" font-family="sans" font-size="10.00">process_ccs_XBB15</text>
</g>
<!-- 5&#45;&gt;0 -->
<g id="edge5" class="edge">
<title>5&#45;&gt;0</title>
<path fill="none" stroke="grey" stroke-width="2" d="M600.59,-431.92C668.93,-404.88 790,-350.8 790,-307 790,-307 790,-307 790,-161 790,-103.79 747.98,-97.96 697,-72 620.43,-33.02 519.84,-22.29 458.38,-19.58"/>
<polygon fill="grey" stroke="grey" stroke-width="2" points="458.25,-16.07 448.12,-19.18 457.98,-23.07 458.25,-16.07"/>
</g>
<!-- 12 -->
<g id="node13" class="node">
<title>12</title>
<path fill="none" stroke="#78d856" stroke-width="2" d="M580,-396C580,-396 520,-396 520,-396 514,-396 508,-390 508,-384 508,-384 508,-372 508,-372 508,-366 514,-360 520,-360 520,-360 580,-360 580,-360 586,-360 592,-366 592,-372 592,-372 592,-384 592,-384 592,-390 586,-396 580,-396"/>
<text text-anchor="middle" x="550" y="-375.5" font-family="sans" font-size="10.00">count_variants</text>
</g>
<!-- 5&#45;&gt;12 -->
<g id="edge26" class="edge">
<title>5&#45;&gt;12</title>
<path fill="none" stroke="grey" stroke-width="2" d="M553.76,-431.7C553.21,-423.98 552.55,-414.71 551.94,-406.11"/>
<polygon fill="grey" stroke="grey" stroke-width="2" points="555.43,-405.83 551.22,-396.1 548.44,-406.33 555.43,-405.83"/>
</g>
<!-- 13 -->
<g id="node14" class="node">
<title>13</title>
<path fill="none" stroke="#56d89a" stroke-width="2" d="M497,-324C497,-324 449,-324 449,-324 443,-324 437,-318 437,-312 437,-312 437,-300 437,-300 437,-294 443,-288 449,-288 449,-288 497,-288 497,-288 503,-288 509,-294 509,-300 509,-300 509,-312 509,-312 509,-318 503,-324 497,-324"/>
<text text-anchor="middle" x="473" y="-303.5" font-family="sans" font-size="10.00">fit_titrations</text>
</g>
<!-- 5&#45;&gt;13 -->
<g id="edge29" class="edge">
<title>5&#45;&gt;13</title>
<path fill="none" stroke="grey" stroke-width="2" d="M531.75,-431.86C520.42,-422.42 507.45,-409.82 499,-396 487.42,-377.05 480.77,-352.69 477.1,-334.24"/>
<polygon fill="grey" stroke="grey" stroke-width="2" points="480.5,-333.37 475.27,-324.15 473.61,-334.62 480.5,-333.37"/>
</g>
<!-- 14 -->
<g id="node15" class="node">
<title>14</title>
<path fill="none" stroke="#b6d856" stroke-width="2" d="M671,-324C671,-324 585,-324 585,-324 579,-324 573,-318 573,-312 573,-312 573,-300 573,-300 573,-294 579,-288 585,-288 585,-288 671,-288 671,-288 677,-288 683,-294 683,-300 683,-300 683,-312 683,-312 683,-318 677,-324 671,-324"/>
<text text-anchor="middle" x="628" y="-303.5" font-family="sans" font-size="10.00">calculate_expression</text>
</g>
<!-- 5&#45;&gt;14 -->
<g id="edge33" class="edge">
<title>5&#45;&gt;14</title>
<path fill="none" stroke="grey" stroke-width="2" d="M573.25,-431.81C582.67,-422.07 593.69,-409.22 601,-396 611.7,-376.62 618.69,-352.48 622.86,-334.22"/>
<polygon fill="grey" stroke="grey" stroke-width="2" points="626.33,-334.75 625.01,-324.24 619.49,-333.28 626.33,-334.75"/>
</g>
<!-- 6 -->
<g id="node7" class="node">
<title>6</title>
<path fill="none" stroke="#56d8d8" stroke-width="2" d="M837.5,-540C837.5,-540 694.5,-540 694.5,-540 688.5,-540 682.5,-534 682.5,-528 682.5,-528 682.5,-516 682.5,-516 682.5,-510 688.5,-504 694.5,-504 694.5,-504 837.5,-504 837.5,-504 843.5,-504 849.5,-510 849.5,-516 849.5,-516 849.5,-528 849.5,-528 849.5,-534 843.5,-540 837.5,-540"/>
<text text-anchor="middle" x="766" y="-525" font-family="sans" font-size="10.00">get_ccs</text>
<text text-anchor="middle" x="766" y="-514" font-family="sans" font-size="10.00">pacbioRun: pool1_BQ11_230520</text>
</g>
<!-- 6&#45;&gt;5 -->
<g id="edge16" class="edge">
<title>6&#45;&gt;5</title>
<path fill="none" stroke="grey" stroke-width="2" d="M714.65,-503.97C685.04,-494.14 647.63,-481.73 616.46,-471.39"/>
<polygon fill="grey" stroke="grey" stroke-width="2" points="617.17,-467.94 606.58,-468.11 614.97,-474.58 617.17,-467.94"/>
</g>
<!-- 10 -->
<g id="node11" class="node">
<title>10</title>
<path fill="none" stroke="#56d87b" stroke-width="2" d="M459.5,-468C459.5,-468 382.5,-468 382.5,-468 376.5,-468 370.5,-462 370.5,-456 370.5,-456 370.5,-444 370.5,-444 370.5,-438 376.5,-432 382.5,-432 382.5,-432 459.5,-432 459.5,-432 465.5,-432 471.5,-438 471.5,-444 471.5,-444 471.5,-456 471.5,-456 471.5,-462 465.5,-468 459.5,-468"/>
<text text-anchor="middle" x="421" y="-447.5" font-family="sans" font-size="10.00">process_ccs_BQ11</text>
</g>
<!-- 6&#45;&gt;10 -->
<g id="edge20" class="edge">
<title>6&#45;&gt;10</title>
<path fill="none" stroke="grey" stroke-width="2" d="M682.22,-505.12C615.75,-492.44 528.34,-475.6 493,-468 489.33,-467.21 485.56,-466.38 481.76,-465.53"/>
<polygon fill="grey" stroke="grey" stroke-width="2" points="482.21,-462.04 471.69,-463.24 480.66,-468.87 482.21,-462.04"/>
</g>
<!-- 7 -->
<g id="node8" class="node">
<title>7</title>
<path fill="none" stroke="#56d8d8" stroke-width="2" d="M270.5,-540C270.5,-540 127.5,-540 127.5,-540 121.5,-540 115.5,-534 115.5,-528 115.5,-528 115.5,-516 115.5,-516 115.5,-510 121.5,-504 127.5,-504 127.5,-504 270.5,-504 270.5,-504 276.5,-504 282.5,-510 282.5,-516 282.5,-516 282.5,-528 282.5,-528 282.5,-534 276.5,-540 270.5,-540"/>
<text text-anchor="middle" x="199" y="-525" font-family="sans" font-size="10.00">get_ccs</text>
<text text-anchor="middle" x="199" y="-514" font-family="sans" font-size="10.00">pacbioRun: pool2_BQ11_230520</text>
</g>
<!-- 7&#45;&gt;5 -->
<g id="edge17" class="edge">
<title>7&#45;&gt;5</title>
<path fill="none" stroke="grey" stroke-width="2" d="M282.51,-505.48C358.51,-491.33 461.71,-472.03 481,-468 484.56,-467.26 488.22,-466.47 491.91,-465.67"/>
<polygon fill="grey" stroke="grey" stroke-width="2" points="492.69,-469.08 501.7,-463.51 491.18,-462.25 492.69,-469.08"/>
</g>
<!-- 7&#45;&gt;10 -->
<g id="edge21" class="edge">
<title>7&#45;&gt;10</title>
<path fill="none" stroke="grey" stroke-width="2" d="M253.02,-503.97C285.5,-493.73 326.9,-480.67 360.47,-470.09"/>
<polygon fill="grey" stroke="grey" stroke-width="2" points="361.69,-473.37 370.17,-467.03 359.58,-466.7 361.69,-473.37"/>
</g>
<!-- 8 -->
<g id="node9" class="node">
<title>8</title>
<path fill="none" stroke="#56d8d8" stroke-width="2" d="M461.5,-540C461.5,-540 312.5,-540 312.5,-540 306.5,-540 300.5,-534 300.5,-528 300.5,-528 300.5,-516 300.5,-516 300.5,-510 306.5,-504 312.5,-504 312.5,-504 461.5,-504 461.5,-504 467.5,-504 473.5,-510 473.5,-516 473.5,-516 473.5,-528 473.5,-528 473.5,-534 467.5,-540 461.5,-540"/>
<text text-anchor="middle" x="387" y="-525" font-family="sans" font-size="10.00">get_ccs</text>
<text text-anchor="middle" x="387" y="-514" font-family="sans" font-size="10.00">pacbioRun: pool1_XBB15_230520</text>
</g>
<!-- 8&#45;&gt;5 -->
<g id="edge18" class="edge">
<title>8&#45;&gt;5</title>
<path fill="none" stroke="grey" stroke-width="2" d="M428.1,-503.88C451.17,-494.26 480.14,-482.19 504.57,-472.01"/>
<polygon fill="grey" stroke="grey" stroke-width="2" points="506.15,-475.15 514.04,-468.07 503.46,-468.68 506.15,-475.15"/>
</g>
<!-- 8&#45;&gt;10 -->
<g id="edge22" class="edge">
<title>8&#45;&gt;10</title>
<path fill="none" stroke="grey" stroke-width="2" d="M395.4,-503.7C399.27,-495.73 403.95,-486.1 408.24,-477.26"/>
<polygon fill="grey" stroke="grey" stroke-width="2" points="411.47,-478.63 412.69,-468.1 405.17,-475.57 411.47,-478.63"/>
</g>
<!-- 9 -->
<g id="node10" class="node">
<title>9</title>
<path fill="none" stroke="#56d8d8" stroke-width="2" d="M652.5,-540C652.5,-540 503.5,-540 503.5,-540 497.5,-540 491.5,-534 491.5,-528 491.5,-528 491.5,-516 491.5,-516 491.5,-510 497.5,-504 503.5,-504 503.5,-504 652.5,-504 652.5,-504 658.5,-504 664.5,-510 664.5,-516 664.5,-516 664.5,-528 664.5,-528 664.5,-534 658.5,-540 652.5,-540"/>
<text text-anchor="middle" x="578" y="-525" font-family="sans" font-size="10.00">get_ccs</text>
<text text-anchor="middle" x="578" y="-514" font-family="sans" font-size="10.00">pacbioRun: pool2_XBB15_230520</text>
</g>
<!-- 9&#45;&gt;5 -->
<g id="edge19" class="edge">
<title>9&#45;&gt;5</title>
<path fill="none" stroke="grey" stroke-width="2" d="M572.31,-503.7C569.75,-495.9 566.67,-486.51 563.82,-477.83"/>
<polygon fill="grey" stroke="grey" stroke-width="2" points="567.07,-476.51 560.62,-468.1 560.42,-478.7 567.07,-476.51"/>
</g>
<!-- 9&#45;&gt;10 -->
<g id="edge23" class="edge">
<title>9&#45;&gt;10</title>
<path fill="none" stroke="grey" stroke-width="2" d="M539.59,-503.88C518.13,-494.31 491.2,-482.3 468.43,-472.15"/>
<polygon fill="grey" stroke="grey" stroke-width="2" points="469.84,-468.94 459.28,-468.07 466.99,-475.34 469.84,-468.94"/>
</g>
<!-- 10&#45;&gt;0 -->
<g id="edge6" class="edge">
<title>10&#45;&gt;0</title>
<path fill="none" stroke="grey" stroke-width="2" d="M380.14,-431.82C335.42,-409.97 270,-367.64 270,-307 270,-307 270,-307 270,-161 270,-107.21 321.46,-65.4 360.36,-41.47"/>
<polygon fill="grey" stroke="grey" stroke-width="2" points="362.64,-44.19 369.44,-36.07 359.06,-38.18 362.64,-44.19"/>
</g>
<!-- 10&#45;&gt;12 -->
<g id="edge25" class="edge">
<title>10&#45;&gt;12</title>
<path fill="none" stroke="grey" stroke-width="2" d="M452.56,-431.88C469.66,-422.6 490.98,-411.03 509.32,-401.08"/>
<polygon fill="grey" stroke="grey" stroke-width="2" points="511.2,-404.04 518.32,-396.19 507.86,-397.88 511.2,-404.04"/>
</g>
<!-- 10&#45;&gt;13 -->
<g id="edge28" class="edge">
<title>10&#45;&gt;13</title>
<path fill="none" stroke="grey" stroke-width="2" d="M419.31,-431.88C418.16,-413.41 418.31,-383.5 428,-360 432.26,-349.68 439.31,-339.91 446.58,-331.62"/>
<polygon fill="grey" stroke="grey" stroke-width="2" points="449.27,-333.87 453.53,-324.17 444.15,-329.09 449.27,-333.87"/>
</g>
<!-- 10&#45;&gt;14 -->
<g id="edge32" class="edge">
<title>10&#45;&gt;14</title>
<path fill="none" stroke="grey" stroke-width="2" d="M432.36,-431.79C446.1,-412.13 470.92,-380.07 499,-360 518.3,-346.2 541.73,-335.2 563.3,-326.88"/>
<polygon fill="grey" stroke="grey" stroke-width="2" points="564.59,-330.14 572.73,-323.36 562.14,-323.58 564.59,-330.14"/>
</g>
<!-- 11 -->
<g id="node12" class="node">
<title>11</title>
<path fill="none" stroke="#d85656" stroke-width="2" d="M731.5,-468C731.5,-468 648.5,-468 648.5,-468 642.5,-468 636.5,-462 636.5,-456 636.5,-456 636.5,-444 636.5,-444 636.5,-438 642.5,-432 648.5,-432 648.5,-432 731.5,-432 731.5,-432 737.5,-432 743.5,-438 743.5,-444 743.5,-444 743.5,-456 743.5,-456 743.5,-462 737.5,-468 731.5,-468"/>
<text text-anchor="middle" x="690" y="-447.5" font-family="sans" font-size="10.00">get_BA2_bc_lookup</text>
</g>
<!-- 11&#45;&gt;0 -->
<g id="edge7" class="edge">
<title>11&#45;&gt;0</title>
<path fill="none" stroke="grey" stroke-width="2" d="M725.54,-431.87C766.43,-409.39 828,-365.78 828,-307 828,-307 828,-307 828,-161 828,-106.91 792.8,-97.31 745,-72 696.32,-46.22 541.94,-30.18 458.23,-23.15"/>
<polygon fill="grey" stroke="grey" stroke-width="2" points="458.39,-19.66 448.14,-22.32 457.82,-26.63 458.39,-19.66"/>
</g>
<!-- 11&#45;&gt;12 -->
<g id="edge24" class="edge">
<title>11&#45;&gt;12</title>
<path fill="none" stroke="grey" stroke-width="2" d="M655.75,-431.88C636.94,-422.47 613.42,-410.71 593.33,-400.67"/>
<polygon fill="grey" stroke="grey" stroke-width="2" points="594.89,-397.53 584.38,-396.19 591.76,-403.79 594.89,-397.53"/>
</g>
<!-- 11&#45;&gt;13 -->
<g id="edge27" class="edge">
<title>11&#45;&gt;13</title>
<path fill="none" stroke="grey" stroke-width="2" d="M676.5,-431.91C660.32,-412.35 631.53,-380.39 601,-360 575.75,-343.13 544.28,-330.01 518.86,-321.05"/>
<polygon fill="grey" stroke="grey" stroke-width="2" points="519.68,-317.63 509.08,-317.69 517.41,-324.25 519.68,-317.63"/>
</g>
<!-- 11&#45;&gt;14 -->
<g id="edge31" class="edge">
<title>11&#45;&gt;14</title>
<path fill="none" stroke="grey" stroke-width="2" d="M689.02,-431.81C687.41,-413.29 683.16,-383.32 672,-360 667.15,-349.86 659.93,-340.03 652.74,-331.64"/>
<polygon fill="grey" stroke="grey" stroke-width="2" points="655.22,-329.16 645.93,-324.07 650.02,-333.85 655.22,-329.16"/>
</g>
<!-- 12&#45;&gt;0 -->
<g id="edge8" class="edge">
<title>12&#45;&gt;0</title>
<path fill="none" stroke="grey" stroke-width="2" d="M507.85,-371.65C438.51,-360.23 308,-326.58 308,-235 308,-235 308,-235 308,-161 308,-113.01 345.94,-68.96 373.87,-43.04"/>
<polygon fill="grey" stroke="grey" stroke-width="2" points="376.35,-45.52 381.44,-36.22 371.67,-40.31 376.35,-45.52"/>
</g>
<!-- 12&#45;&gt;13 -->
<g id="edge30" class="edge">
<title>12&#45;&gt;13</title>
<path fill="none" stroke="grey" stroke-width="2" d="M530.97,-359.7C521.46,-351.05 509.79,-340.45 499.43,-331.03"/>
<polygon fill="grey" stroke="grey" stroke-width="2" points="501.57,-328.24 491.81,-324.1 496.86,-333.42 501.57,-328.24"/>
</g>
<!-- 12&#45;&gt;14 -->
<g id="edge34" class="edge">
<title>12&#45;&gt;14</title>
<path fill="none" stroke="grey" stroke-width="2" d="M569.28,-359.7C578.92,-351.05 590.73,-340.45 601.23,-331.03"/>
<polygon fill="grey" stroke="grey" stroke-width="2" points="603.84,-333.39 608.94,-324.1 599.16,-328.18 603.84,-333.39"/>
</g>
<!-- 13&#45;&gt;0 -->
<g id="edge9" class="edge">
<title>13&#45;&gt;0</title>
<path fill="none" stroke="grey" stroke-width="2" d="M436.89,-297.73C411.98,-290.63 380.63,-277.08 365,-252 324.02,-186.24 364.29,-90.54 388.15,-44.98"/>
<polygon fill="grey" stroke="grey" stroke-width="2" points="391.3,-46.51 392.96,-36.05 385.14,-43.19 391.3,-46.51"/>
</g>
<!-- 15 -->
<g id="node16" class="node">
<title>15</title>
<path fill="none" stroke="#d89556" stroke-width="2" d="M604.5,-252C604.5,-252 541.5,-252 541.5,-252 535.5,-252 529.5,-246 529.5,-240 529.5,-240 529.5,-228 529.5,-228 529.5,-222 535.5,-216 541.5,-216 541.5,-216 604.5,-216 604.5,-216 610.5,-216 616.5,-222 616.5,-228 616.5,-228 616.5,-240 616.5,-240 616.5,-246 610.5,-252 604.5,-252"/>
<text text-anchor="middle" x="573" y="-231.5" font-family="sans" font-size="10.00">collapse_scores</text>
</g>
<!-- 13&#45;&gt;15 -->
<g id="edge35" class="edge">
<title>13&#45;&gt;15</title>
<path fill="none" stroke="grey" stroke-width="2" d="M497.46,-287.88C510.3,-278.89 526.2,-267.76 540.09,-258.03"/>
<polygon fill="grey" stroke="grey" stroke-width="2" points="542.26,-260.79 548.44,-252.19 538.24,-255.06 542.26,-260.79"/>
</g>
<!-- 14&#45;&gt;0 -->
<g id="edge10" class="edge">
<title>14&#45;&gt;0</title>
<path fill="none" stroke="grey" stroke-width="2" d="M653.77,-287.77C693.46,-258.99 762.05,-198.85 733,-144 681.2,-46.2 538.2,-24.18 458.49,-19.69"/>
<polygon fill="grey" stroke="grey" stroke-width="2" points="458.31,-16.18 448.15,-19.19 457.97,-23.17 458.31,-16.18"/>
</g>
<!-- 14&#45;&gt;15 -->
<g id="edge36" class="edge">
<title>14&#45;&gt;15</title>
<path fill="none" stroke="grey" stroke-width="2" d="M614.4,-287.7C607.88,-279.39 599.93,-269.28 592.75,-260.14"/>
<polygon fill="grey" stroke="grey" stroke-width="2" points="595.37,-257.81 586.44,-252.1 589.87,-262.13 595.37,-257.81"/>
</g>
<!-- 15&#45;&gt;0 -->
<g id="edge11" class="edge">
<title>15&#45;&gt;0</title>
<path fill="none" stroke="grey" stroke-width="2" d="M574.5,-215.9C577.36,-179.14 581.9,-94.13 565,-72 540.13,-39.43 494.76,-26.59 458.35,-21.66"/>
<polygon fill="grey" stroke="grey" stroke-width="2" points="458.69,-18.18 448.34,-20.47 457.86,-25.13 458.69,-18.18"/>
</g>
<!-- 15&#45;&gt;16 -->
<g id="edge37" class="edge">
<title>15&#45;&gt;16</title>
<path fill="none" stroke="grey" stroke-width="2" d="M543.89,-215.88C528.33,-206.72 508.98,-195.34 492.22,-185.48"/>
<polygon fill="grey" stroke="grey" stroke-width="2" points="493.62,-182.24 483.22,-180.19 490.07,-188.28 493.62,-182.24"/>
</g>
<!-- 17 -->
<g id="node18" class="node">
<title>17</title>
<path fill="none" stroke="#97d856" stroke-width="2" d="M543.5,-108C543.5,-108 462.5,-108 462.5,-108 456.5,-108 450.5,-102 450.5,-96 450.5,-96 450.5,-84 450.5,-84 450.5,-78 456.5,-72 462.5,-72 462.5,-72 543.5,-72 543.5,-72 549.5,-72 555.5,-78 555.5,-84 555.5,-84 555.5,-96 555.5,-96 555.5,-102 549.5,-108 543.5,-108"/>
<text text-anchor="middle" x="503" y="-87.5" font-family="sans" font-size="10.00">interactive_jsd_plot</text>
</g>
<!-- 15&#45;&gt;17 -->
<g id="edge39" class="edge">
<title>15&#45;&gt;17</title>
<path fill="none" stroke="grey" stroke-width="2" d="M564.56,-215.87C552.47,-191.35 530.13,-146.03 515.94,-117.26"/>
<polygon fill="grey" stroke="grey" stroke-width="2" points="519.03,-115.61 511.47,-108.19 512.76,-118.71 519.03,-115.61"/>
</g>
<!-- 18 -->
<g id="node19" class="node">
<title>18</title>
<path fill="none" stroke="#59d856" stroke-width="2" d="M712,-180C712,-180 602,-180 602,-180 596,-180 590,-174 590,-168 590,-168 590,-156 590,-156 590,-150 596,-144 602,-144 602,-144 712,-144 712,-144 718,-144 724,-150 724,-156 724,-156 724,-168 724,-168 724,-174 718,-180 712,-180"/>
<text text-anchor="middle" x="657" y="-159.5" font-family="sans" font-size="10.00">interactive_heatmap_plot</text>
</g>
<!-- 15&#45;&gt;18 -->
<g id="edge41" class="edge">
<title>15&#45;&gt;18</title>
<path fill="none" stroke="grey" stroke-width="2" d="M593.76,-215.7C604.24,-206.97 617.11,-196.24 628.5,-186.75"/>
<polygon fill="grey" stroke="grey" stroke-width="2" points="631.03,-189.19 636.47,-180.1 626.55,-183.82 631.03,-189.19"/>
</g>
<!-- 16&#45;&gt;0 -->
<g id="edge12" class="edge">
<title>16&#45;&gt;0</title>
<path fill="none" stroke="grey" stroke-width="2" d="M447.85,-143.87C439.08,-119.46 422.91,-74.43 412.57,-45.64"/>
<polygon fill="grey" stroke="grey" stroke-width="2" points="415.85,-44.42 409.17,-36.19 409.26,-46.78 415.85,-44.42"/>
</g>
<!-- 16&#45;&gt;17 -->
<g id="edge40" class="edge">
<title>16&#45;&gt;17</title>
<path fill="none" stroke="grey" stroke-width="2" d="M466.11,-143.7C471.87,-135.47 478.86,-125.48 485.21,-116.42"/>
<polygon fill="grey" stroke="grey" stroke-width="2" points="488.16,-118.3 491.03,-108.1 482.42,-114.29 488.16,-118.3"/>
</g>
<!-- 17&#45;&gt;0 -->
<g id="edge13" class="edge">
<title>17&#45;&gt;0</title>
<path fill="none" stroke="grey" stroke-width="2" d="M478.54,-71.88C465.7,-62.89 449.8,-51.76 435.91,-42.03"/>
<polygon fill="grey" stroke="grey" stroke-width="2" points="437.76,-39.06 427.56,-36.19 433.74,-44.79 437.76,-39.06"/>
</g>
<!-- 18&#45;&gt;0 -->
<g id="edge14" class="edge">
<title>18&#45;&gt;0</title>
<path fill="none" stroke="grey" stroke-width="2" d="M650.15,-143.86C641.18,-123.64 623.55,-90.45 598,-72 556.88,-42.31 500.01,-29.25 458.29,-23.51"/>
<polygon fill="grey" stroke="grey" stroke-width="2" points="458.66,-20.02 448.3,-22.23 457.78,-26.97 458.66,-20.02"/>
</g>
</g>
</svg>
