<?xml version="1.0" encoding="UTF-8" standalone="no"?>
<!DOCTYPE svg PUBLIC "-//W3C//DTD SVG 1.1//EN"
 "http://www.w3.org/Graphics/SVG/1.1/DTD/svg11.dtd">
<!-- Generated by graphviz version 2.40.1 (0)
 -->
<!-- Title: snakemake_dag Pages: 1 -->
<svg width="889pt" height="548pt"
 viewBox="0.00 0.00 888.50 548.00" xmlns="http://www.w3.org/2000/svg" xmlns:xlink="http://www.w3.org/1999/xlink">
<g id="graph0" class="graph" transform="scale(1 1) rotate(0) translate(4 544)">
<title>snakemake_dag</title>
<polygon fill="#ffffff" stroke="transparent" points="-4,4 -4,-544 884.5,-544 884.5,4 -4,4"/>
<!-- 0 -->
<g id="node1" class="node">
<title>0</title>
<path fill="none" stroke="#56d8d8" stroke-width="2" d="M449,-36C449,-36 377,-36 377,-36 371,-36 365,-30 365,-24 365,-24 365,-12 365,-12 365,-6 371,0 377,0 377,0 449,0 449,0 455,0 461,-6 461,-12 461,-12 461,-24 461,-24 461,-30 455,-36 449,-36"/>
<text text-anchor="middle" x="413" y="-15.5" font-family="sans" font-size="10.00" fill="#000000">make_summary</text>
</g>
<!-- 1 -->
<g id="node2" class="node">
<title>1</title>
<path fill="none" stroke="#56d8b9" stroke-width="2" d="M56,-180C56,-180 12,-180 12,-180 6,-180 0,-174 0,-168 0,-168 0,-156 0,-156 0,-150 6,-144 12,-144 12,-144 56,-144 56,-144 62,-144 68,-150 68,-156 68,-156 68,-168 68,-168 68,-174 62,-180 56,-180"/>
<text text-anchor="middle" x="34" y="-159.5" font-family="sans" font-size="10.00" fill="#000000">make_dag</text>
</g>
<!-- 1&#45;&gt;0 -->
<g id="edge1" class="edge">
<title>1&#45;&gt;0</title>
<path fill="none" stroke="#c0c0c0" stroke-width="2" d="M21.5392,-143.886C9.5054,-123.9425 -4.5282,-92.0535 13,-72 35.1478,-46.6613 249.2976,-28.9434 354.8204,-21.6773"/>
<polygon fill="#c0c0c0" stroke="#c0c0c0" stroke-width="2" points="355.2498,-25.1563 364.9895,-20.9863 354.7752,-18.1724 355.2498,-25.1563"/>
</g>
<!-- 2 -->
<g id="node3" class="node">
<title>2</title>
<path fill="none" stroke="#567bd8" stroke-width="2" d="M111.5,-108C111.5,-108 34.5,-108 34.5,-108 28.5,-108 22.5,-102 22.5,-96 22.5,-96 22.5,-84 22.5,-84 22.5,-78 28.5,-72 34.5,-72 34.5,-72 111.5,-72 111.5,-72 117.5,-72 123.5,-78 123.5,-84 123.5,-84 123.5,-96 123.5,-96 123.5,-102 117.5,-108 111.5,-108"/>
<text text-anchor="middle" x="73" y="-87.5" font-family="sans" font-size="10.00" fill="#000000">save_pinned_env</text>
</g>
<!-- 1&#45;&gt;2 -->
<g id="edge15" class="edge">
<title>1&#45;&gt;2</title>
<path fill="none" stroke="#c0c0c0" stroke-width="2" d="M43.8413,-143.8314C48.1957,-135.7925 53.4098,-126.1666 58.2169,-117.2918"/>
<polygon fill="#c0c0c0" stroke="#c0c0c0" stroke-width="2" points="61.3408,-118.8732 63.0261,-108.4133 55.1857,-115.5392 61.3408,-118.8732"/>
</g>
<!-- 2&#45;&gt;0 -->
<g id="edge2" class="edge">
<title>2&#45;&gt;0</title>
<path fill="none" stroke="#c0c0c0" stroke-width="2" d="M123.6402,-74.4161C126.7985,-73.5659 129.9373,-72.7527 133,-72 209.08,-53.3023 298.0945,-37.0864 354.9808,-27.4288"/>
<polygon fill="#c0c0c0" stroke="#c0c0c0" stroke-width="2" points="355.5914,-30.8753 364.8701,-25.761 354.4273,-23.9728 355.5914,-30.8753"/>
</g>
<!-- 3 -->
<g id="node4" class="node">
<title>3</title>
<path fill="none" stroke="#56d89a" stroke-width="2" d="M240,-108C240,-108 154,-108 154,-108 148,-108 142,-102 142,-96 142,-96 142,-84 142,-84 142,-78 148,-72 154,-72 154,-72 240,-72 240,-72 246,-72 252,-78 252,-84 252,-84 252,-96 252,-96 252,-102 246,-108 240,-108"/>
<text text-anchor="middle" x="197" y="-87.5" font-family="sans" font-size="10.00" fill="#000000">get_mut_bind_expr</text>
</g>
<!-- 3&#45;&gt;0 -->
<g id="edge3" class="edge">
<title>3&#45;&gt;0</title>
<path fill="none" stroke="#c0c0c0" stroke-width="2" d="M251.2271,-71.9243C282.8244,-61.3919 322.666,-48.1113 354.9036,-37.3655"/>
<polygon fill="#c0c0c0" stroke="#c0c0c0" stroke-width="2" points="356.2667,-40.6005 364.6467,-34.1178 354.0531,-33.9597 356.2667,-40.6005"/>
</g>
<!-- 4 -->
<g id="node5" class="node">
<title>4</title>
<path fill="none" stroke="#97d856" stroke-width="2" d="M517.5,-252C517.5,-252 396.5,-252 396.5,-252 390.5,-252 384.5,-246 384.5,-240 384.5,-240 384.5,-228 384.5,-228 384.5,-222 390.5,-216 396.5,-216 396.5,-216 517.5,-216 517.5,-216 523.5,-216 529.5,-222 529.5,-228 529.5,-228 529.5,-240 529.5,-240 529.5,-246 523.5,-252 517.5,-252"/>
<text text-anchor="middle" x="457" y="-231.5" font-family="sans" font-size="10.00" fill="#000000">get_mut_antibody_escape</text>
</g>
<!-- 4&#45;&gt;0 -->
<g id="edge4" class="edge">
<title>4&#45;&gt;0</title>
<path fill="none" stroke="#c0c0c0" stroke-width="2" d="M437.5398,-215.9539C428.5342,-206.2738 418.7867,-193.561 414,-180 398.2034,-135.2476 402.7965,-79.1087 407.7631,-46.0368"/>
<polygon fill="#c0c0c0" stroke="#c0c0c0" stroke-width="2" points="411.22,-46.5843 409.3634,-36.1534 404.31,-45.4654 411.22,-46.5843"/>
</g>
<!-- 16 -->
<g id="node17" class="node">
<title>16</title>
<path fill="none" stroke="#569ad8" stroke-width="2" d="M501.5,-180C501.5,-180 434.5,-180 434.5,-180 428.5,-180 422.5,-174 422.5,-168 422.5,-168 422.5,-156 422.5,-156 422.5,-150 428.5,-144 434.5,-144 434.5,-144 501.5,-144 501.5,-144 507.5,-144 513.5,-150 513.5,-156 513.5,-156 513.5,-168 513.5,-168 513.5,-174 507.5,-180 501.5,-180"/>
<text text-anchor="middle" x="468" y="-159.5" font-family="sans" font-size="10.00" fill="#000000">epistatic_shifts</text>
</g>
<!-- 4&#45;&gt;16 -->
<g id="edge38" class="edge">
<title>4&#45;&gt;16</title>
<path fill="none" stroke="#c0c0c0" stroke-width="2" d="M459.7758,-215.8314C460.9522,-208.131 462.3511,-198.9743 463.6586,-190.4166"/>
<polygon fill="#c0c0c0" stroke="#c0c0c0" stroke-width="2" points="467.1364,-190.8272 465.1869,-180.4133 460.2167,-189.7699 467.1364,-190.8272"/>
</g>
<!-- 5 -->
<g id="node6" class="node">
<title>5</title>
<path fill="none" stroke="#d87556" stroke-width="2" d="M619.5,-468C619.5,-468 530.5,-468 530.5,-468 524.5,-468 518.5,-462 518.5,-456 518.5,-456 518.5,-444 518.5,-444 518.5,-438 524.5,-432 530.5,-432 530.5,-432 619.5,-432 619.5,-432 625.5,-432 631.5,-438 631.5,-444 631.5,-444 631.5,-456 631.5,-456 631.5,-462 625.5,-468 619.5,-468"/>
<text text-anchor="middle" x="575" y="-447.5" font-family="sans" font-size="10.00" fill="#000000">process_ccs_XBB15</text>
</g>
<!-- 5&#45;&gt;0 -->
<g id="edge5" class="edge">
<title>5&#45;&gt;0</title>
<path fill="none" stroke="#c0c0c0" stroke-width="2" d="M623.7699,-431.9776C694.1909,-404.4242 816,-350.3536 816,-306 816,-306 816,-306 816,-162 816,-97.0974 760.1369,-98.7428 701,-72 626.1821,-38.166 531.2174,-25.53 471.2556,-20.8114"/>
<polygon fill="#c0c0c0" stroke="#c0c0c0" stroke-width="2" points="471.4418,-17.3157 461.2111,-20.0694 470.9261,-24.2967 471.4418,-17.3157"/>
</g>
<!-- 12 -->
<g id="node13" class="node">
<title>12</title>
<path fill="none" stroke="#d89556" stroke-width="2" d="M603.5,-396C603.5,-396 538.5,-396 538.5,-396 532.5,-396 526.5,-390 526.5,-384 526.5,-384 526.5,-372 526.5,-372 526.5,-366 532.5,-360 538.5,-360 538.5,-360 603.5,-360 603.5,-360 609.5,-360 615.5,-366 615.5,-372 615.5,-372 615.5,-384 615.5,-384 615.5,-390 609.5,-396 603.5,-396"/>
<text text-anchor="middle" x="571" y="-375.5" font-family="sans" font-size="10.00" fill="#000000">count_variants</text>
</g>
<!-- 5&#45;&gt;12 -->
<g id="edge26" class="edge">
<title>5&#45;&gt;12</title>
<path fill="none" stroke="#c0c0c0" stroke-width="2" d="M573.9906,-431.8314C573.5628,-424.131 573.0541,-414.9743 572.5787,-406.4166"/>
<polygon fill="#c0c0c0" stroke="#c0c0c0" stroke-width="2" points="576.0724,-406.2037 572.023,-396.4133 569.0831,-406.592 576.0724,-406.2037"/>
</g>
<!-- 13 -->
<g id="node14" class="node">
<title>13</title>
<path fill="none" stroke="#d6d856" stroke-width="2" d="M516,-324C516,-324 464,-324 464,-324 458,-324 452,-318 452,-312 452,-312 452,-300 452,-300 452,-294 458,-288 464,-288 464,-288 516,-288 516,-288 522,-288 528,-294 528,-300 528,-300 528,-312 528,-312 528,-318 522,-324 516,-324"/>
<text text-anchor="middle" x="490" y="-303.5" font-family="sans" font-size="10.00" fill="#000000">fit_titrations</text>
</g>
<!-- 5&#45;&gt;13 -->
<g id="edge29" class="edge">
<title>5&#45;&gt;13</title>
<path fill="none" stroke="#c0c0c0" stroke-width="2" d="M550.8671,-431.9874C539.4951,-422.4058 526.5756,-409.7694 518,-396 506.1575,-376.9852 498.9738,-352.5709 494.8527,-333.9691"/>
<polygon fill="#c0c0c0" stroke="#c0c0c0" stroke-width="2" points="498.2542,-333.1329 492.8181,-324.039 491.3967,-334.538 498.2542,-333.1329"/>
</g>
<!-- 14 -->
<g id="node15" class="node">
<title>14</title>
<path fill="none" stroke="#b6d856" stroke-width="2" d="M700.5,-324C700.5,-324 605.5,-324 605.5,-324 599.5,-324 593.5,-318 593.5,-312 593.5,-312 593.5,-300 593.5,-300 593.5,-294 599.5,-288 605.5,-288 605.5,-288 700.5,-288 700.5,-288 706.5,-288 712.5,-294 712.5,-300 712.5,-300 712.5,-312 712.5,-312 712.5,-318 706.5,-324 700.5,-324"/>
<text text-anchor="middle" x="653" y="-303.5" font-family="sans" font-size="10.00" fill="#000000">calculate_expression</text>
</g>
<!-- 5&#45;&gt;14 -->
<g id="edge33" class="edge">
<title>5&#45;&gt;14</title>
<path fill="none" stroke="#c0c0c0" stroke-width="2" d="M595.8423,-431.7097C605.8588,-421.9674 617.3249,-409.2726 625,-396 636.1451,-376.7268 643.3524,-352.5188 647.6596,-334.0651"/>
<polygon fill="#c0c0c0" stroke="#c0c0c0" stroke-width="2" points="651.0976,-334.7266 649.8145,-324.2098 644.2592,-333.2313 651.0976,-334.7266"/>
</g>
<!-- 6 -->
<g id="node7" class="node">
<title>6</title>
<path fill="none" stroke="#d85656" stroke-width="2" d="M868.5,-540C868.5,-540 719.5,-540 719.5,-540 713.5,-540 707.5,-534 707.5,-528 707.5,-528 707.5,-516 707.5,-516 707.5,-510 713.5,-504 719.5,-504 719.5,-504 868.5,-504 868.5,-504 874.5,-504 880.5,-510 880.5,-516 880.5,-516 880.5,-528 880.5,-528 880.5,-534 874.5,-540 868.5,-540"/>
<text text-anchor="middle" x="794" y="-525" font-family="sans" font-size="10.00" fill="#000000">get_ccs</text>
<text text-anchor="middle" x="794" y="-514" font-family="sans" font-size="10.00" fill="#000000">pacbioRun: pool1_BQ11_230520</text>
</g>
<!-- 6&#45;&gt;5 -->
<g id="edge16" class="edge">
<title>6&#45;&gt;5</title>
<path fill="none" stroke="#c0c0c0" stroke-width="2" d="M739.0197,-503.9243C708.8208,-493.9959 671.1942,-481.6255 639.5996,-471.2382"/>
<polygon fill="#c0c0c0" stroke="#c0c0c0" stroke-width="2" points="640.5958,-467.8815 630.0029,-468.0831 638.4095,-474.5313 640.5958,-467.8815"/>
</g>
<!-- 10 -->
<g id="node11" class="node">
<title>10</title>
<path fill="none" stroke="#78d856" stroke-width="2" d="M478.5,-468C478.5,-468 395.5,-468 395.5,-468 389.5,-468 383.5,-462 383.5,-456 383.5,-456 383.5,-444 383.5,-444 383.5,-438 389.5,-432 395.5,-432 395.5,-432 478.5,-432 478.5,-432 484.5,-432 490.5,-438 490.5,-444 490.5,-444 490.5,-456 490.5,-456 490.5,-462 484.5,-468 478.5,-468"/>
<text text-anchor="middle" x="437" y="-447.5" font-family="sans" font-size="10.00" fill="#000000">process_ccs_BQ11</text>
</g>
<!-- 6&#45;&gt;10 -->
<g id="edge20" class="edge">
<title>6&#45;&gt;10</title>
<path fill="none" stroke="#c0c0c0" stroke-width="2" d="M707.3549,-505.5826C625.646,-490.0919 514.9265,-469.0749 510,-468 506.9731,-467.3396 503.88,-466.6469 500.759,-465.9336"/>
<polygon fill="#c0c0c0" stroke="#c0c0c0" stroke-width="2" points="501.2765,-462.4605 490.7431,-463.5996 499.6879,-469.2778 501.2765,-462.4605"/>
</g>
<!-- 7 -->
<g id="node8" class="node">
<title>7</title>
<path fill="none" stroke="#d85656" stroke-width="2" d="M283.5,-540C283.5,-540 134.5,-540 134.5,-540 128.5,-540 122.5,-534 122.5,-528 122.5,-528 122.5,-516 122.5,-516 122.5,-510 128.5,-504 134.5,-504 134.5,-504 283.5,-504 283.5,-504 289.5,-504 295.5,-510 295.5,-516 295.5,-516 295.5,-528 295.5,-528 295.5,-534 289.5,-540 283.5,-540"/>
<text text-anchor="middle" x="209" y="-525" font-family="sans" font-size="10.00" fill="#000000">get_ccs</text>
<text text-anchor="middle" x="209" y="-514" font-family="sans" font-size="10.00" fill="#000000">pacbioRun: pool2_BQ11_230520</text>
</g>
<!-- 7&#45;&gt;5 -->
<g id="edge17" class="edge">
<title>7&#45;&gt;5</title>
<path fill="none" stroke="#c0c0c0" stroke-width="2" d="M295.7176,-505.5486C298.5108,-505.0253 301.2772,-504.508 304,-504 391.0659,-487.7559 413.3516,-486.3414 500,-468 502.6712,-467.4346 505.3928,-466.845 508.1396,-466.2388"/>
<polygon fill="#c0c0c0" stroke="#c0c0c0" stroke-width="2" points="509.1653,-469.5955 518.1519,-463.9838 507.6272,-462.7666 509.1653,-469.5955"/>
</g>
<!-- 7&#45;&gt;10 -->
<g id="edge21" class="edge">
<title>7&#45;&gt;10</title>
<path fill="none" stroke="#c0c0c0" stroke-width="2" d="M266.2397,-503.9243C298.8957,-493.6119 339.8944,-480.6649 373.5334,-470.0421"/>
<polygon fill="#c0c0c0" stroke="#c0c0c0" stroke-width="2" points="374.7831,-473.3179 383.2649,-466.969 372.6751,-466.6428 374.7831,-473.3179"/>
</g>
<!-- 8 -->
<g id="node9" class="node">
<title>8</title>
<path fill="none" stroke="#d85656" stroke-width="2" d="M480.5,-540C480.5,-540 325.5,-540 325.5,-540 319.5,-540 313.5,-534 313.5,-528 313.5,-528 313.5,-516 313.5,-516 313.5,-510 319.5,-504 325.5,-504 325.5,-504 480.5,-504 480.5,-504 486.5,-504 492.5,-510 492.5,-516 492.5,-516 492.5,-528 492.5,-528 492.5,-534 486.5,-540 480.5,-540"/>
<text text-anchor="middle" x="403" y="-525" font-family="sans" font-size="10.00" fill="#000000">get_ccs</text>
<text text-anchor="middle" x="403" y="-514" font-family="sans" font-size="10.00" fill="#000000">pacbioRun: pool1_XBB15_230520</text>
</g>
<!-- 8&#45;&gt;5 -->
<g id="edge18" class="edge">
<title>8&#45;&gt;5</title>
<path fill="none" stroke="#c0c0c0" stroke-width="2" d="M446.4029,-503.8314C469.5091,-494.159 498.1038,-482.1891 522.4577,-471.9944"/>
<polygon fill="#c0c0c0" stroke="#c0c0c0" stroke-width="2" points="524.0363,-475.128 531.9092,-468.038 521.3333,-468.6709 524.0363,-475.128"/>
</g>
<!-- 8&#45;&gt;10 -->
<g id="edge22" class="edge">
<title>8&#45;&gt;10</title>
<path fill="none" stroke="#c0c0c0" stroke-width="2" d="M411.5796,-503.8314C415.3358,-495.8771 419.8257,-486.369 423.9798,-477.5723"/>
<polygon fill="#c0c0c0" stroke="#c0c0c0" stroke-width="2" points="427.1996,-478.9503 428.3048,-468.4133 420.8699,-475.9612 427.1996,-478.9503"/>
</g>
<!-- 9 -->
<g id="node10" class="node">
<title>9</title>
<path fill="none" stroke="#d85656" stroke-width="2" d="M677.5,-540C677.5,-540 522.5,-540 522.5,-540 516.5,-540 510.5,-534 510.5,-528 510.5,-528 510.5,-516 510.5,-516 510.5,-510 516.5,-504 522.5,-504 522.5,-504 677.5,-504 677.5,-504 683.5,-504 689.5,-510 689.5,-516 689.5,-516 689.5,-528 689.5,-528 689.5,-534 683.5,-540 677.5,-540"/>
<text text-anchor="middle" x="600" y="-525" font-family="sans" font-size="10.00" fill="#000000">get_ccs</text>
<text text-anchor="middle" x="600" y="-514" font-family="sans" font-size="10.00" fill="#000000">pacbioRun: pool2_XBB15_230520</text>
</g>
<!-- 9&#45;&gt;5 -->
<g id="edge19" class="edge">
<title>9&#45;&gt;5</title>
<path fill="none" stroke="#c0c0c0" stroke-width="2" d="M593.6914,-503.8314C590.9883,-496.0463 587.7684,-486.7729 584.769,-478.1347"/>
<polygon fill="#c0c0c0" stroke="#c0c0c0" stroke-width="2" points="587.98,-476.7119 581.3935,-468.4133 581.3673,-479.0081 587.98,-476.7119"/>
</g>
<!-- 9&#45;&gt;10 -->
<g id="edge23" class="edge">
<title>9&#45;&gt;10</title>
<path fill="none" stroke="#c0c0c0" stroke-width="2" d="M558.8682,-503.8314C537.0679,-494.2018 510.1122,-482.295 487.0996,-472.1299"/>
<polygon fill="#c0c0c0" stroke="#c0c0c0" stroke-width="2" points="488.3976,-468.877 477.836,-468.038 485.5692,-475.2802 488.3976,-468.877"/>
</g>
<!-- 10&#45;&gt;0 -->
<g id="edge6" class="edge">
<title>10&#45;&gt;0</title>
<path fill="none" stroke="#c0c0c0" stroke-width="2" d="M392.4301,-431.8856C346.014,-409.7171 280,-367.3962 280,-306 280,-306 280,-306 280,-162 280,-108.0557 330.9911,-65.7061 369.8273,-41.2745"/>
<polygon fill="#c0c0c0" stroke="#c0c0c0" stroke-width="2" points="371.69,-44.2381 378.403,-36.0414 368.0437,-38.2628 371.69,-44.2381"/>
</g>
<!-- 10&#45;&gt;12 -->
<g id="edge25" class="edge">
<title>10&#45;&gt;12</title>
<path fill="none" stroke="#c0c0c0" stroke-width="2" d="M470.8139,-431.8314C488.2707,-422.4516 509.7487,-410.9112 528.3352,-400.9244"/>
<polygon fill="#c0c0c0" stroke="#c0c0c0" stroke-width="2" points="530.0446,-403.9792 537.197,-396.1628 526.7314,-397.8129 530.0446,-403.9792"/>
</g>
<!-- 10&#45;&gt;13 -->
<g id="edge28" class="edge">
<title>10&#45;&gt;13</title>
<path fill="none" stroke="#c0c0c0" stroke-width="2" d="M435.8111,-431.6704C435.2772,-412.9398 436.3487,-383.367 446,-360 450.1982,-349.8357 456.9659,-340.0786 463.9478,-331.7221"/>
<polygon fill="#c0c0c0" stroke="#c0c0c0" stroke-width="2" points="466.6237,-333.9796 470.6307,-324.1717 461.382,-329.3402 466.6237,-333.9796"/>
</g>
<!-- 10&#45;&gt;14 -->
<g id="edge32" class="edge">
<title>10&#45;&gt;14</title>
<path fill="none" stroke="#c0c0c0" stroke-width="2" d="M449.3838,-431.8545C463.8205,-411.8829 489.383,-379.9688 518,-360 537.7459,-346.2215 561.5191,-335.2139 583.5772,-326.8252"/>
<polygon fill="#c0c0c0" stroke="#c0c0c0" stroke-width="2" points="585.0608,-330.0088 593.2385,-323.2726 582.645,-323.4389 585.0608,-330.0088"/>
</g>
<!-- 11 -->
<g id="node12" class="node">
<title>11</title>
<path fill="none" stroke="#56b9d8" stroke-width="2" d="M759,-468C759,-468 671,-468 671,-468 665,-468 659,-462 659,-456 659,-456 659,-444 659,-444 659,-438 665,-432 671,-432 671,-432 759,-432 759,-432 765,-432 771,-438 771,-444 771,-444 771,-456 771,-456 771,-462 765,-468 759,-468"/>
<text text-anchor="middle" x="715" y="-447.5" font-family="sans" font-size="10.00" fill="#000000">get_BA2_bc_lookup</text>
</g>
<!-- 11&#45;&gt;0 -->
<g id="edge7" class="edge">
<title>11&#45;&gt;0</title>
<path fill="none" stroke="#c0c0c0" stroke-width="2" d="M751.8845,-431.9612C793.064,-408.9289 854,-364.8961 854,-306 854,-306 854,-306 854,-162 854,-103.5154 810.5548,-97.6601 758,-72 708.5945,-47.8776 556.0147,-30.83 471.2598,-22.9411"/>
<polygon fill="#c0c0c0" stroke="#c0c0c0" stroke-width="2" points="471.5496,-19.4531 461.2716,-22.0246 470.9099,-26.4238 471.5496,-19.4531"/>
</g>
<!-- 11&#45;&gt;12 -->
<g id="edge24" class="edge">
<title>11&#45;&gt;12</title>
<path fill="none" stroke="#c0c0c0" stroke-width="2" d="M678.6627,-431.8314C659.6604,-422.3302 636.2242,-410.6121 616.0748,-400.5374"/>
<polygon fill="#c0c0c0" stroke="#c0c0c0" stroke-width="2" points="617.5855,-397.3797 607.076,-396.038 614.455,-403.6407 617.5855,-397.3797"/>
</g>
<!-- 11&#45;&gt;13 -->
<g id="edge27" class="edge">
<title>11&#45;&gt;13</title>
<path fill="none" stroke="#c0c0c0" stroke-width="2" d="M700.805,-431.9376C684.3742,-412.0404 655.6229,-380.1927 625,-360 598.1605,-342.3021 564.6131,-328.8483 537.6751,-319.7961"/>
<polygon fill="#c0c0c0" stroke="#c0c0c0" stroke-width="2" points="538.6668,-316.4381 528.0743,-316.6605 536.4935,-323.0922 538.6668,-316.4381"/>
</g>
<!-- 11&#45;&gt;14 -->
<g id="edge31" class="edge">
<title>11&#45;&gt;14</title>
<path fill="none" stroke="#c0c0c0" stroke-width="2" d="M713.6557,-431.9742C711.7054,-413.2275 707.0255,-383.4034 696,-360 691.278,-349.9768 684.3584,-340.1503 677.4443,-331.6857"/>
<polygon fill="#c0c0c0" stroke="#c0c0c0" stroke-width="2" points="680.05,-329.3475 670.8889,-324.0254 674.7316,-333.8989 680.05,-329.3475"/>
</g>
<!-- 12&#45;&gt;0 -->
<g id="edge8" class="edge">
<title>12&#45;&gt;0</title>
<path fill="none" stroke="#c0c0c0" stroke-width="2" d="M526.3511,-372.9416C453.7198,-361.9603 318,-328.7624 318,-234 318,-234 318,-234 318,-162 318,-114.0912 355.0913,-69.8312 382.921,-43.3654"/>
<polygon fill="#c0c0c0" stroke="#c0c0c0" stroke-width="2" points="385.5108,-45.7382 390.4863,-36.3843 380.7636,-40.5938 385.5108,-45.7382"/>
</g>
<!-- 12&#45;&gt;13 -->
<g id="edge30" class="edge">
<title>12&#45;&gt;13</title>
<path fill="none" stroke="#c0c0c0" stroke-width="2" d="M550.5603,-359.8314C540.6795,-351.0485 528.6676,-340.3712 517.955,-330.8489"/>
<polygon fill="#c0c0c0" stroke="#c0c0c0" stroke-width="2" points="520.2326,-328.1906 510.4332,-324.1628 515.582,-333.4224 520.2326,-328.1906"/>
</g>
<!-- 12&#45;&gt;14 -->
<g id="edge34" class="edge">
<title>12&#45;&gt;14</title>
<path fill="none" stroke="#c0c0c0" stroke-width="2" d="M591.6921,-359.8314C601.6948,-351.0485 613.855,-340.3712 624.6999,-330.8489"/>
<polygon fill="#c0c0c0" stroke="#c0c0c0" stroke-width="2" points="627.1094,-333.3909 632.3146,-324.1628 622.4908,-328.1308 627.1094,-333.3909"/>
</g>
<!-- 13&#45;&gt;0 -->
<g id="edge9" class="edge">
<title>13&#45;&gt;0</title>
<path fill="none" stroke="#c0c0c0" stroke-width="2" d="M451.8865,-299.1403C425.3395,-292.161 391.7933,-278.4381 375,-252 333.5035,-186.6711 373.473,-91.0589 397.6167,-44.9017"/>
<polygon fill="#c0c0c0" stroke="#c0c0c0" stroke-width="2" points="400.7001,-46.5579 402.3496,-36.0922 394.5337,-43.2449 400.7001,-46.5579"/>
</g>
<!-- 15 -->
<g id="node16" class="node">
<title>15</title>
<path fill="none" stroke="#56d87b" stroke-width="2" d="M630,-252C630,-252 560,-252 560,-252 554,-252 548,-246 548,-240 548,-240 548,-228 548,-228 548,-222 554,-216 560,-216 560,-216 630,-216 630,-216 636,-216 642,-222 642,-228 642,-228 642,-240 642,-240 642,-246 636,-252 630,-252"/>
<text text-anchor="middle" x="595" y="-231.5" font-family="sans" font-size="10.00" fill="#000000">collapse_scores</text>
</g>
<!-- 13&#45;&gt;15 -->
<g id="edge35" class="edge">
<title>13&#45;&gt;15</title>
<path fill="none" stroke="#c0c0c0" stroke-width="2" d="M516.4959,-287.8314C529.6774,-278.7927 545.7847,-267.7476 559.9711,-258.0198"/>
<polygon fill="#c0c0c0" stroke="#c0c0c0" stroke-width="2" points="562.2446,-260.7047 568.5125,-252.1628 558.2859,-254.9316 562.2446,-260.7047"/>
</g>
<!-- 14&#45;&gt;0 -->
<g id="edge10" class="edge">
<title>14&#45;&gt;0</title>
<path fill="none" stroke="#c0c0c0" stroke-width="2" d="M680.167,-287.871C720.6023,-258.5147 788.825,-198.3684 759,-144 730.3587,-91.7894 700.9071,-95.054 646,-72 588.9894,-48.0628 519.4679,-33.7023 471.2791,-25.8765"/>
<polygon fill="#c0c0c0" stroke="#c0c0c0" stroke-width="2" points="471.7559,-22.4085 461.3321,-24.3046 470.6632,-29.3227 471.7559,-22.4085"/>
</g>
<!-- 14&#45;&gt;15 -->
<g id="edge36" class="edge">
<title>14&#45;&gt;15</title>
<path fill="none" stroke="#c0c0c0" stroke-width="2" d="M638.3642,-287.8314C631.6839,-279.5386 623.6432,-269.557 616.3096,-260.4533"/>
<polygon fill="#c0c0c0" stroke="#c0c0c0" stroke-width="2" points="618.8319,-258.0052 609.8329,-252.4133 613.3806,-262.3965 618.8319,-258.0052"/>
</g>
<!-- 15&#45;&gt;0 -->
<g id="edge11" class="edge">
<title>15&#45;&gt;0</title>
<path fill="none" stroke="#c0c0c0" stroke-width="2" d="M596.1109,-215.9112C598.0321,-178.4082 600.2632,-93.8535 583,-72 568.8422,-54.0777 514.5571,-38.8804 471.0888,-29.2183"/>
<polygon fill="#c0c0c0" stroke="#c0c0c0" stroke-width="2" points="471.6667,-25.7624 461.1519,-27.0626 470.1825,-32.6032 471.6667,-25.7624"/>
</g>
<!-- 15&#45;&gt;16 -->
<g id="edge37" class="edge">
<title>15&#45;&gt;16</title>
<path fill="none" stroke="#c0c0c0" stroke-width="2" d="M562.9525,-215.8314C546.558,-206.5368 526.4214,-195.1208 508.9171,-185.1971"/>
<polygon fill="#c0c0c0" stroke="#c0c0c0" stroke-width="2" points="510.4626,-182.05 500.0372,-180.1628 507.0103,-188.1395 510.4626,-182.05"/>
</g>
<!-- 17 -->
<g id="node18" class="node">
<title>17</title>
<path fill="none" stroke="#59d856" stroke-width="2" d="M561.5,-108C561.5,-108 472.5,-108 472.5,-108 466.5,-108 460.5,-102 460.5,-96 460.5,-96 460.5,-84 460.5,-84 460.5,-78 466.5,-72 472.5,-72 472.5,-72 561.5,-72 561.5,-72 567.5,-72 573.5,-78 573.5,-84 573.5,-84 573.5,-96 573.5,-96 573.5,-102 567.5,-108 561.5,-108"/>
<text text-anchor="middle" x="517" y="-87.5" font-family="sans" font-size="10.00" fill="#000000">interactive_jsd_plot</text>
</g>
<!-- 15&#45;&gt;17 -->
<g id="edge39" class="edge">
<title>15&#45;&gt;17</title>
<path fill="none" stroke="#c0c0c0" stroke-width="2" d="M585.1212,-215.7623C571.6414,-190.8764 547.3779,-146.0822 531.7423,-117.2165"/>
<polygon fill="#c0c0c0" stroke="#c0c0c0" stroke-width="2" points="534.639,-115.2155 526.7985,-108.0896 528.4839,-118.5496 534.639,-115.2155"/>
</g>
<!-- 18 -->
<g id="node19" class="node">
<title>18</title>
<path fill="none" stroke="#d8b456" stroke-width="2" d="M738,-180C738,-180 620,-180 620,-180 614,-180 608,-174 608,-168 608,-168 608,-156 608,-156 608,-150 614,-144 620,-144 620,-144 738,-144 738,-144 744,-144 750,-150 750,-156 750,-156 750,-168 750,-168 750,-174 744,-180 738,-180"/>
<text text-anchor="middle" x="679" y="-159.5" font-family="sans" font-size="10.00" fill="#000000">interactive_heatmap_plot</text>
</g>
<!-- 15&#45;&gt;18 -->
<g id="edge41" class="edge">
<title>15&#45;&gt;18</title>
<path fill="none" stroke="#c0c0c0" stroke-width="2" d="M616.1967,-215.8314C626.4434,-207.0485 638.9003,-196.3712 650.0097,-186.8489"/>
<polygon fill="#c0c0c0" stroke="#c0c0c0" stroke-width="2" points="652.4952,-189.3282 657.81,-180.1628 647.9397,-184.0134 652.4952,-189.3282"/>
</g>
<!-- 16&#45;&gt;0 -->
<g id="edge12" class="edge">
<title>16&#45;&gt;0</title>
<path fill="none" stroke="#c0c0c0" stroke-width="2" d="M461.0342,-143.7623C451.5705,-118.9846 434.5689,-74.4714 423.5393,-45.5939"/>
<polygon fill="#c0c0c0" stroke="#c0c0c0" stroke-width="2" points="426.747,-44.1826 419.9092,-36.0896 420.2077,-46.6803 426.747,-44.1826"/>
</g>
<!-- 16&#45;&gt;17 -->
<g id="edge40" class="edge">
<title>16&#45;&gt;17</title>
<path fill="none" stroke="#c0c0c0" stroke-width="2" d="M480.3648,-143.8314C485.9509,-135.6232 492.663,-125.7606 498.8072,-116.7323"/>
<polygon fill="#c0c0c0" stroke="#c0c0c0" stroke-width="2" points="501.736,-118.6496 504.4687,-108.4133 495.949,-114.7112 501.736,-118.6496"/>
</g>
<!-- 17&#45;&gt;0 -->
<g id="edge13" class="edge">
<title>17&#45;&gt;0</title>
<path fill="none" stroke="#c0c0c0" stroke-width="2" d="M490.7564,-71.8314C477.7005,-62.7927 461.7465,-51.7476 447.6953,-42.0198"/>
<polygon fill="#c0c0c0" stroke="#c0c0c0" stroke-width="2" points="449.4494,-38.9773 439.2352,-36.1628 445.4649,-44.7326 449.4494,-38.9773"/>
</g>
<!-- 18&#45;&gt;0 -->
<g id="edge14" class="edge">
<title>18&#45;&gt;0</title>
<path fill="none" stroke="#c0c0c0" stroke-width="2" d="M671.0949,-143.9144C661.1875,-123.38 642.2628,-90.3567 616,-72 573.1078,-42.0199 514.5187,-28.6829 471.3065,-22.7505"/>
<polygon fill="#c0c0c0" stroke="#c0c0c0" stroke-width="2" points="471.5894,-19.2583 461.2262,-21.4618 470.7016,-26.2018 471.5894,-19.2583"/>
</g>
</g>
</svg>
