<?xml version="1.0" encoding="UTF-8" standalone="no"?>
<!DOCTYPE svg PUBLIC "-//W3C//DTD SVG 1.1//EN"
 "http://www.w3.org/Graphics/SVG/1.1/DTD/svg11.dtd">
<!-- Generated by graphviz version 2.50.0 (20220708.1628)
 -->
<!-- Title: snakemake_dag Pages: 1 -->
<svg width="820pt" height="548pt"
 viewBox="0.00 0.00 819.50 548.00" xmlns="http://www.w3.org/2000/svg" xmlns:xlink="http://www.w3.org/1999/xlink">
<g id="graph0" class="graph" transform="scale(1 1) rotate(0) translate(4 544)">
<title>snakemake_dag</title>
<polygon fill="white" stroke="transparent" points="-4,4 -4,-544 815.5,-544 815.5,4 -4,4"/>
<!-- 0 -->
<g id="node1" class="node">
<title>0</title>
<path fill="none" stroke="#59d856" stroke-width="2" d="M411,-36C411,-36 345,-36 345,-36 339,-36 333,-30 333,-24 333,-24 333,-12 333,-12 333,-6 339,0 345,0 345,0 411,0 411,0 417,0 423,-6 423,-12 423,-12 423,-24 423,-24 423,-30 417,-36 411,-36"/>
<text text-anchor="middle" x="378" y="-15.5" font-family="sans" font-size="10.00">make_summary</text>
</g>
<!-- 1 -->
<g id="node2" class="node">
<title>1</title>
<path fill="none" stroke="#567bd8" stroke-width="2" d="M52,-108C52,-108 12,-108 12,-108 6,-108 0,-102 0,-96 0,-96 0,-84 0,-84 0,-78 6,-72 12,-72 12,-72 52,-72 52,-72 58,-72 64,-78 64,-84 64,-84 64,-96 64,-96 64,-102 58,-108 52,-108"/>
<text text-anchor="middle" x="32" y="-87.5" font-family="sans" font-size="10.00">make_dag</text>
</g>
<!-- 1&#45;&gt;0 -->
<g id="edge1" class="edge">
<title>1&#45;&gt;0</title>
<path fill="none" stroke="grey" stroke-width="2" d="M64.44,-74.79C67.31,-73.77 70.19,-72.82 73,-72 158.38,-47.21 260.78,-32.33 322.55,-24.9"/>
<polygon fill="grey" stroke="grey" stroke-width="2" points="323.33,-28.33 332.85,-23.68 322.51,-21.38 323.33,-28.33"/>
</g>
<!-- 2 -->
<g id="node3" class="node">
<title>2</title>
<path fill="none" stroke="#56d8d8" stroke-width="2" d="M176,-108C176,-108 94,-108 94,-108 88,-108 82,-102 82,-96 82,-96 82,-84 82,-84 82,-78 88,-72 94,-72 94,-72 176,-72 176,-72 182,-72 188,-78 188,-84 188,-84 188,-96 188,-96 188,-102 182,-108 176,-108"/>
<text text-anchor="middle" x="135" y="-87.5" font-family="sans" font-size="10.00">get_mut_bind_expr</text>
</g>
<!-- 2&#45;&gt;0 -->
<g id="edge2" class="edge">
<title>2&#45;&gt;0</title>
<path fill="none" stroke="grey" stroke-width="2" d="M188.03,-73.72C228.02,-62.2 282.71,-46.45 323.14,-34.8"/>
<polygon fill="grey" stroke="grey" stroke-width="2" points="324.2,-38.14 332.84,-32.01 322.26,-31.41 324.2,-38.14"/>
</g>
<!-- 3 -->
<g id="node4" class="node">
<title>3</title>
<path fill="none" stroke="#56d87b" stroke-width="2" d="M451.5,-252C451.5,-252 338.5,-252 338.5,-252 332.5,-252 326.5,-246 326.5,-240 326.5,-240 326.5,-228 326.5,-228 326.5,-222 332.5,-216 338.5,-216 338.5,-216 451.5,-216 451.5,-216 457.5,-216 463.5,-222 463.5,-228 463.5,-228 463.5,-240 463.5,-240 463.5,-246 457.5,-252 451.5,-252"/>
<text text-anchor="middle" x="395" y="-231.5" font-family="sans" font-size="10.00">get_mut_antibody_escape</text>
</g>
<!-- 3&#45;&gt;0 -->
<g id="edge3" class="edge">
<title>3&#45;&gt;0</title>
<path fill="none" stroke="grey" stroke-width="2" d="M374.18,-215.62C364.54,-206.2 354.11,-193.7 349,-180 332.07,-134.67 350.52,-78.36 364.76,-45.77"/>
<polygon fill="grey" stroke="grey" stroke-width="2" points="368.04,-47.01 368.99,-36.46 361.67,-44.11 368.04,-47.01"/>
</g>
<!-- 15 -->
<g id="node16" class="node">
<title>15</title>
<path fill="none" stroke="#97d856" stroke-width="2" d="M430,-180C430,-180 370,-180 370,-180 364,-180 358,-174 358,-168 358,-168 358,-156 358,-156 358,-150 364,-144 370,-144 370,-144 430,-144 430,-144 436,-144 442,-150 442,-156 442,-156 442,-168 442,-168 442,-174 436,-180 430,-180"/>
<text text-anchor="middle" x="400" y="-159.5" font-family="sans" font-size="10.00">epistatic_shifts</text>
</g>
<!-- 3&#45;&gt;15 -->
<g id="edge36" class="edge">
<title>3&#45;&gt;15</title>
<path fill="none" stroke="grey" stroke-width="2" d="M396.24,-215.7C396.79,-207.98 397.45,-198.71 398.06,-190.11"/>
<polygon fill="grey" stroke="grey" stroke-width="2" points="401.56,-190.33 398.78,-180.1 394.57,-189.83 401.56,-190.33"/>
</g>
<!-- 4 -->
<g id="node5" class="node">
<title>4</title>
<path fill="none" stroke="#d89556" stroke-width="2" d="M554,-468C554,-468 472,-468 472,-468 466,-468 460,-462 460,-456 460,-456 460,-444 460,-444 460,-438 466,-432 472,-432 472,-432 554,-432 554,-432 560,-432 566,-438 566,-444 566,-444 566,-456 566,-456 566,-462 560,-468 554,-468"/>
<text text-anchor="middle" x="513" y="-447.5" font-family="sans" font-size="10.00">process_ccs_XBB15</text>
</g>
<!-- 4&#45;&gt;0 -->
<g id="edge4" class="edge">
<title>4&#45;&gt;0</title>
<path fill="none" stroke="grey" stroke-width="2" d="M555.21,-431.98C619.86,-404.56 736,-349.4 736,-307 736,-307 736,-307 736,-161 736,-102.82 691.78,-98.54 640,-72 574.04,-38.2 488.41,-25.94 433.32,-21.51"/>
<polygon fill="grey" stroke="grey" stroke-width="2" points="433.3,-18 423.07,-20.74 432.78,-24.98 433.3,-18"/>
</g>
<!-- 11 -->
<g id="node12" class="node">
<title>11</title>
<path fill="none" stroke="#b6d856" stroke-width="2" d="M538,-396C538,-396 478,-396 478,-396 472,-396 466,-390 466,-384 466,-384 466,-372 466,-372 466,-366 472,-360 478,-360 478,-360 538,-360 538,-360 544,-360 550,-366 550,-372 550,-372 550,-384 550,-384 550,-390 544,-396 538,-396"/>
<text text-anchor="middle" x="508" y="-375.5" font-family="sans" font-size="10.00">count_variants</text>
</g>
<!-- 4&#45;&gt;11 -->
<g id="edge24" class="edge">
<title>4&#45;&gt;11</title>
<path fill="none" stroke="grey" stroke-width="2" d="M511.76,-431.7C511.21,-423.98 510.55,-414.71 509.94,-406.11"/>
<polygon fill="grey" stroke="grey" stroke-width="2" points="513.43,-405.83 509.22,-396.1 506.44,-406.33 513.43,-405.83"/>
</g>
<!-- 12 -->
<g id="node13" class="node">
<title>12</title>
<path fill="none" stroke="#d6d856" stroke-width="2" d="M451,-324C451,-324 403,-324 403,-324 397,-324 391,-318 391,-312 391,-312 391,-300 391,-300 391,-294 397,-288 403,-288 403,-288 451,-288 451,-288 457,-288 463,-294 463,-300 463,-300 463,-312 463,-312 463,-318 457,-324 451,-324"/>
<text text-anchor="middle" x="427" y="-303.5" font-family="sans" font-size="10.00">fit_titrations</text>
</g>
<!-- 4&#45;&gt;12 -->
<g id="edge27" class="edge">
<title>4&#45;&gt;12</title>
<path fill="none" stroke="grey" stroke-width="2" d="M490.27,-431.95C478.93,-422.44 465.8,-409.76 457,-396 444.83,-376.96 437.04,-352.46 432.46,-333.98"/>
<polygon fill="grey" stroke="grey" stroke-width="2" points="435.85,-333.1 430.18,-324.15 429.03,-334.68 435.85,-333.1"/>
</g>
<!-- 13 -->
<g id="node14" class="node">
<title>13</title>
<path fill="none" stroke="#d85656" stroke-width="2" d="M632,-324C632,-324 546,-324 546,-324 540,-324 534,-318 534,-312 534,-312 534,-300 534,-300 534,-294 540,-288 546,-288 546,-288 632,-288 632,-288 638,-288 644,-294 644,-300 644,-300 644,-312 644,-312 644,-318 638,-324 632,-324"/>
<text text-anchor="middle" x="589" y="-303.5" font-family="sans" font-size="10.00">calculate_expression</text>
</g>
<!-- 4&#45;&gt;13 -->
<g id="edge31" class="edge">
<title>4&#45;&gt;13</title>
<path fill="none" stroke="grey" stroke-width="2" d="M531.09,-431.72C540.47,-421.96 551.49,-409.11 559,-396 570.16,-376.51 577.99,-352.23 582.85,-333.95"/>
<polygon fill="grey" stroke="grey" stroke-width="2" points="586.25,-334.78 585.31,-324.23 579.47,-333.07 586.25,-334.78"/>
</g>
<!-- 5 -->
<g id="node6" class="node">
<title>5</title>
<path fill="none" stroke="#56d89a" stroke-width="2" d="M232.5,-540C232.5,-540 89.5,-540 89.5,-540 83.5,-540 77.5,-534 77.5,-528 77.5,-528 77.5,-516 77.5,-516 77.5,-510 83.5,-504 89.5,-504 89.5,-504 232.5,-504 232.5,-504 238.5,-504 244.5,-510 244.5,-516 244.5,-516 244.5,-528 244.5,-528 244.5,-534 238.5,-540 232.5,-540"/>
<text text-anchor="middle" x="161" y="-525" font-family="sans" font-size="10.00">get_ccs</text>
<text text-anchor="middle" x="161" y="-514" font-family="sans" font-size="10.00">pacbioRun: pool1_BQ11_230520</text>
</g>
<!-- 5&#45;&gt;4 -->
<g id="edge14" class="edge">
<title>5&#45;&gt;4</title>
<path fill="none" stroke="grey" stroke-width="2" d="M244.62,-505.42C312.5,-492.7 402.7,-475.63 439,-468 442.56,-467.25 446.22,-466.47 449.91,-465.66"/>
<polygon fill="grey" stroke="grey" stroke-width="2" points="450.69,-469.07 459.7,-463.5 449.18,-462.24 450.69,-469.07"/>
</g>
<!-- 9 -->
<g id="node10" class="node">
<title>9</title>
<path fill="none" stroke="#56b9d8" stroke-width="2" d="M417.5,-468C417.5,-468 340.5,-468 340.5,-468 334.5,-468 328.5,-462 328.5,-456 328.5,-456 328.5,-444 328.5,-444 328.5,-438 334.5,-432 340.5,-432 340.5,-432 417.5,-432 417.5,-432 423.5,-432 429.5,-438 429.5,-444 429.5,-444 429.5,-456 429.5,-456 429.5,-462 423.5,-468 417.5,-468"/>
<text text-anchor="middle" x="379" y="-447.5" font-family="sans" font-size="10.00">process_ccs_BQ11</text>
</g>
<!-- 5&#45;&gt;9 -->
<g id="edge18" class="edge">
<title>5&#45;&gt;9</title>
<path fill="none" stroke="grey" stroke-width="2" d="M214.05,-503.97C245.57,-493.84 285.66,-480.97 318.43,-470.45"/>
<polygon fill="grey" stroke="grey" stroke-width="2" points="319.89,-473.66 328.34,-467.27 317.75,-466.99 319.89,-473.66"/>
</g>
<!-- 6 -->
<g id="node7" class="node">
<title>6</title>
<path fill="none" stroke="#56d89a" stroke-width="2" d="M417.5,-540C417.5,-540 274.5,-540 274.5,-540 268.5,-540 262.5,-534 262.5,-528 262.5,-528 262.5,-516 262.5,-516 262.5,-510 268.5,-504 274.5,-504 274.5,-504 417.5,-504 417.5,-504 423.5,-504 429.5,-510 429.5,-516 429.5,-516 429.5,-528 429.5,-528 429.5,-534 423.5,-540 417.5,-540"/>
<text text-anchor="middle" x="346" y="-525" font-family="sans" font-size="10.00">get_ccs</text>
<text text-anchor="middle" x="346" y="-514" font-family="sans" font-size="10.00">pacbioRun: pool2_BQ11_230520</text>
</g>
<!-- 6&#45;&gt;4 -->
<g id="edge15" class="edge">
<title>6&#45;&gt;4</title>
<path fill="none" stroke="grey" stroke-width="2" d="M386.85,-503.88C409.78,-494.26 438.58,-482.19 462.87,-472.01"/>
<polygon fill="grey" stroke="grey" stroke-width="2" points="464.41,-475.16 472.28,-468.07 461.7,-468.71 464.41,-475.16"/>
</g>
<!-- 6&#45;&gt;9 -->
<g id="edge19" class="edge">
<title>6&#45;&gt;9</title>
<path fill="none" stroke="grey" stroke-width="2" d="M354.16,-503.7C357.91,-495.73 362.45,-486.1 366.62,-477.26"/>
<polygon fill="grey" stroke="grey" stroke-width="2" points="369.84,-478.64 370.94,-468.1 363.51,-475.66 369.84,-478.64"/>
</g>
<!-- 7 -->
<g id="node8" class="node">
<title>7</title>
<path fill="none" stroke="#56d89a" stroke-width="2" d="M608.5,-540C608.5,-540 459.5,-540 459.5,-540 453.5,-540 447.5,-534 447.5,-528 447.5,-528 447.5,-516 447.5,-516 447.5,-510 453.5,-504 459.5,-504 459.5,-504 608.5,-504 608.5,-504 614.5,-504 620.5,-510 620.5,-516 620.5,-516 620.5,-528 620.5,-528 620.5,-534 614.5,-540 608.5,-540"/>
<text text-anchor="middle" x="534" y="-525" font-family="sans" font-size="10.00">get_ccs</text>
<text text-anchor="middle" x="534" y="-514" font-family="sans" font-size="10.00">pacbioRun: pool1_XBB15_230520</text>
</g>
<!-- 7&#45;&gt;4 -->
<g id="edge16" class="edge">
<title>7&#45;&gt;4</title>
<path fill="none" stroke="grey" stroke-width="2" d="M528.81,-503.7C526.47,-495.9 523.65,-486.51 521.05,-477.83"/>
<polygon fill="grey" stroke="grey" stroke-width="2" points="524.36,-476.68 518.13,-468.1 517.65,-478.69 524.36,-476.68"/>
</g>
<!-- 7&#45;&gt;9 -->
<g id="edge20" class="edge">
<title>7&#45;&gt;9</title>
<path fill="none" stroke="grey" stroke-width="2" d="M496.08,-503.88C474.99,-494.35 448.54,-482.41 426.13,-472.28"/>
<polygon fill="grey" stroke="grey" stroke-width="2" points="427.35,-468.99 416.79,-468.07 424.47,-475.37 427.35,-468.99"/>
</g>
<!-- 8 -->
<g id="node9" class="node">
<title>8</title>
<path fill="none" stroke="#56d89a" stroke-width="2" d="M799.5,-540C799.5,-540 650.5,-540 650.5,-540 644.5,-540 638.5,-534 638.5,-528 638.5,-528 638.5,-516 638.5,-516 638.5,-510 644.5,-504 650.5,-504 650.5,-504 799.5,-504 799.5,-504 805.5,-504 811.5,-510 811.5,-516 811.5,-516 811.5,-528 811.5,-528 811.5,-534 805.5,-540 799.5,-540"/>
<text text-anchor="middle" x="725" y="-525" font-family="sans" font-size="10.00">get_ccs</text>
<text text-anchor="middle" x="725" y="-514" font-family="sans" font-size="10.00">pacbioRun: pool2_XBB15_230520</text>
</g>
<!-- 8&#45;&gt;4 -->
<g id="edge17" class="edge">
<title>8&#45;&gt;4</title>
<path fill="none" stroke="grey" stroke-width="2" d="M673.41,-503.97C643.53,-494.1 605.74,-481.62 574.34,-471.25"/>
<polygon fill="grey" stroke="grey" stroke-width="2" points="575.41,-467.92 564.82,-468.11 573.22,-474.57 575.41,-467.92"/>
</g>
<!-- 8&#45;&gt;9 -->
<g id="edge21" class="edge">
<title>8&#45;&gt;9</title>
<path fill="none" stroke="grey" stroke-width="2" d="M638.43,-505.19C584.42,-495.1 513.53,-481.42 451,-468 447.33,-467.21 443.56,-466.38 439.76,-465.53"/>
<polygon fill="grey" stroke="grey" stroke-width="2" points="440.21,-462.04 429.68,-463.24 438.66,-468.87 440.21,-462.04"/>
</g>
<!-- 9&#45;&gt;0 -->
<g id="edge5" class="edge">
<title>9&#45;&gt;0</title>
<path fill="none" stroke="grey" stroke-width="2" d="M333.16,-431.98C284.95,-410.76 216,-369.49 216,-307 216,-307 216,-307 216,-161 216,-115.41 233.58,-103.01 267,-72 283.08,-57.08 304.12,-45.61 323.55,-37.21"/>
<polygon fill="grey" stroke="grey" stroke-width="2" points="325.03,-40.39 332.94,-33.33 322.36,-33.92 325.03,-40.39"/>
</g>
<!-- 9&#45;&gt;11 -->
<g id="edge23" class="edge">
<title>9&#45;&gt;11</title>
<path fill="none" stroke="grey" stroke-width="2" d="M410.56,-431.88C427.66,-422.6 448.98,-411.03 467.32,-401.08"/>
<polygon fill="grey" stroke="grey" stroke-width="2" points="469.2,-404.04 476.32,-396.19 465.86,-397.88 469.2,-404.04"/>
</g>
<!-- 9&#45;&gt;12 -->
<g id="edge26" class="edge">
<title>9&#45;&gt;12</title>
<path fill="none" stroke="grey" stroke-width="2" d="M377.52,-431.97C376.55,-413.57 376.84,-383.71 386,-360 389.9,-349.91 396.37,-340.15 403.04,-331.82"/>
<polygon fill="grey" stroke="grey" stroke-width="2" points="405.87,-333.89 409.68,-324.01 400.54,-329.36 405.87,-333.89"/>
</g>
<!-- 9&#45;&gt;13 -->
<g id="edge30" class="edge">
<title>9&#45;&gt;13</title>
<path fill="none" stroke="grey" stroke-width="2" d="M390.33,-431.75C404.05,-412.05 428.84,-379.96 457,-360 477.19,-345.7 501.79,-334.47 524.26,-326.1"/>
<polygon fill="grey" stroke="grey" stroke-width="2" points="525.52,-329.37 533.74,-322.69 523.15,-322.78 525.52,-329.37"/>
</g>
<!-- 10 -->
<g id="node11" class="node">
<title>10</title>
<path fill="none" stroke="#569ad8" stroke-width="2" d="M689.5,-468C689.5,-468 606.5,-468 606.5,-468 600.5,-468 594.5,-462 594.5,-456 594.5,-456 594.5,-444 594.5,-444 594.5,-438 600.5,-432 606.5,-432 606.5,-432 689.5,-432 689.5,-432 695.5,-432 701.5,-438 701.5,-444 701.5,-444 701.5,-456 701.5,-456 701.5,-462 695.5,-468 689.5,-468"/>
<text text-anchor="middle" x="648" y="-447.5" font-family="sans" font-size="10.00">get_BA2_bc_lookup</text>
</g>
<!-- 10&#45;&gt;0 -->
<g id="edge6" class="edge">
<title>10&#45;&gt;0</title>
<path fill="none" stroke="grey" stroke-width="2" d="M679.15,-431.88C716.46,-408.82 774,-364.02 774,-307 774,-307 774,-307 774,-161 774,-106.3 737.3,-97.67 689,-72 645.61,-48.93 510.24,-32.16 433.16,-24.2"/>
<polygon fill="grey" stroke="grey" stroke-width="2" points="433.45,-20.71 423.15,-23.18 432.74,-27.67 433.45,-20.71"/>
</g>
<!-- 10&#45;&gt;11 -->
<g id="edge22" class="edge">
<title>10&#45;&gt;11</title>
<path fill="none" stroke="grey" stroke-width="2" d="M613.75,-431.88C594.94,-422.47 571.42,-410.71 551.33,-400.67"/>
<polygon fill="grey" stroke="grey" stroke-width="2" points="552.89,-397.53 542.38,-396.19 549.76,-403.79 552.89,-397.53"/>
</g>
<!-- 10&#45;&gt;12 -->
<g id="edge25" class="edge">
<title>10&#45;&gt;12</title>
<path fill="none" stroke="grey" stroke-width="2" d="M634.54,-431.85C618.39,-412.24 589.63,-380.23 559,-360 532.5,-342.5 499.33,-329.21 472.86,-320.32"/>
<polygon fill="grey" stroke="grey" stroke-width="2" points="473.67,-316.9 463.08,-317.12 471.5,-323.55 473.67,-316.9"/>
</g>
<!-- 10&#45;&gt;13 -->
<g id="edge29" class="edge">
<title>10&#45;&gt;13</title>
<path fill="none" stroke="grey" stroke-width="2" d="M646.86,-431.89C645.12,-413.42 640.75,-383.51 630,-360 625.5,-350.16 618.86,-340.48 612.23,-332.13"/>
<polygon fill="grey" stroke="grey" stroke-width="2" points="614.77,-329.72 605.67,-324.28 609.39,-334.2 614.77,-329.72"/>
</g>
<!-- 11&#45;&gt;0 -->
<g id="edge7" class="edge">
<title>11&#45;&gt;0</title>
<path fill="none" stroke="grey" stroke-width="2" d="M465.77,-372.65C393.55,-362.63 254,-330.86 254,-235 254,-235 254,-235 254,-161 254,-108.43 302.82,-65.93 339.19,-41.55"/>
<polygon fill="grey" stroke="grey" stroke-width="2" points="341.19,-44.43 347.67,-36.04 337.37,-38.56 341.19,-44.43"/>
</g>
<!-- 11&#45;&gt;12 -->
<g id="edge28" class="edge">
<title>11&#45;&gt;12</title>
<path fill="none" stroke="grey" stroke-width="2" d="M487.98,-359.7C477.87,-350.97 465.46,-340.24 454.48,-330.75"/>
<polygon fill="grey" stroke="grey" stroke-width="2" points="456.65,-327.99 446.79,-324.1 452.07,-333.29 456.65,-327.99"/>
</g>
<!-- 11&#45;&gt;13 -->
<g id="edge32" class="edge">
<title>11&#45;&gt;13</title>
<path fill="none" stroke="grey" stroke-width="2" d="M528.02,-359.7C538.13,-350.97 550.54,-340.24 561.52,-330.75"/>
<polygon fill="grey" stroke="grey" stroke-width="2" points="563.93,-333.29 569.21,-324.1 559.35,-327.99 563.93,-333.29"/>
</g>
<!-- 12&#45;&gt;0 -->
<g id="edge8" class="edge">
<title>12&#45;&gt;0</title>
<path fill="none" stroke="grey" stroke-width="2" d="M390.83,-297.9C365.65,-290.87 333.85,-277.33 318,-252 297.92,-219.91 292.86,-191.18 341,-72 344.87,-62.42 350.74,-52.88 356.67,-44.59"/>
<polygon fill="grey" stroke="grey" stroke-width="2" points="359.58,-46.55 362.79,-36.45 353.98,-42.34 359.58,-46.55"/>
</g>
<!-- 14 -->
<g id="node15" class="node">
<title>14</title>
<path fill="none" stroke="#56d8b9" stroke-width="2" d="M576.5,-252C576.5,-252 513.5,-252 513.5,-252 507.5,-252 501.5,-246 501.5,-240 501.5,-240 501.5,-228 501.5,-228 501.5,-222 507.5,-216 513.5,-216 513.5,-216 576.5,-216 576.5,-216 582.5,-216 588.5,-222 588.5,-228 588.5,-228 588.5,-240 588.5,-240 588.5,-246 582.5,-252 576.5,-252"/>
<text text-anchor="middle" x="545" y="-231.5" font-family="sans" font-size="10.00">collapse_scores</text>
</g>
<!-- 12&#45;&gt;14 -->
<g id="edge33" class="edge">
<title>12&#45;&gt;14</title>
<path fill="none" stroke="grey" stroke-width="2" d="M455.87,-287.88C471.29,-278.72 490.48,-267.34 507.1,-257.48"/>
<polygon fill="grey" stroke="grey" stroke-width="2" points="509.21,-260.3 516.02,-252.19 505.64,-254.28 509.21,-260.3"/>
</g>
<!-- 13&#45;&gt;0 -->
<g id="edge9" class="edge">
<title>13&#45;&gt;0</title>
<path fill="none" stroke="grey" stroke-width="2" d="M601.91,-287.96C618.48,-264.93 646.34,-221.9 657,-180 670.09,-128.56 650.07,-101.6 606,-72 554.19,-37.2 482.49,-25.08 433.41,-20.95"/>
<polygon fill="grey" stroke="grey" stroke-width="2" points="433.53,-17.45 423.29,-20.19 433,-24.43 433.53,-17.45"/>
</g>
<!-- 13&#45;&gt;14 -->
<g id="edge34" class="edge">
<title>13&#45;&gt;14</title>
<path fill="none" stroke="grey" stroke-width="2" d="M578.12,-287.7C573.01,-279.56 566.8,-269.69 561.16,-260.7"/>
<polygon fill="grey" stroke="grey" stroke-width="2" points="564.04,-258.71 555.75,-252.1 558.11,-262.43 564.04,-258.71"/>
</g>
<!-- 14&#45;&gt;0 -->
<g id="edge10" class="edge">
<title>14&#45;&gt;0</title>
<path fill="none" stroke="grey" stroke-width="2" d="M588.66,-220.27C608.29,-212.12 629.58,-199.35 641,-180 649.13,-166.22 648.08,-158.35 641,-144 602.76,-66.55 498.41,-36.8 433.23,-25.58"/>
<polygon fill="grey" stroke="grey" stroke-width="2" points="433.56,-22.09 423.12,-23.93 432.43,-29 433.56,-22.09"/>
</g>
<!-- 14&#45;&gt;15 -->
<g id="edge35" class="edge">
<title>14&#45;&gt;15</title>
<path fill="none" stroke="grey" stroke-width="2" d="M509.53,-215.88C489.88,-206.39 465.28,-194.51 444.37,-184.42"/>
<polygon fill="grey" stroke="grey" stroke-width="2" points="445.88,-181.26 435.36,-180.07 442.84,-187.57 445.88,-181.26"/>
</g>
<!-- 16 -->
<g id="node17" class="node">
<title>16</title>
<path fill="none" stroke="#78d856" stroke-width="2" d="M499.5,-108C499.5,-108 418.5,-108 418.5,-108 412.5,-108 406.5,-102 406.5,-96 406.5,-96 406.5,-84 406.5,-84 406.5,-78 412.5,-72 418.5,-72 418.5,-72 499.5,-72 499.5,-72 505.5,-72 511.5,-78 511.5,-84 511.5,-84 511.5,-96 511.5,-96 511.5,-102 505.5,-108 499.5,-108"/>
<text text-anchor="middle" x="459" y="-87.5" font-family="sans" font-size="10.00">interactive_jsd_plot</text>
</g>
<!-- 14&#45;&gt;16 -->
<g id="edge37" class="edge">
<title>14&#45;&gt;16</title>
<path fill="none" stroke="grey" stroke-width="2" d="M522.27,-215.95C510.93,-206.44 497.8,-193.76 489,-180 476.83,-160.96 469.04,-136.46 464.46,-117.98"/>
<polygon fill="grey" stroke="grey" stroke-width="2" points="467.85,-117.1 462.18,-108.15 461.03,-118.68 467.85,-117.1"/>
</g>
<!-- 17 -->
<g id="node18" class="node">
<title>17</title>
<path fill="none" stroke="#d87556" stroke-width="2" d="M620,-180C620,-180 510,-180 510,-180 504,-180 498,-174 498,-168 498,-168 498,-156 498,-156 498,-150 504,-144 510,-144 510,-144 620,-144 620,-144 626,-144 632,-150 632,-156 632,-156 632,-168 632,-168 632,-174 626,-180 620,-180"/>
<text text-anchor="middle" x="565" y="-159.5" font-family="sans" font-size="10.00">interactive_heatmap_plot</text>
</g>
<!-- 14&#45;&gt;17 -->
<g id="edge39" class="edge">
<title>14&#45;&gt;17</title>
<path fill="none" stroke="grey" stroke-width="2" d="M549.94,-215.7C552.17,-207.9 554.85,-198.51 557.33,-189.83"/>
<polygon fill="grey" stroke="grey" stroke-width="2" points="560.73,-190.68 560.11,-180.1 554,-188.76 560.73,-190.68"/>
</g>
<!-- 15&#45;&gt;0 -->
<g id="edge11" class="edge">
<title>15&#45;&gt;0</title>
<path fill="none" stroke="grey" stroke-width="2" d="M397.35,-143.87C393.6,-119.67 386.71,-75.21 382.24,-46.39"/>
<polygon fill="grey" stroke="grey" stroke-width="2" points="385.65,-45.54 380.66,-36.19 378.74,-46.61 385.65,-45.54"/>
</g>
<!-- 15&#45;&gt;16 -->
<g id="edge38" class="edge">
<title>15&#45;&gt;16</title>
<path fill="none" stroke="grey" stroke-width="2" d="M414.58,-143.7C421.66,-135.3 430.28,-125.07 438.05,-115.86"/>
<polygon fill="grey" stroke="grey" stroke-width="2" points="440.81,-118.01 444.58,-108.1 435.46,-113.49 440.81,-118.01"/>
</g>
<!-- 16&#45;&gt;0 -->
<g id="edge12" class="edge">
<title>16&#45;&gt;0</title>
<path fill="none" stroke="grey" stroke-width="2" d="M438.98,-71.7C428.87,-62.97 416.46,-52.24 405.48,-42.75"/>
<polygon fill="grey" stroke="grey" stroke-width="2" points="407.65,-39.99 397.79,-36.1 403.07,-45.29 407.65,-39.99"/>
</g>
<!-- 17&#45;&gt;0 -->
<g id="edge13" class="edge">
<title>17&#45;&gt;0</title>
<path fill="none" stroke="grey" stroke-width="2" d="M560.71,-143.91C554.89,-124.04 542.64,-91.5 521,-72 496.54,-49.97 462.11,-36.83 433.16,-29.15"/>
<polygon fill="grey" stroke="grey" stroke-width="2" points="433.72,-25.69 423.17,-26.66 432.02,-32.48 433.72,-25.69"/>
</g>
</g>
</svg>
