<?xml version="1.0" encoding="UTF-8" standalone="no"?>
<!DOCTYPE svg PUBLIC "-//W3C//DTD SVG 1.1//EN"
 "http://www.w3.org/Graphics/SVG/1.1/DTD/svg11.dtd">
<!-- Generated by graphviz version 2.40.1 (0)
 -->
<!-- Title: snakemake_dag Pages: 1 -->
<svg width="945pt" height="548pt"
 viewBox="0.00 0.00 944.50 548.00" xmlns="http://www.w3.org/2000/svg" xmlns:xlink="http://www.w3.org/1999/xlink">
<g id="graph0" class="graph" transform="scale(1 1) rotate(0) translate(4 544)">
<title>snakemake_dag</title>
<polygon fill="#ffffff" stroke="transparent" points="-4,4 -4,-544 940.5,-544 940.5,4 -4,4"/>
<!-- 0 -->
<g id="node1" class="node">
<title>0</title>
<path fill="none" stroke="#5692d8" stroke-width="2" d="M471.5,-36C471.5,-36 399.5,-36 399.5,-36 393.5,-36 387.5,-30 387.5,-24 387.5,-24 387.5,-12 387.5,-12 387.5,-6 393.5,0 399.5,0 399.5,0 471.5,0 471.5,0 477.5,0 483.5,-6 483.5,-12 483.5,-12 483.5,-24 483.5,-24 483.5,-30 477.5,-36 471.5,-36"/>
<text text-anchor="middle" x="435.5" y="-15.5" font-family="sans" font-size="10.00" fill="#000000">make_summary</text>
</g>
<!-- 1 -->
<g id="node2" class="node">
<title>1</title>
<path fill="none" stroke="#c6d856" stroke-width="2" d="M130.5,-180C130.5,-180 86.5,-180 86.5,-180 80.5,-180 74.5,-174 74.5,-168 74.5,-168 74.5,-156 74.5,-156 74.5,-150 80.5,-144 86.5,-144 86.5,-144 130.5,-144 130.5,-144 136.5,-144 142.5,-150 142.5,-156 142.5,-156 142.5,-168 142.5,-168 142.5,-174 136.5,-180 130.5,-180"/>
<text text-anchor="middle" x="108.5" y="-159.5" font-family="sans" font-size="10.00" fill="#000000">make_dag</text>
</g>
<!-- 1&#45;&gt;0 -->
<g id="edge1" class="edge">
<title>1&#45;&gt;0</title>
<path fill="none" stroke="#c0c0c0" stroke-width="2" d="M96.1129,-143.9498C84.1453,-124.0636 70.1707,-92.2257 87.5,-72 106.0722,-50.3237 282.7378,-31.5363 376.9586,-22.9581"/>
<polygon fill="#c0c0c0" stroke="#c0c0c0" stroke-width="2" points="377.5486,-26.4192 387.1946,-22.0368 376.9211,-19.4474 377.5486,-26.4192"/>
</g>
<!-- 2 -->
<g id="node3" class="node">
<title>2</title>
<path fill="none" stroke="#d87556" stroke-width="2" d="M186,-108C186,-108 109,-108 109,-108 103,-108 97,-102 97,-96 97,-96 97,-84 97,-84 97,-78 103,-72 109,-72 109,-72 186,-72 186,-72 192,-72 198,-78 198,-84 198,-84 198,-96 198,-96 198,-102 192,-108 186,-108"/>
<text text-anchor="middle" x="147.5" y="-87.5" font-family="sans" font-size="10.00" fill="#000000">save_pinned_env</text>
</g>
<!-- 1&#45;&gt;2 -->
<g id="edge17" class="edge">
<title>1&#45;&gt;2</title>
<path fill="none" stroke="#c0c0c0" stroke-width="2" d="M118.3413,-143.8314C122.6957,-135.7925 127.9098,-126.1666 132.7169,-117.2918"/>
<polygon fill="#c0c0c0" stroke="#c0c0c0" stroke-width="2" points="135.8408,-118.8732 137.5261,-108.4133 129.6857,-115.5392 135.8408,-118.8732"/>
</g>
<!-- 2&#45;&gt;0 -->
<g id="edge2" class="edge">
<title>2&#45;&gt;0</title>
<path fill="none" stroke="#c0c0c0" stroke-width="2" d="M198.1992,-75.7885C203.0273,-74.4869 207.853,-73.2057 212.5,-72 268.2411,-57.5372 332.1416,-42.1884 377.2102,-31.5665"/>
<polygon fill="#c0c0c0" stroke="#c0c0c0" stroke-width="2" points="378.168,-34.9368 387.101,-29.24 376.5652,-28.1228 378.168,-34.9368"/>
</g>
<!-- 3 -->
<g id="node4" class="node">
<title>3</title>
<path fill="none" stroke="#56d892" stroke-width="2" d="M492.5,-324C492.5,-324 406.5,-324 406.5,-324 400.5,-324 394.5,-318 394.5,-312 394.5,-312 394.5,-300 394.5,-300 394.5,-294 400.5,-288 406.5,-288 406.5,-288 492.5,-288 492.5,-288 498.5,-288 504.5,-294 504.5,-300 504.5,-300 504.5,-312 504.5,-312 504.5,-318 498.5,-324 492.5,-324"/>
<text text-anchor="middle" x="449.5" y="-303.5" font-family="sans" font-size="10.00" fill="#000000">get_mut_bind_expr</text>
</g>
<!-- 3&#45;&gt;0 -->
<g id="edge3" class="edge">
<title>3&#45;&gt;0</title>
<path fill="none" stroke="#c0c0c0" stroke-width="2" d="M399.9713,-287.9463C384.1746,-279.5649 368.4778,-267.8565 359.5,-252 337.2035,-212.6202 343.9716,-167.4933 390.5,-72 395.3609,-62.0236 402.4467,-52.321 409.5633,-43.9565"/>
<polygon fill="#c0c0c0" stroke="#c0c0c0" stroke-width="2" points="412.2765,-46.1728 416.3243,-36.3817 407.0542,-41.5116 412.2765,-46.1728"/>
</g>
<!-- 16 -->
<g id="node17" class="node">
<title>16</title>
<path fill="none" stroke="#56d8c9" stroke-width="2" d="M726.5,-252C726.5,-252 656.5,-252 656.5,-252 650.5,-252 644.5,-246 644.5,-240 644.5,-240 644.5,-228 644.5,-228 644.5,-222 650.5,-216 656.5,-216 656.5,-216 726.5,-216 726.5,-216 732.5,-216 738.5,-222 738.5,-228 738.5,-228 738.5,-240 738.5,-240 738.5,-246 732.5,-252 726.5,-252"/>
<text text-anchor="middle" x="691.5" y="-231.5" font-family="sans" font-size="10.00" fill="#000000">collapse_scores</text>
</g>
<!-- 3&#45;&gt;16 -->
<g id="edge39" class="edge">
<title>3&#45;&gt;16</title>
<path fill="none" stroke="#c0c0c0" stroke-width="2" d="M504.558,-290.4597C539.3968,-280.5239 585.605,-267.1593 634.9078,-252.1447"/>
<polygon fill="#c0c0c0" stroke="#c0c0c0" stroke-width="2" points="635.9356,-255.4905 644.4767,-249.2216 633.8905,-248.7959 635.9356,-255.4905"/>
</g>
<!-- 4 -->
<g id="node5" class="node">
<title>4</title>
<path fill="none" stroke="#d88d56" stroke-width="2" d="M502,-252C502,-252 381,-252 381,-252 375,-252 369,-246 369,-240 369,-240 369,-228 369,-228 369,-222 375,-216 381,-216 381,-216 502,-216 502,-216 508,-216 514,-222 514,-228 514,-228 514,-240 514,-240 514,-246 508,-252 502,-252"/>
<text text-anchor="middle" x="441.5" y="-231.5" font-family="sans" font-size="10.00" fill="#000000">get_mut_antibody_escape</text>
</g>
<!-- 4&#45;&gt;0 -->
<g id="edge4" class="edge">
<title>4&#45;&gt;0</title>
<path fill="none" stroke="#c0c0c0" stroke-width="2" d="M423.7892,-215.6517C415.6058,-205.8946 406.7696,-193.2041 402.5,-180 387.7319,-134.3283 389.4993,-118.2059 402.5,-72 405.1661,-62.5243 410.0081,-53.067 415.1762,-44.7759"/>
<polygon fill="#c0c0c0" stroke="#c0c0c0" stroke-width="2" points="418.1966,-46.5549 420.8248,-36.2912 412.3697,-42.6757 418.1966,-46.5549"/>
</g>
<!-- 18 -->
<g id="node19" class="node">
<title>18</title>
<path fill="none" stroke="#afd856" stroke-width="2" d="M546,-180C546,-180 479,-180 479,-180 473,-180 467,-174 467,-168 467,-168 467,-156 467,-156 467,-150 473,-144 479,-144 479,-144 546,-144 546,-144 552,-144 558,-150 558,-156 558,-156 558,-168 558,-168 558,-174 552,-180 546,-180"/>
<text text-anchor="middle" x="512.5" y="-159.5" font-family="sans" font-size="10.00" fill="#000000">epistatic_shifts</text>
</g>
<!-- 4&#45;&gt;18 -->
<g id="edge42" class="edge">
<title>4&#45;&gt;18</title>
<path fill="none" stroke="#c0c0c0" stroke-width="2" d="M459.4163,-215.8314C467.8442,-207.2848 478.041,-196.9443 487.236,-187.6198"/>
<polygon fill="#c0c0c0" stroke="#c0c0c0" stroke-width="2" points="489.8131,-189.9912 494.3425,-180.4133 484.8289,-185.0761 489.8131,-189.9912"/>
</g>
<!-- 5 -->
<g id="node6" class="node">
<title>5</title>
<path fill="none" stroke="#56c9d8" stroke-width="2" d="M614.5,-252C614.5,-252 544.5,-252 544.5,-252 538.5,-252 532.5,-246 532.5,-240 532.5,-240 532.5,-228 532.5,-228 532.5,-222 538.5,-216 544.5,-216 544.5,-216 614.5,-216 614.5,-216 620.5,-216 626.5,-222 626.5,-228 626.5,-228 626.5,-240 626.5,-240 626.5,-246 620.5,-252 614.5,-252"/>
<text text-anchor="middle" x="579.5" y="-231.5" font-family="sans" font-size="10.00" fill="#000000">get_SARSr_DMS</text>
</g>
<!-- 5&#45;&gt;0 -->
<g id="edge5" class="edge">
<title>5&#45;&gt;0</title>
<path fill="none" stroke="#c0c0c0" stroke-width="2" d="M532.4048,-218.5357C502.3084,-207.6825 467.1721,-192.8684 457.5,-180 428.1362,-140.9325 428.3202,-81.1303 431.5881,-46.1601"/>
<polygon fill="#c0c0c0" stroke="#c0c0c0" stroke-width="2" points="435.0745,-46.4738 432.672,-36.155 428.1152,-45.7199 435.0745,-46.4738"/>
</g>
<!-- 5&#45;&gt;18 -->
<g id="edge43" class="edge">
<title>5&#45;&gt;18</title>
<path fill="none" stroke="#c0c0c0" stroke-width="2" d="M562.5931,-215.8314C554.7187,-207.3694 545.208,-197.1489 536.5987,-187.8971"/>
<polygon fill="#c0c0c0" stroke="#c0c0c0" stroke-width="2" points="539.0092,-185.3497 529.6346,-180.4133 533.8847,-190.1183 539.0092,-185.3497"/>
</g>
<!-- 6 -->
<g id="node7" class="node">
<title>6</title>
<path fill="none" stroke="#56d8a9" stroke-width="2" d="M483,-468C483,-468 394,-468 394,-468 388,-468 382,-462 382,-456 382,-456 382,-444 382,-444 382,-438 388,-432 394,-432 394,-432 483,-432 483,-432 489,-432 495,-438 495,-444 495,-444 495,-456 495,-456 495,-462 489,-468 483,-468"/>
<text text-anchor="middle" x="438.5" y="-447.5" font-family="sans" font-size="10.00" fill="#000000">process_ccs_XBB15</text>
</g>
<!-- 6&#45;&gt;0 -->
<g id="edge6" class="edge">
<title>6&#45;&gt;0</title>
<path fill="none" stroke="#c0c0c0" stroke-width="2" d="M495.3664,-433.7115C618.4397,-398.2621 898.5,-316.4473 898.5,-306 898.5,-306 898.5,-306 898.5,-162 898.5,-117.0781 889.2288,-97.8644 852.5,-72 795.9497,-32.1772 594.6419,-21.7217 493.8607,-18.9769"/>
<polygon fill="#c0c0c0" stroke="#c0c0c0" stroke-width="2" points="493.9291,-15.4776 483.8428,-18.7205 493.7499,-22.4753 493.9291,-15.4776"/>
</g>
<!-- 13 -->
<g id="node14" class="node">
<title>13</title>
<path fill="none" stroke="#56a9d8" stroke-width="2" d="M434,-396C434,-396 369,-396 369,-396 363,-396 357,-390 357,-384 357,-384 357,-372 357,-372 357,-366 363,-360 369,-360 369,-360 434,-360 434,-360 440,-360 446,-366 446,-372 446,-372 446,-384 446,-384 446,-390 440,-396 434,-396"/>
<text text-anchor="middle" x="401.5" y="-375.5" font-family="sans" font-size="10.00" fill="#000000">count_variants</text>
</g>
<!-- 6&#45;&gt;13 -->
<g id="edge28" class="edge">
<title>6&#45;&gt;13</title>
<path fill="none" stroke="#c0c0c0" stroke-width="2" d="M429.1633,-431.8314C425.0757,-423.8771 420.1896,-414.369 415.6691,-405.5723"/>
<polygon fill="#c0c0c0" stroke="#c0c0c0" stroke-width="2" points="418.6461,-403.7078 410.9624,-396.4133 412.4201,-406.9074 418.6461,-403.7078"/>
</g>
<!-- 14 -->
<g id="node15" class="node">
<title>14</title>
<path fill="none" stroke="#59d856" stroke-width="2" d="M318.5,-324C318.5,-324 266.5,-324 266.5,-324 260.5,-324 254.5,-318 254.5,-312 254.5,-312 254.5,-300 254.5,-300 254.5,-294 260.5,-288 266.5,-288 266.5,-288 318.5,-288 318.5,-288 324.5,-288 330.5,-294 330.5,-300 330.5,-300 330.5,-312 330.5,-312 330.5,-318 324.5,-324 318.5,-324"/>
<text text-anchor="middle" x="292.5" y="-303.5" font-family="sans" font-size="10.00" fill="#000000">fit_titrations</text>
</g>
<!-- 6&#45;&gt;14 -->
<g id="edge31" class="edge">
<title>6&#45;&gt;14</title>
<path fill="none" stroke="#c0c0c0" stroke-width="2" d="M398.8681,-431.9267C381.7356,-422.8135 362.2739,-410.5832 347.5,-396 329.2163,-377.9523 314.454,-352.6554 304.8448,-333.4753"/>
<polygon fill="#c0c0c0" stroke="#c0c0c0" stroke-width="2" points="307.931,-331.818 300.4235,-324.3422 301.6305,-334.8681 307.931,-331.818"/>
</g>
<!-- 15 -->
<g id="node16" class="node">
<title>15</title>
<path fill="none" stroke="#5673d8" stroke-width="2" d="M634,-324C634,-324 539,-324 539,-324 533,-324 527,-318 527,-312 527,-312 527,-300 527,-300 527,-294 533,-288 539,-288 539,-288 634,-288 634,-288 640,-288 646,-294 646,-300 646,-300 646,-312 646,-312 646,-318 640,-324 634,-324"/>
<text text-anchor="middle" x="586.5" y="-303.5" font-family="sans" font-size="10.00" fill="#000000">calculate_expression</text>
</g>
<!-- 6&#45;&gt;15 -->
<g id="edge35" class="edge">
<title>6&#45;&gt;15</title>
<path fill="none" stroke="#c0c0c0" stroke-width="2" d="M457.2443,-431.7623C483.3775,-406.3354 530.8713,-360.1253 560.4388,-331.3569"/>
<polygon fill="#c0c0c0" stroke="#c0c0c0" stroke-width="2" points="563.1814,-333.5717 567.9079,-324.0896 558.2999,-328.5546 563.1814,-333.5717"/>
</g>
<!-- 7 -->
<g id="node8" class="node">
<title>7</title>
<path fill="none" stroke="#d8ac56" stroke-width="2" d="M161,-540C161,-540 12,-540 12,-540 6,-540 0,-534 0,-528 0,-528 0,-516 0,-516 0,-510 6,-504 12,-504 12,-504 161,-504 161,-504 167,-504 173,-510 173,-516 173,-516 173,-528 173,-528 173,-534 167,-540 161,-540"/>
<text text-anchor="middle" x="86.5" y="-525" font-family="sans" font-size="10.00" fill="#000000">get_ccs</text>
<text text-anchor="middle" x="86.5" y="-514" font-family="sans" font-size="10.00" fill="#000000">pacbioRun: pool1_BQ11_230520</text>
</g>
<!-- 7&#45;&gt;6 -->
<g id="edge18" class="edge">
<title>7&#45;&gt;6</title>
<path fill="none" stroke="#c0c0c0" stroke-width="2" d="M173.2207,-505.5652C176.013,-505.0371 178.7784,-504.5143 181.5,-504 263.3142,-488.5389 286.6509,-487.4421 371.8432,-468.0615"/>
<polygon fill="#c0c0c0" stroke="#c0c0c0" stroke-width="2" points="372.7266,-471.4498 381.6912,-465.8031 371.1619,-464.6269 372.7266,-471.4498"/>
</g>
<!-- 11 -->
<g id="node12" class="node">
<title>11</title>
<path fill="none" stroke="#d8cb56" stroke-width="2" d="M352,-468C352,-468 269,-468 269,-468 263,-468 257,-462 257,-456 257,-456 257,-444 257,-444 257,-438 263,-432 269,-432 269,-432 352,-432 352,-432 358,-432 364,-438 364,-444 364,-444 364,-456 364,-456 364,-462 358,-468 352,-468"/>
<text text-anchor="middle" x="310.5" y="-447.5" font-family="sans" font-size="10.00" fill="#000000">process_ccs_BQ11</text>
</g>
<!-- 7&#45;&gt;11 -->
<g id="edge22" class="edge">
<title>7&#45;&gt;11</title>
<path fill="none" stroke="#c0c0c0" stroke-width="2" d="M142.7355,-503.9243C174.5827,-493.6877 214.5062,-480.8552 247.4167,-470.2768"/>
<polygon fill="#c0c0c0" stroke="#c0c0c0" stroke-width="2" points="248.494,-473.607 256.9432,-467.2147 246.3518,-466.9427 248.494,-473.607"/>
</g>
<!-- 8 -->
<g id="node9" class="node">
<title>8</title>
<path fill="none" stroke="#d8ac56" stroke-width="2" d="M352,-540C352,-540 203,-540 203,-540 197,-540 191,-534 191,-528 191,-528 191,-516 191,-516 191,-510 197,-504 203,-504 203,-504 352,-504 352,-504 358,-504 364,-510 364,-516 364,-516 364,-528 364,-528 364,-534 358,-540 352,-540"/>
<text text-anchor="middle" x="277.5" y="-525" font-family="sans" font-size="10.00" fill="#000000">get_ccs</text>
<text text-anchor="middle" x="277.5" y="-514" font-family="sans" font-size="10.00" fill="#000000">pacbioRun: pool2_BQ11_230520</text>
</g>
<!-- 8&#45;&gt;6 -->
<g id="edge19" class="edge">
<title>8&#45;&gt;6</title>
<path fill="none" stroke="#c0c0c0" stroke-width="2" d="M318.1271,-503.8314C339.6599,-494.2018 366.2849,-482.295 389.0152,-472.1299"/>
<polygon fill="#c0c0c0" stroke="#c0c0c0" stroke-width="2" points="390.4652,-475.3155 398.165,-468.038 387.6074,-468.9254 390.4652,-475.3155"/>
</g>
<!-- 8&#45;&gt;11 -->
<g id="edge23" class="edge">
<title>8&#45;&gt;11</title>
<path fill="none" stroke="#c0c0c0" stroke-width="2" d="M285.8273,-503.8314C289.473,-495.8771 293.8309,-486.369 297.8627,-477.5723"/>
<polygon fill="#c0c0c0" stroke="#c0c0c0" stroke-width="2" points="301.0757,-478.9622 302.0606,-468.4133 294.7123,-476.0456 301.0757,-478.9622"/>
</g>
<!-- 9 -->
<g id="node10" class="node">
<title>9</title>
<path fill="none" stroke="#d8ac56" stroke-width="2" d="M549,-540C549,-540 394,-540 394,-540 388,-540 382,-534 382,-528 382,-528 382,-516 382,-516 382,-510 388,-504 394,-504 394,-504 549,-504 549,-504 555,-504 561,-510 561,-516 561,-516 561,-528 561,-528 561,-534 555,-540 549,-540"/>
<text text-anchor="middle" x="471.5" y="-525" font-family="sans" font-size="10.00" fill="#000000">get_ccs</text>
<text text-anchor="middle" x="471.5" y="-514" font-family="sans" font-size="10.00" fill="#000000">pacbioRun: pool1_XBB15_230520</text>
</g>
<!-- 9&#45;&gt;6 -->
<g id="edge20" class="edge">
<title>9&#45;&gt;6</title>
<path fill="none" stroke="#c0c0c0" stroke-width="2" d="M463.1727,-503.8314C459.527,-495.8771 455.1691,-486.369 451.1373,-477.5723"/>
<polygon fill="#c0c0c0" stroke="#c0c0c0" stroke-width="2" points="454.2877,-476.0456 446.9394,-468.4133 447.9243,-478.9622 454.2877,-476.0456"/>
</g>
<!-- 9&#45;&gt;11 -->
<g id="edge24" class="edge">
<title>9&#45;&gt;11</title>
<path fill="none" stroke="#c0c0c0" stroke-width="2" d="M430.8729,-503.8314C409.3401,-494.2018 382.7151,-482.295 359.9848,-472.1299"/>
<polygon fill="#c0c0c0" stroke="#c0c0c0" stroke-width="2" points="361.3926,-468.9254 350.835,-468.038 358.5348,-475.3155 361.3926,-468.9254"/>
</g>
<!-- 10 -->
<g id="node11" class="node">
<title>10</title>
<path fill="none" stroke="#d8ac56" stroke-width="2" d="M746,-540C746,-540 591,-540 591,-540 585,-540 579,-534 579,-528 579,-528 579,-516 579,-516 579,-510 585,-504 591,-504 591,-504 746,-504 746,-504 752,-504 758,-510 758,-516 758,-516 758,-528 758,-528 758,-534 752,-540 746,-540"/>
<text text-anchor="middle" x="668.5" y="-525" font-family="sans" font-size="10.00" fill="#000000">get_ccs</text>
<text text-anchor="middle" x="668.5" y="-514" font-family="sans" font-size="10.00" fill="#000000">pacbioRun: pool2_XBB15_230520</text>
</g>
<!-- 10&#45;&gt;6 -->
<g id="edge21" class="edge">
<title>10&#45;&gt;6</title>
<path fill="none" stroke="#c0c0c0" stroke-width="2" d="M610.7582,-503.9243C578.5424,-493.8394 538.2779,-481.2348 504.7796,-470.7484"/>
<polygon fill="#c0c0c0" stroke="#c0c0c0" stroke-width="2" points="505.6605,-467.3567 495.0716,-467.7094 503.5693,-474.0371 505.6605,-467.3567"/>
</g>
<!-- 10&#45;&gt;11 -->
<g id="edge25" class="edge">
<title>10&#45;&gt;11</title>
<path fill="none" stroke="#c0c0c0" stroke-width="2" d="M578.7237,-505.6776C504.3406,-492.1467 406.6107,-474.3498 374.2716,-468.0266"/>
<polygon fill="#c0c0c0" stroke="#c0c0c0" stroke-width="2" points="374.6801,-464.5373 364.1797,-465.9481 373.2681,-471.3934 374.6801,-464.5373"/>
</g>
<!-- 11&#45;&gt;0 -->
<g id="edge7" class="edge">
<title>11&#45;&gt;0</title>
<path fill="none" stroke="#c0c0c0" stroke-width="2" d="M291.4391,-431.9596C266.6556,-406.4557 226.5,-357.2284 226.5,-306 226.5,-306 226.5,-306 226.5,-162 226.5,-117.8588 235.4152,-101.2205 268.5,-72 298.6409,-45.3795 342.0872,-31.8547 377.1103,-24.9981"/>
<polygon fill="#c0c0c0" stroke="#c0c0c0" stroke-width="2" points="378.0046,-28.3929 387.2149,-23.1564 376.7493,-21.5064 378.0046,-28.3929"/>
</g>
<!-- 11&#45;&gt;13 -->
<g id="edge27" class="edge">
<title>11&#45;&gt;13</title>
<path fill="none" stroke="#c0c0c0" stroke-width="2" d="M333.4631,-431.8314C344.6715,-422.9632 358.3209,-412.1637 370.4439,-402.5718"/>
<polygon fill="#c0c0c0" stroke="#c0c0c0" stroke-width="2" points="372.8737,-405.1125 378.5442,-396.1628 368.5303,-399.6229 372.8737,-405.1125"/>
</g>
<!-- 11&#45;&gt;14 -->
<g id="edge30" class="edge">
<title>11&#45;&gt;14</title>
<path fill="none" stroke="#c0c0c0" stroke-width="2" d="M308.2203,-431.7623C305.1501,-407.201 299.6559,-363.2474 296.0443,-334.3541"/>
<polygon fill="#c0c0c0" stroke="#c0c0c0" stroke-width="2" points="299.4746,-333.5782 294.7612,-324.0896 292.5287,-334.4465 299.4746,-333.5782"/>
</g>
<!-- 11&#45;&gt;15 -->
<g id="edge34" class="edge">
<title>11&#45;&gt;15</title>
<path fill="none" stroke="#c0c0c0" stroke-width="2" d="M364.1634,-432.4472C398.3132,-420.7885 438.9425,-405.8676 454.5,-396 473.8752,-383.7109 473.1558,-373.7807 491.5,-360 506.5887,-348.6649 524.2956,-337.9853 540.3075,-329.1633"/>
<polygon fill="#c0c0c0" stroke="#c0c0c0" stroke-width="2" points="542.3726,-332.0258 549.5067,-324.1927 539.045,-325.8672 542.3726,-332.0258"/>
</g>
<!-- 12 -->
<g id="node13" class="node">
<title>12</title>
<path fill="none" stroke="#8fd856" stroke-width="2" d="M613.5,-468C613.5,-468 525.5,-468 525.5,-468 519.5,-468 513.5,-462 513.5,-456 513.5,-456 513.5,-444 513.5,-444 513.5,-438 519.5,-432 525.5,-432 525.5,-432 613.5,-432 613.5,-432 619.5,-432 625.5,-438 625.5,-444 625.5,-444 625.5,-456 625.5,-456 625.5,-462 619.5,-468 613.5,-468"/>
<text text-anchor="middle" x="569.5" y="-447.5" font-family="sans" font-size="10.00" fill="#000000">get_BA2_bc_lookup</text>
</g>
<!-- 12&#45;&gt;0 -->
<g id="edge8" class="edge">
<title>12&#45;&gt;0</title>
<path fill="none" stroke="#c0c0c0" stroke-width="2" d="M625.6389,-440.0527C728.4466,-420.2292 936.5,-371.9633 936.5,-306 936.5,-306 936.5,-306 936.5,-162 936.5,-115.8034 923.0583,-97.4436 884.5,-72 852.5275,-50.9022 608.3648,-30.5893 494.1123,-22.1256"/>
<polygon fill="#c0c0c0" stroke="#c0c0c0" stroke-width="2" points="494.0319,-18.6103 483.8022,-21.3679 493.5187,-25.5915 494.0319,-18.6103"/>
</g>
<!-- 12&#45;&gt;13 -->
<g id="edge26" class="edge">
<title>12&#45;&gt;13</title>
<path fill="none" stroke="#c0c0c0" stroke-width="2" d="M527.1065,-431.8314C504.5376,-422.159 476.6079,-410.1891 452.8204,-399.9944"/>
<polygon fill="#c0c0c0" stroke="#c0c0c0" stroke-width="2" points="454.1588,-396.7602 443.5886,-396.038 451.4014,-403.1943 454.1588,-396.7602"/>
</g>
<!-- 12&#45;&gt;14 -->
<g id="edge29" class="edge">
<title>12&#45;&gt;14</title>
<path fill="none" stroke="#c0c0c0" stroke-width="2" d="M550.6005,-431.8342C528.923,-411.8444 491.5757,-379.914 454.5,-360 418.2866,-340.5492 373.7773,-326.3271 340.5822,-317.3758"/>
<polygon fill="#c0c0c0" stroke="#c0c0c0" stroke-width="2" points="341.2266,-313.9263 330.6652,-314.7671 339.4458,-320.696 341.2266,-313.9263"/>
</g>
<!-- 12&#45;&gt;15 -->
<g id="edge33" class="edge">
<title>12&#45;&gt;15</title>
<path fill="none" stroke="#c0c0c0" stroke-width="2" d="M571.6531,-431.7623C574.5527,-407.201 579.7416,-363.2474 583.1526,-334.3541"/>
<polygon fill="#c0c0c0" stroke="#c0c0c0" stroke-width="2" points="586.6678,-334.431 584.3644,-324.0896 579.7161,-333.6103 586.6678,-334.431"/>
</g>
<!-- 13&#45;&gt;0 -->
<g id="edge9" class="edge">
<title>13&#45;&gt;0</title>
<path fill="none" stroke="#c0c0c0" stroke-width="2" d="M390.1716,-359.658C376.209,-335.8699 353.2567,-292.6024 344.5,-252 341.3115,-237.2156 343.2314,-162.5125 346.5,-144 352.3649,-110.7828 351.4635,-99.8458 370.5,-72 378.0785,-60.9144 388.5472,-50.8528 398.8705,-42.5"/>
<polygon fill="#c0c0c0" stroke="#c0c0c0" stroke-width="2" points="401.2813,-45.0607 407.0604,-36.1807 397.0051,-39.5186 401.2813,-45.0607"/>
</g>
<!-- 13&#45;&gt;14 -->
<g id="edge32" class="edge">
<title>13&#45;&gt;14</title>
<path fill="none" stroke="#c0c0c0" stroke-width="2" d="M373.9947,-359.8314C360.182,-350.7074 343.2744,-339.539 328.4471,-329.7449"/>
<polygon fill="#c0c0c0" stroke="#c0c0c0" stroke-width="2" points="330.2696,-326.7541 319.9965,-324.1628 326.4114,-332.5949 330.2696,-326.7541"/>
</g>
<!-- 13&#45;&gt;15 -->
<g id="edge36" class="edge">
<title>13&#45;&gt;15</title>
<path fill="none" stroke="#c0c0c0" stroke-width="2" d="M446.2833,-360.5708C471.7283,-350.6679 503.8069,-338.1833 530.8577,-327.6554"/>
<polygon fill="#c0c0c0" stroke="#c0c0c0" stroke-width="2" points="532.1474,-330.9092 540.1971,-324.0206 529.6085,-324.3859 532.1474,-330.9092"/>
</g>
<!-- 14&#45;&gt;0 -->
<g id="edge10" class="edge">
<title>14&#45;&gt;0</title>
<path fill="none" stroke="#c0c0c0" stroke-width="2" d="M285.662,-287.8274C271.0263,-245.5574 241.6405,-139.1349 288.5,-72 299.2036,-56.6651 340.8521,-42.2179 377.0971,-32.1325"/>
<polygon fill="#c0c0c0" stroke="#c0c0c0" stroke-width="2" points="378.4116,-35.4025 387.1465,-29.4064 376.579,-28.6466 378.4116,-35.4025"/>
</g>
<!-- 14&#45;&gt;16 -->
<g id="edge37" class="edge">
<title>14&#45;&gt;16</title>
<path fill="none" stroke="#c0c0c0" stroke-width="2" d="M330.8849,-298.1397C347.6248,-294.8235 367.4998,-291.0362 385.5,-288 493.0587,-269.8577 524.3629,-276.8368 634.4676,-252.0379"/>
<polygon fill="#c0c0c0" stroke="#c0c0c0" stroke-width="2" points="635.3327,-255.4305 644.2995,-249.7872 633.7706,-248.607 635.3327,-255.4305"/>
</g>
<!-- 15&#45;&gt;0 -->
<g id="edge11" class="edge">
<title>15&#45;&gt;0</title>
<path fill="none" stroke="#c0c0c0" stroke-width="2" d="M646.1283,-298.6158C679.6283,-291.6509 720.0863,-278.1473 747.5,-252 808.1267,-194.1739 858.2738,-135.3978 803.5,-72 783.5469,-48.9053 592.3573,-30.4704 493.7344,-22.4085"/>
<polygon fill="#c0c0c0" stroke="#c0c0c0" stroke-width="2" points="493.8727,-18.9084 483.6233,-21.5918 493.3091,-25.8857 493.8727,-18.9084"/>
</g>
<!-- 15&#45;&gt;16 -->
<g id="edge38" class="edge">
<title>15&#45;&gt;16</title>
<path fill="none" stroke="#c0c0c0" stroke-width="2" d="M612.9959,-287.8314C626.1774,-278.7927 642.2847,-267.7476 656.4711,-258.0198"/>
<polygon fill="#c0c0c0" stroke="#c0c0c0" stroke-width="2" points="658.7446,-260.7047 665.0125,-252.1628 654.7859,-254.9316 658.7446,-260.7047"/>
</g>
<!-- 16&#45;&gt;0 -->
<g id="edge12" class="edge">
<title>16&#45;&gt;0</title>
<path fill="none" stroke="#c0c0c0" stroke-width="2" d="M686.667,-215.774C676.871,-182.3461 651.5089,-111.0848 604.5,-72 573.135,-45.9221 528.9964,-32.374 493.6928,-25.3709"/>
<polygon fill="#c0c0c0" stroke="#c0c0c0" stroke-width="2" points="493.9879,-21.8659 483.5172,-23.4825 492.7107,-28.7484 493.9879,-21.8659"/>
</g>
<!-- 16&#45;&gt;18 -->
<g id="edge41" class="edge">
<title>16&#45;&gt;18</title>
<path fill="none" stroke="#c0c0c0" stroke-width="2" d="M646.3307,-215.8314C622.1777,-206.1162 592.2622,-194.0831 566.8444,-183.8592"/>
<polygon fill="#c0c0c0" stroke="#c0c0c0" stroke-width="2" points="567.9282,-180.5227 557.3444,-180.038 565.3159,-187.017 567.9282,-180.5227"/>
</g>
<!-- 19 -->
<g id="node20" class="node">
<title>19</title>
<path fill="none" stroke="#d85656" stroke-width="2" d="M584,-108C584,-108 495,-108 495,-108 489,-108 483,-102 483,-96 483,-96 483,-84 483,-84 483,-78 489,-72 495,-72 495,-72 584,-72 584,-72 590,-72 596,-78 596,-84 596,-84 596,-96 596,-96 596,-102 590,-108 584,-108"/>
<text text-anchor="middle" x="539.5" y="-87.5" font-family="sans" font-size="10.00" fill="#000000">interactive_jsd_plot</text>
</g>
<!-- 16&#45;&gt;19 -->
<g id="edge44" class="edge">
<title>16&#45;&gt;19</title>
<path fill="none" stroke="#c0c0c0" stroke-width="2" d="M659.4327,-215.8779C643.8199,-206.2694 625.2783,-193.6419 610.5,-180 589.9223,-161.0046 570.5149,-135.6994 557.2084,-116.7602"/>
<polygon fill="#c0c0c0" stroke="#c0c0c0" stroke-width="2" points="559.925,-114.5344 551.365,-108.2913 554.1634,-118.5099 559.925,-114.5344"/>
</g>
<!-- 20 -->
<g id="node21" class="node">
<title>20</title>
<path fill="none" stroke="#56d873" stroke-width="2" d="M782.5,-108C782.5,-108 664.5,-108 664.5,-108 658.5,-108 652.5,-102 652.5,-96 652.5,-96 652.5,-84 652.5,-84 652.5,-78 658.5,-72 664.5,-72 664.5,-72 782.5,-72 782.5,-72 788.5,-72 794.5,-78 794.5,-84 794.5,-84 794.5,-96 794.5,-96 794.5,-102 788.5,-108 782.5,-108"/>
<text text-anchor="middle" x="723.5" y="-87.5" font-family="sans" font-size="10.00" fill="#000000">interactive_heatmap_plot</text>
</g>
<!-- 16&#45;&gt;20 -->
<g id="edge46" class="edge">
<title>16&#45;&gt;20</title>
<path fill="none" stroke="#c0c0c0" stroke-width="2" d="M695.5528,-215.7623C701.0349,-191.0928 710.8645,-146.8598 717.2838,-117.9731"/>
<polygon fill="#c0c0c0" stroke="#c0c0c0" stroke-width="2" points="720.7274,-118.6108 719.4801,-108.0896 713.894,-117.0922 720.7274,-118.6108"/>
</g>
<!-- 17 -->
<g id="node18" class="node">
<title>17</title>
<path fill="none" stroke="#70d856" stroke-width="2" d="M816.5,-324C816.5,-324 718.5,-324 718.5,-324 712.5,-324 706.5,-318 706.5,-312 706.5,-312 706.5,-300 706.5,-300 706.5,-294 712.5,-288 718.5,-288 718.5,-288 816.5,-288 816.5,-288 822.5,-288 828.5,-294 828.5,-300 828.5,-300 828.5,-312 828.5,-312 828.5,-318 822.5,-324 816.5,-324"/>
<text text-anchor="middle" x="767.5" y="-303.5" font-family="sans" font-size="10.00" fill="#000000">gisaid_rbd_mutations</text>
</g>
<!-- 17&#45;&gt;0 -->
<g id="edge16" class="edge">
<title>17&#45;&gt;0</title>
<path fill="none" stroke="#c0c0c0" stroke-width="2" d="M781.9297,-287.8012C814.4194,-244.5385 886.1298,-134.5008 828.5,-72 806.1636,-47.7757 597.5924,-29.5917 493.7154,-21.9549"/>
<polygon fill="#c0c0c0" stroke="#c0c0c0" stroke-width="2" points="493.9245,-18.4609 483.6971,-21.2272 493.4173,-25.4425 493.9245,-18.4609"/>
</g>
<!-- 17&#45;&gt;16 -->
<g id="edge40" class="edge">
<title>17&#45;&gt;16</title>
<path fill="none" stroke="#c0c0c0" stroke-width="2" d="M748.322,-287.8314C739.1412,-279.1337 727.9994,-268.5783 718.0224,-259.1265"/>
<polygon fill="#c0c0c0" stroke="#c0c0c0" stroke-width="2" points="720.3385,-256.4995 710.6719,-252.1628 715.5243,-261.5811 720.3385,-256.4995"/>
</g>
<!-- 18&#45;&gt;0 -->
<g id="edge13" class="edge">
<title>18&#45;&gt;0</title>
<path fill="none" stroke="#c0c0c0" stroke-width="2" d="M497.6947,-143.7029C489.9015,-133.5574 480.5316,-120.4975 473.5,-108 462.2022,-87.9202 452.1945,-63.8086 445.289,-45.5981"/>
<polygon fill="#c0c0c0" stroke="#c0c0c0" stroke-width="2" points="448.5439,-44.3089 441.7833,-36.1514 441.9812,-46.7444 448.5439,-44.3089"/>
</g>
<!-- 18&#45;&gt;19 -->
<g id="edge45" class="edge">
<title>18&#45;&gt;19</title>
<path fill="none" stroke="#c0c0c0" stroke-width="2" d="M519.3132,-143.8314C522.2644,-135.9617 525.7858,-126.5712 529.055,-117.8533"/>
<polygon fill="#c0c0c0" stroke="#c0c0c0" stroke-width="2" points="532.3609,-119.0055 532.595,-108.4133 525.8066,-116.5476 532.3609,-119.0055"/>
</g>
<!-- 19&#45;&gt;0 -->
<g id="edge14" class="edge">
<title>19&#45;&gt;0</title>
<path fill="none" stroke="#c0c0c0" stroke-width="2" d="M513.2564,-71.8314C500.2005,-62.7927 484.2465,-51.7476 470.1953,-42.0198"/>
<polygon fill="#c0c0c0" stroke="#c0c0c0" stroke-width="2" points="471.9494,-38.9773 461.7352,-36.1628 467.9649,-44.7326 471.9494,-38.9773"/>
</g>
<!-- 20&#45;&gt;0 -->
<g id="edge15" class="edge">
<title>20&#45;&gt;0</title>
<path fill="none" stroke="#c0c0c0" stroke-width="2" d="M652.309,-72.2022C603.4255,-59.9814 539.3511,-43.9628 493.5597,-32.5149"/>
<polygon fill="#c0c0c0" stroke="#c0c0c0" stroke-width="2" points="494.3387,-29.102 483.7884,-30.0721 492.6409,-35.893 494.3387,-29.102"/>
</g>
</g>
</svg>
