<?xml version="1.0" encoding="UTF-8" standalone="no"?>
<!DOCTYPE svg PUBLIC "-//W3C//DTD SVG 1.1//EN"
 "http://www.w3.org/Graphics/SVG/1.1/DTD/svg11.dtd">
<!-- Generated by graphviz version 2.50.0 (20220708.1628)
 -->
<!-- Title: snakemake_dag Pages: 1 -->
<svg width="894pt" height="476pt"
 viewBox="0.00 0.00 893.50 476.00" xmlns="http://www.w3.org/2000/svg" xmlns:xlink="http://www.w3.org/1999/xlink">
<g id="graph0" class="graph" transform="scale(1 1) rotate(0) translate(4 472)">
<title>snakemake_dag</title>
<polygon fill="white" stroke="transparent" points="-4,4 -4,-472 889.5,-472 889.5,4 -4,4"/>
<!-- 0 -->
<g id="node1" class="node">
<title>0</title>
<path fill="none" stroke="#56d8d8" stroke-width="2" d="M481,-36C481,-36 415,-36 415,-36 409,-36 403,-30 403,-24 403,-24 403,-12 403,-12 403,-6 409,0 415,0 415,0 481,0 481,0 487,0 493,-6 493,-12 493,-12 493,-24 493,-24 493,-30 487,-36 481,-36"/>
<text text-anchor="middle" x="448" y="-15.5" font-family="sans" font-size="10.00">make_summary</text>
</g>
<!-- 1 -->
<g id="node2" class="node">
<title>1</title>
<path fill="none" stroke="#56d87b" stroke-width="2" d="M52,-108C52,-108 12,-108 12,-108 6,-108 0,-102 0,-96 0,-96 0,-84 0,-84 0,-78 6,-72 12,-72 12,-72 52,-72 52,-72 58,-72 64,-78 64,-84 64,-84 64,-96 64,-96 64,-102 58,-108 52,-108"/>
<text text-anchor="middle" x="32" y="-87.5" font-family="sans" font-size="10.00">make_dag</text>
</g>
<!-- 1&#45;&gt;0 -->
<g id="edge1" class="edge">
<title>1&#45;&gt;0</title>
<path fill="none" stroke="grey" stroke-width="2" d="M64.41,-74.69C67.29,-73.69 70.18,-72.77 73,-72 184.16,-41.63 318.87,-28 392.79,-22.43"/>
<polygon fill="grey" stroke="grey" stroke-width="2" points="393.09,-25.91 402.81,-21.69 392.58,-18.93 393.09,-25.91"/>
</g>
<!-- 2 -->
<g id="node3" class="node">
<title>2</title>
<path fill="none" stroke="#d6d856" stroke-width="2" d="M176,-108C176,-108 94,-108 94,-108 88,-108 82,-102 82,-96 82,-96 82,-84 82,-84 82,-78 88,-72 94,-72 94,-72 176,-72 176,-72 182,-72 188,-78 188,-84 188,-84 188,-96 188,-96 188,-102 182,-108 176,-108"/>
<text text-anchor="middle" x="135" y="-87.5" font-family="sans" font-size="10.00">get_mut_bind_expr</text>
</g>
<!-- 2&#45;&gt;0 -->
<g id="edge2" class="edge">
<title>2&#45;&gt;0</title>
<path fill="none" stroke="grey" stroke-width="2" d="M188.05,-74.23C191.07,-73.46 194.07,-72.71 197,-72 264.16,-55.72 342.11,-39.7 393.1,-29.61"/>
<polygon fill="grey" stroke="grey" stroke-width="2" points="393.8,-33.04 402.93,-27.68 392.44,-26.18 393.8,-33.04"/>
</g>
<!-- 3 -->
<g id="node4" class="node">
<title>3</title>
<path fill="none" stroke="#b6d856" stroke-width="2" d="M331.5,-108C331.5,-108 218.5,-108 218.5,-108 212.5,-108 206.5,-102 206.5,-96 206.5,-96 206.5,-84 206.5,-84 206.5,-78 212.5,-72 218.5,-72 218.5,-72 331.5,-72 331.5,-72 337.5,-72 343.5,-78 343.5,-84 343.5,-84 343.5,-96 343.5,-96 343.5,-102 337.5,-108 331.5,-108"/>
<text text-anchor="middle" x="275" y="-87.5" font-family="sans" font-size="10.00">get_mut_antibody_escape</text>
</g>
<!-- 3&#45;&gt;0 -->
<g id="edge3" class="edge">
<title>3&#45;&gt;0</title>
<path fill="none" stroke="grey" stroke-width="2" d="M317.32,-71.88C341.18,-62.22 371.17,-50.09 396.4,-39.88"/>
<polygon fill="grey" stroke="grey" stroke-width="2" points="397.86,-43.06 405.82,-36.07 395.23,-36.57 397.86,-43.06"/>
</g>
<!-- 4 -->
<g id="node5" class="node">
<title>4</title>
<path fill="none" stroke="#56d8b9" stroke-width="2" d="M628,-396C628,-396 546,-396 546,-396 540,-396 534,-390 534,-384 534,-384 534,-372 534,-372 534,-366 540,-360 546,-360 546,-360 628,-360 628,-360 634,-360 640,-366 640,-372 640,-372 640,-384 640,-384 640,-390 634,-396 628,-396"/>
<text text-anchor="middle" x="587" y="-375.5" font-family="sans" font-size="10.00">process_ccs_XBB15</text>
</g>
<!-- 4&#45;&gt;0 -->
<g id="edge4" class="edge">
<title>4&#45;&gt;0</title>
<path fill="none" stroke="grey" stroke-width="2" d="M618.39,-359.94C656,-336.95 714,-292.22 714,-235 714,-235 714,-235 714,-161 714,-66.31 581.21,-34.54 503.27,-24.05"/>
<polygon fill="grey" stroke="grey" stroke-width="2" points="503.48,-20.54 493.12,-22.76 502.6,-27.49 503.48,-20.54"/>
</g>
<!-- 11 -->
<g id="node12" class="node">
<title>11</title>
<path fill="none" stroke="#56d89a" stroke-width="2" d="M560,-324C560,-324 500,-324 500,-324 494,-324 488,-318 488,-312 488,-312 488,-300 488,-300 488,-294 494,-288 500,-288 500,-288 560,-288 560,-288 566,-288 572,-294 572,-300 572,-300 572,-312 572,-312 572,-318 566,-324 560,-324"/>
<text text-anchor="middle" x="530" y="-303.5" font-family="sans" font-size="10.00">count_variants</text>
</g>
<!-- 4&#45;&gt;11 -->
<g id="edge22" class="edge">
<title>4&#45;&gt;11</title>
<path fill="none" stroke="grey" stroke-width="2" d="M572.91,-359.7C566.08,-351.3 557.74,-341.07 550.24,-331.86"/>
<polygon fill="grey" stroke="grey" stroke-width="2" points="552.96,-329.65 543.93,-324.1 547.53,-334.07 552.96,-329.65"/>
</g>
<!-- 12 -->
<g id="node13" class="node">
<title>12</title>
<path fill="none" stroke="#d87556" stroke-width="2" d="M644,-252C644,-252 596,-252 596,-252 590,-252 584,-246 584,-240 584,-240 584,-228 584,-228 584,-222 590,-216 596,-216 596,-216 644,-216 644,-216 650,-216 656,-222 656,-228 656,-228 656,-240 656,-240 656,-246 650,-252 644,-252"/>
<text text-anchor="middle" x="620" y="-231.5" font-family="sans" font-size="10.00">fit_titrations</text>
</g>
<!-- 4&#45;&gt;12 -->
<g id="edge25" class="edge">
<title>4&#45;&gt;12</title>
<path fill="none" stroke="grey" stroke-width="2" d="M598.14,-359.58C603.94,-349.58 610.54,-336.54 614,-324 619.59,-303.75 620.94,-279.98 620.97,-262.1"/>
<polygon fill="grey" stroke="grey" stroke-width="2" points="624.47,-262.03 620.86,-252.07 617.47,-262.11 624.47,-262.03"/>
</g>
<!-- 13 -->
<g id="node14" class="node">
<title>13</title>
<path fill="none" stroke="#97d856" stroke-width="2" d="M498,-252C498,-252 412,-252 412,-252 406,-252 400,-246 400,-240 400,-240 400,-228 400,-228 400,-222 406,-216 412,-216 412,-216 498,-216 498,-216 504,-216 510,-222 510,-228 510,-228 510,-240 510,-240 510,-246 504,-252 498,-252"/>
<text text-anchor="middle" x="455" y="-231.5" font-family="sans" font-size="10.00">calculate_expression</text>
</g>
<!-- 4&#45;&gt;13 -->
<g id="edge29" class="edge">
<title>4&#45;&gt;13</title>
<path fill="none" stroke="grey" stroke-width="2" d="M533.99,-361.45C514.21,-353.23 493.14,-341.17 479,-324 464.73,-306.67 458.89,-281.62 456.53,-262.5"/>
<polygon fill="grey" stroke="grey" stroke-width="2" points="459.99,-261.92 455.52,-252.31 453.02,-262.61 459.99,-261.92"/>
</g>
<!-- 5 -->
<g id="node6" class="node">
<title>5</title>
<path fill="none" stroke="#78d856" stroke-width="2" d="M688.5,-468C688.5,-468 545.5,-468 545.5,-468 539.5,-468 533.5,-462 533.5,-456 533.5,-456 533.5,-444 533.5,-444 533.5,-438 539.5,-432 545.5,-432 545.5,-432 688.5,-432 688.5,-432 694.5,-432 700.5,-438 700.5,-444 700.5,-444 700.5,-456 700.5,-456 700.5,-462 694.5,-468 688.5,-468"/>
<text text-anchor="middle" x="617" y="-453" font-family="sans" font-size="10.00">get_ccs</text>
<text text-anchor="middle" x="617" y="-442" font-family="sans" font-size="10.00">pacbioRun: pool1_BQ11_230520</text>
</g>
<!-- 5&#45;&gt;4 -->
<g id="edge12" class="edge">
<title>5&#45;&gt;4</title>
<path fill="none" stroke="grey" stroke-width="2" d="M609.58,-431.7C606.21,-423.81 602.13,-414.3 598.38,-405.55"/>
<polygon fill="grey" stroke="grey" stroke-width="2" points="601.49,-403.92 594.33,-396.1 595.05,-406.67 601.49,-403.92"/>
</g>
<!-- 9 -->
<g id="node10" class="node">
<title>9</title>
<path fill="none" stroke="#569ad8" stroke-width="2" d="M500.5,-396C500.5,-396 423.5,-396 423.5,-396 417.5,-396 411.5,-390 411.5,-384 411.5,-384 411.5,-372 411.5,-372 411.5,-366 417.5,-360 423.5,-360 423.5,-360 500.5,-360 500.5,-360 506.5,-360 512.5,-366 512.5,-372 512.5,-372 512.5,-384 512.5,-384 512.5,-390 506.5,-396 500.5,-396"/>
<text text-anchor="middle" x="462" y="-375.5" font-family="sans" font-size="10.00">process_ccs_BQ11</text>
</g>
<!-- 5&#45;&gt;9 -->
<g id="edge16" class="edge">
<title>5&#45;&gt;9</title>
<path fill="none" stroke="grey" stroke-width="2" d="M579.08,-431.88C557.99,-422.35 531.54,-410.41 509.13,-400.28"/>
<polygon fill="grey" stroke="grey" stroke-width="2" points="510.35,-396.99 499.79,-396.07 507.47,-403.37 510.35,-396.99"/>
</g>
<!-- 6 -->
<g id="node7" class="node">
<title>6</title>
<path fill="none" stroke="#78d856" stroke-width="2" d="M873.5,-468C873.5,-468 730.5,-468 730.5,-468 724.5,-468 718.5,-462 718.5,-456 718.5,-456 718.5,-444 718.5,-444 718.5,-438 724.5,-432 730.5,-432 730.5,-432 873.5,-432 873.5,-432 879.5,-432 885.5,-438 885.5,-444 885.5,-444 885.5,-456 885.5,-456 885.5,-462 879.5,-468 873.5,-468"/>
<text text-anchor="middle" x="802" y="-453" font-family="sans" font-size="10.00">get_ccs</text>
<text text-anchor="middle" x="802" y="-442" font-family="sans" font-size="10.00">pacbioRun: pool2_BQ11_230520</text>
</g>
<!-- 6&#45;&gt;4 -->
<g id="edge13" class="edge">
<title>6&#45;&gt;4</title>
<path fill="none" stroke="grey" stroke-width="2" d="M749.68,-431.97C719.38,-422.1 681.05,-409.62 649.21,-399.25"/>
<polygon fill="grey" stroke="grey" stroke-width="2" points="650.15,-395.88 639.55,-396.11 647.98,-402.53 650.15,-395.88"/>
</g>
<!-- 6&#45;&gt;9 -->
<g id="edge17" class="edge">
<title>6&#45;&gt;9</title>
<path fill="none" stroke="grey" stroke-width="2" d="M718.27,-433.69C650.63,-421.19 560.96,-404.28 525,-396 524.25,-395.83 523.51,-395.65 522.75,-395.48"/>
<polygon fill="grey" stroke="grey" stroke-width="2" points="523.35,-392.02 512.81,-393.06 521.7,-398.82 523.35,-392.02"/>
</g>
<!-- 7 -->
<g id="node8" class="node">
<title>7</title>
<path fill="none" stroke="#78d856" stroke-width="2" d="M312.5,-468C312.5,-468 163.5,-468 163.5,-468 157.5,-468 151.5,-462 151.5,-456 151.5,-456 151.5,-444 151.5,-444 151.5,-438 157.5,-432 163.5,-432 163.5,-432 312.5,-432 312.5,-432 318.5,-432 324.5,-438 324.5,-444 324.5,-444 324.5,-456 324.5,-456 324.5,-462 318.5,-468 312.5,-468"/>
<text text-anchor="middle" x="238" y="-453" font-family="sans" font-size="10.00">get_ccs</text>
<text text-anchor="middle" x="238" y="-442" font-family="sans" font-size="10.00">pacbioRun: pool1_XBB15_230520</text>
</g>
<!-- 7&#45;&gt;4 -->
<g id="edge14" class="edge">
<title>7&#45;&gt;4</title>
<path fill="none" stroke="grey" stroke-width="2" d="M324.56,-433.45C393.53,-420.93 484.4,-404.13 521,-396 521.91,-395.8 522.83,-395.59 523.75,-395.38"/>
<polygon fill="grey" stroke="grey" stroke-width="2" points="524.82,-398.73 533.76,-393.04 523.23,-391.91 524.82,-398.73"/>
</g>
<!-- 7&#45;&gt;9 -->
<g id="edge18" class="edge">
<title>7&#45;&gt;9</title>
<path fill="none" stroke="grey" stroke-width="2" d="M292.51,-431.97C325.51,-421.65 367.65,-408.48 401.66,-397.86"/>
<polygon fill="grey" stroke="grey" stroke-width="2" points="402.97,-401.11 411.47,-394.79 400.88,-394.43 402.97,-401.11"/>
</g>
<!-- 8 -->
<g id="node9" class="node">
<title>8</title>
<path fill="none" stroke="#78d856" stroke-width="2" d="M503.5,-468C503.5,-468 354.5,-468 354.5,-468 348.5,-468 342.5,-462 342.5,-456 342.5,-456 342.5,-444 342.5,-444 342.5,-438 348.5,-432 354.5,-432 354.5,-432 503.5,-432 503.5,-432 509.5,-432 515.5,-438 515.5,-444 515.5,-444 515.5,-456 515.5,-456 515.5,-462 509.5,-468 503.5,-468"/>
<text text-anchor="middle" x="429" y="-453" font-family="sans" font-size="10.00">get_ccs</text>
<text text-anchor="middle" x="429" y="-442" font-family="sans" font-size="10.00">pacbioRun: pool2_XBB15_230520</text>
</g>
<!-- 8&#45;&gt;4 -->
<g id="edge15" class="edge">
<title>8&#45;&gt;4</title>
<path fill="none" stroke="grey" stroke-width="2" d="M467.65,-431.88C489.25,-422.31 516.35,-410.3 539.27,-400.15"/>
<polygon fill="grey" stroke="grey" stroke-width="2" points="540.75,-403.32 548.47,-396.07 537.91,-396.92 540.75,-403.32"/>
</g>
<!-- 8&#45;&gt;9 -->
<g id="edge19" class="edge">
<title>8&#45;&gt;9</title>
<path fill="none" stroke="grey" stroke-width="2" d="M437.16,-431.7C440.91,-423.73 445.45,-414.1 449.62,-405.26"/>
<polygon fill="grey" stroke="grey" stroke-width="2" points="452.84,-406.64 453.94,-396.1 446.51,-403.66 452.84,-406.64"/>
</g>
<!-- 9&#45;&gt;0 -->
<g id="edge5" class="edge">
<title>9&#45;&gt;0</title>
<path fill="none" stroke="grey" stroke-width="2" d="M442.03,-359.95C415.51,-335.31 372,-286.95 372,-235 372,-235 372,-235 372,-161 372,-115.64 402.52,-70.75 424.88,-43.95"/>
<polygon fill="grey" stroke="grey" stroke-width="2" points="427.64,-46.09 431.51,-36.23 422.34,-41.53 427.64,-46.09"/>
</g>
<!-- 9&#45;&gt;11 -->
<g id="edge21" class="edge">
<title>9&#45;&gt;11</title>
<path fill="none" stroke="grey" stroke-width="2" d="M478.81,-359.7C487.13,-351.14 497.31,-340.66 506.39,-331.3"/>
<polygon fill="grey" stroke="grey" stroke-width="2" points="508.93,-333.72 513.38,-324.1 503.91,-328.84 508.93,-333.72"/>
</g>
<!-- 9&#45;&gt;12 -->
<g id="edge24" class="edge">
<title>9&#45;&gt;12</title>
<path fill="none" stroke="grey" stroke-width="2" d="M512.65,-363.69C535.89,-355.45 562.35,-342.77 581,-324 597.94,-306.96 608.1,-281.34 613.78,-261.96"/>
<polygon fill="grey" stroke="grey" stroke-width="2" points="617.19,-262.76 616.43,-252.19 610.43,-260.93 617.19,-262.76"/>
</g>
<!-- 9&#45;&gt;13 -->
<g id="edge28" class="edge">
<title>9&#45;&gt;13</title>
<path fill="none" stroke="grey" stroke-width="2" d="M455.35,-359.63C451.8,-349.42 447.8,-336.17 446,-324 442.96,-303.39 445.57,-279.94 448.76,-262.28"/>
<polygon fill="grey" stroke="grey" stroke-width="2" points="452.26,-262.61 450.76,-252.12 445.39,-261.25 452.26,-262.61"/>
</g>
<!-- 10 -->
<g id="node11" class="node">
<title>10</title>
<path fill="none" stroke="#567bd8" stroke-width="2" d="M755.5,-396C755.5,-396 672.5,-396 672.5,-396 666.5,-396 660.5,-390 660.5,-384 660.5,-384 660.5,-372 660.5,-372 660.5,-366 666.5,-360 672.5,-360 672.5,-360 755.5,-360 755.5,-360 761.5,-360 767.5,-366 767.5,-372 767.5,-372 767.5,-384 767.5,-384 767.5,-390 761.5,-396 755.5,-396"/>
<text text-anchor="middle" x="714" y="-375.5" font-family="sans" font-size="10.00">get_BA2_bc_lookup</text>
</g>
<!-- 10&#45;&gt;0 -->
<g id="edge6" class="edge">
<title>10&#45;&gt;0</title>
<path fill="none" stroke="grey" stroke-width="2" d="M730.49,-359.77C752.84,-334.53 790,-285.05 790,-235 790,-235 790,-235 790,-161 790,-102.49 744.96,-98.9 693,-72 632.8,-40.83 555.15,-27.97 503.58,-22.68"/>
<polygon fill="grey" stroke="grey" stroke-width="2" points="503.59,-19.16 493.3,-21.69 502.92,-26.13 503.59,-19.16"/>
</g>
<!-- 10&#45;&gt;11 -->
<g id="edge20" class="edge">
<title>10&#45;&gt;11</title>
<path fill="none" stroke="grey" stroke-width="2" d="M668.99,-359.88C642.53,-349.81 608.99,-337.05 581.48,-326.58"/>
<polygon fill="grey" stroke="grey" stroke-width="2" points="582.62,-323.27 572.02,-322.99 580.13,-329.81 582.62,-323.27"/>
</g>
<!-- 10&#45;&gt;12 -->
<g id="edge23" class="edge">
<title>10&#45;&gt;12</title>
<path fill="none" stroke="grey" stroke-width="2" d="M712.69,-359.9C710.53,-340.91 704.85,-310.03 690,-288 682.12,-276.32 670.81,-266.16 659.57,-257.95"/>
<polygon fill="grey" stroke="grey" stroke-width="2" points="661.26,-254.86 651.04,-252.06 657.28,-260.62 661.26,-254.86"/>
</g>
<!-- 10&#45;&gt;13 -->
<g id="edge27" class="edge">
<title>10&#45;&gt;13</title>
<path fill="none" stroke="grey" stroke-width="2" d="M691.3,-359.84C665.47,-340.8 621.61,-309.87 581,-288 558.69,-275.99 533.08,-264.78 510.8,-255.79"/>
<polygon fill="grey" stroke="grey" stroke-width="2" points="512.06,-252.53 501.47,-252.08 509.47,-259.03 512.06,-252.53"/>
</g>
<!-- 11&#45;&gt;0 -->
<g id="edge7" class="edge">
<title>11&#45;&gt;0</title>
<path fill="none" stroke="grey" stroke-width="2" d="M529.53,-287.94C528.66,-269.77 526.16,-240.35 519,-216 503.98,-164.89 484.24,-158.41 467,-108 460.07,-87.73 455.15,-63.95 452.05,-46.08"/>
<polygon fill="grey" stroke="grey" stroke-width="2" points="455.48,-45.35 450.4,-36.06 448.57,-46.49 455.48,-45.35"/>
</g>
<!-- 11&#45;&gt;12 -->
<g id="edge26" class="edge">
<title>11&#45;&gt;12</title>
<path fill="none" stroke="grey" stroke-width="2" d="M552.25,-287.7C563.58,-278.88 577.53,-268.03 589.82,-258.47"/>
<polygon fill="grey" stroke="grey" stroke-width="2" points="592.26,-261.01 598.01,-252.1 587.97,-255.48 592.26,-261.01"/>
</g>
<!-- 11&#45;&gt;13 -->
<g id="edge30" class="edge">
<title>11&#45;&gt;13</title>
<path fill="none" stroke="grey" stroke-width="2" d="M511.46,-287.7C502.2,-279.05 490.84,-268.45 480.74,-259.03"/>
<polygon fill="grey" stroke="grey" stroke-width="2" points="483.02,-256.37 473.33,-252.1 478.25,-261.49 483.02,-256.37"/>
</g>
<!-- 12&#45;&gt;0 -->
<g id="edge8" class="edge">
<title>12&#45;&gt;0</title>
<path fill="none" stroke="grey" stroke-width="2" d="M628.44,-215.91C642.81,-184.06 667.5,-115 635,-72 619.01,-50.85 552.17,-35.69 502.94,-27.14"/>
<polygon fill="grey" stroke="grey" stroke-width="2" points="503.48,-23.68 493.04,-25.47 502.32,-30.58 503.48,-23.68"/>
</g>
<!-- 14 -->
<g id="node15" class="node">
<title>14</title>
<path fill="none" stroke="#d89556" stroke-width="2" d="M604.5,-180C604.5,-180 541.5,-180 541.5,-180 535.5,-180 529.5,-174 529.5,-168 529.5,-168 529.5,-156 529.5,-156 529.5,-150 535.5,-144 541.5,-144 541.5,-144 604.5,-144 604.5,-144 610.5,-144 616.5,-150 616.5,-156 616.5,-156 616.5,-168 616.5,-168 616.5,-174 610.5,-180 604.5,-180"/>
<text text-anchor="middle" x="573" y="-159.5" font-family="sans" font-size="10.00">collapse_scores</text>
</g>
<!-- 12&#45;&gt;14 -->
<g id="edge31" class="edge">
<title>12&#45;&gt;14</title>
<path fill="none" stroke="grey" stroke-width="2" d="M608.38,-215.7C602.86,-207.47 596.15,-197.48 590.07,-188.42"/>
<polygon fill="grey" stroke="grey" stroke-width="2" points="592.96,-186.46 584.48,-180.1 587.15,-190.36 592.96,-186.46"/>
</g>
<!-- 13&#45;&gt;0 -->
<g id="edge9" class="edge">
<title>13&#45;&gt;0</title>
<path fill="none" stroke="grey" stroke-width="2" d="M449.77,-215.61C441.55,-186.09 427.21,-124.27 434,-72 435.1,-63.51 437.16,-54.43 439.37,-46.24"/>
<polygon fill="grey" stroke="grey" stroke-width="2" points="442.78,-47.02 442.18,-36.44 436.05,-45.09 442.78,-47.02"/>
</g>
<!-- 13&#45;&gt;14 -->
<g id="edge32" class="edge">
<title>13&#45;&gt;14</title>
<path fill="none" stroke="grey" stroke-width="2" d="M483.87,-215.88C499.29,-206.72 518.48,-195.34 535.1,-185.48"/>
<polygon fill="grey" stroke="grey" stroke-width="2" points="537.21,-188.3 544.02,-180.19 533.64,-182.28 537.21,-188.3"/>
</g>
<!-- 14&#45;&gt;0 -->
<g id="edge10" class="edge">
<title>14&#45;&gt;0</title>
<path fill="none" stroke="grey" stroke-width="2" d="M593.11,-143.68C612.29,-125.03 635.92,-94.96 619,-72 592.62,-36.21 542.33,-23.87 503.09,-19.95"/>
<polygon fill="grey" stroke="grey" stroke-width="2" points="503.37,-16.46 493.11,-19.1 502.78,-23.43 503.37,-16.46"/>
</g>
<!-- 15 -->
<g id="node16" class="node">
<title>15</title>
<path fill="none" stroke="#d85656" stroke-width="2" d="M598,-108C598,-108 488,-108 488,-108 482,-108 476,-102 476,-96 476,-96 476,-84 476,-84 476,-78 482,-72 488,-72 488,-72 598,-72 598,-72 604,-72 610,-78 610,-84 610,-84 610,-96 610,-96 610,-102 604,-108 598,-108"/>
<text text-anchor="middle" x="543" y="-87.5" font-family="sans" font-size="10.00">interactive_heatmap_plot</text>
</g>
<!-- 14&#45;&gt;15 -->
<g id="edge33" class="edge">
<title>14&#45;&gt;15</title>
<path fill="none" stroke="grey" stroke-width="2" d="M565.58,-143.7C562.21,-135.81 558.13,-126.3 554.38,-117.55"/>
<polygon fill="grey" stroke="grey" stroke-width="2" points="557.49,-115.92 550.33,-108.1 551.05,-118.67 557.49,-115.92"/>
</g>
<!-- 15&#45;&gt;0 -->
<g id="edge11" class="edge">
<title>15&#45;&gt;0</title>
<path fill="none" stroke="grey" stroke-width="2" d="M519.52,-71.7C507.44,-62.8 492.55,-51.82 479.48,-42.2"/>
<polygon fill="grey" stroke="grey" stroke-width="2" points="481.34,-39.22 471.21,-36.1 477.19,-44.85 481.34,-39.22"/>
</g>
</g>
</svg>
