<?xml version="1.0" encoding="UTF-8" standalone="no"?>
<!DOCTYPE svg PUBLIC "-//W3C//DTD SVG 1.1//EN"
 "http://www.w3.org/Graphics/SVG/1.1/DTD/svg11.dtd">
<!-- Generated by graphviz version 2.40.1 (0)
 -->
<!-- Title: snakemake_dag Pages: 1 -->
<svg width="929pt" height="548pt"
 viewBox="0.00 0.00 928.50 548.00" xmlns="http://www.w3.org/2000/svg" xmlns:xlink="http://www.w3.org/1999/xlink">
<g id="graph0" class="graph" transform="scale(1 1) rotate(0) translate(4 544)">
<title>snakemake_dag</title>
<polygon fill="#ffffff" stroke="transparent" points="-4,4 -4,-544 924.5,-544 924.5,4 -4,4"/>
<!-- 0 -->
<g id="node1" class="node">
<title>0</title>
<path fill="none" stroke="#56b9d8" stroke-width="2" d="M460,-36C460,-36 388,-36 388,-36 382,-36 376,-30 376,-24 376,-24 376,-12 376,-12 376,-6 382,0 388,0 388,0 460,0 460,0 466,0 472,-6 472,-12 472,-12 472,-24 472,-24 472,-30 466,-36 460,-36"/>
<text text-anchor="middle" x="424" y="-15.5" font-family="sans" font-size="10.00" fill="#000000">make_summary</text>
</g>
<!-- 1 -->
<g id="node2" class="node">
<title>1</title>
<path fill="none" stroke="#567bd8" stroke-width="2" d="M56,-180C56,-180 12,-180 12,-180 6,-180 0,-174 0,-168 0,-168 0,-156 0,-156 0,-150 6,-144 12,-144 12,-144 56,-144 56,-144 62,-144 68,-150 68,-156 68,-156 68,-168 68,-168 68,-174 62,-180 56,-180"/>
<text text-anchor="middle" x="34" y="-159.5" font-family="sans" font-size="10.00" fill="#000000">make_dag</text>
</g>
<!-- 1&#45;&gt;0 -->
<g id="edge1" class="edge">
<title>1&#45;&gt;0</title>
<path fill="none" stroke="#c0c0c0" stroke-width="2" d="M21.526,-143.8744C9.4804,-123.9206 -4.5638,-92.0224 13,-72 35.9015,-45.8927 257.9263,-28.4554 365.7776,-21.4561"/>
<polygon fill="#c0c0c0" stroke="#c0c0c0" stroke-width="2" points="366.092,-24.9433 375.8479,-20.8114 365.6447,-17.9576 366.092,-24.9433"/>
</g>
<!-- 2 -->
<g id="node3" class="node">
<title>2</title>
<path fill="none" stroke="#56d8d8" stroke-width="2" d="M111.5,-108C111.5,-108 34.5,-108 34.5,-108 28.5,-108 22.5,-102 22.5,-96 22.5,-96 22.5,-84 22.5,-84 22.5,-78 28.5,-72 34.5,-72 34.5,-72 111.5,-72 111.5,-72 117.5,-72 123.5,-78 123.5,-84 123.5,-84 123.5,-96 123.5,-96 123.5,-102 117.5,-108 111.5,-108"/>
<text text-anchor="middle" x="73" y="-87.5" font-family="sans" font-size="10.00" fill="#000000">save_pinned_env</text>
</g>
<!-- 1&#45;&gt;2 -->
<g id="edge15" class="edge">
<title>1&#45;&gt;2</title>
<path fill="none" stroke="#c0c0c0" stroke-width="2" d="M43.8413,-143.8314C48.1957,-135.7925 53.4098,-126.1666 58.2169,-117.2918"/>
<polygon fill="#c0c0c0" stroke="#c0c0c0" stroke-width="2" points="61.3408,-118.8732 63.0261,-108.4133 55.1857,-115.5392 61.3408,-118.8732"/>
</g>
<!-- 2&#45;&gt;0 -->
<g id="edge2" class="edge">
<title>2&#45;&gt;0</title>
<path fill="none" stroke="#c0c0c0" stroke-width="2" d="M123.6374,-75.5372C128.4782,-74.2874 133.3238,-73.0869 138,-72 216.3511,-53.7881 307.851,-37.3449 365.8493,-27.513"/>
<polygon fill="#c0c0c0" stroke="#c0c0c0" stroke-width="2" points="366.6448,-30.9284 375.9238,-25.8146 365.4811,-24.0258 366.6448,-30.9284"/>
</g>
<!-- 3 -->
<g id="node4" class="node">
<title>3</title>
<path fill="none" stroke="#d89556" stroke-width="2" d="M369,-324C369,-324 283,-324 283,-324 277,-324 271,-318 271,-312 271,-312 271,-300 271,-300 271,-294 277,-288 283,-288 283,-288 369,-288 369,-288 375,-288 381,-294 381,-300 381,-300 381,-312 381,-312 381,-318 375,-324 369,-324"/>
<text text-anchor="middle" x="326" y="-303.5" font-family="sans" font-size="10.00" fill="#000000">get_mut_bind_expr</text>
</g>
<!-- 3&#45;&gt;0 -->
<g id="edge3" class="edge">
<title>3&#45;&gt;0</title>
<path fill="none" stroke="#c0c0c0" stroke-width="2" d="M270.8689,-288.6615C253.7691,-280.3988 236.844,-268.5826 227,-252 198.165,-203.4263 204.9086,-137.955 267,-72 292.6049,-44.8019 332.5195,-31.3023 365.6945,-24.602"/>
<polygon fill="#c0c0c0" stroke="#c0c0c0" stroke-width="2" points="366.5583,-28.0015 375.7504,-22.7333 365.2793,-21.1193 366.5583,-28.0015"/>
</g>
<!-- 15 -->
<g id="node16" class="node">
<title>15</title>
<path fill="none" stroke="#56d8b9" stroke-width="2" d="M532,-252C532,-252 462,-252 462,-252 456,-252 450,-246 450,-240 450,-240 450,-228 450,-228 450,-222 456,-216 462,-216 462,-216 532,-216 532,-216 538,-216 544,-222 544,-228 544,-228 544,-240 544,-240 544,-246 538,-252 532,-252"/>
<text text-anchor="middle" x="497" y="-231.5" font-family="sans" font-size="10.00" fill="#000000">collapse_scores</text>
</g>
<!-- 3&#45;&gt;15 -->
<g id="edge37" class="edge">
<title>3&#45;&gt;15</title>
<path fill="none" stroke="#c0c0c0" stroke-width="2" d="M369.1505,-287.8314C392.1224,-278.159 420.5509,-266.1891 444.7632,-255.9944"/>
<polygon fill="#c0c0c0" stroke="#c0c0c0" stroke-width="2" points="446.3016,-259.1443 454.1598,-252.038 443.5852,-252.6929 446.3016,-259.1443"/>
</g>
<!-- 4 -->
<g id="node5" class="node">
<title>4</title>
<path fill="none" stroke="#b6d856" stroke-width="2" d="M369.5,-252C369.5,-252 248.5,-252 248.5,-252 242.5,-252 236.5,-246 236.5,-240 236.5,-240 236.5,-228 236.5,-228 236.5,-222 242.5,-216 248.5,-216 248.5,-216 369.5,-216 369.5,-216 375.5,-216 381.5,-222 381.5,-228 381.5,-228 381.5,-240 381.5,-240 381.5,-246 375.5,-252 369.5,-252"/>
<text text-anchor="middle" x="309" y="-231.5" font-family="sans" font-size="10.00" fill="#000000">get_mut_antibody_escape</text>
</g>
<!-- 4&#45;&gt;0 -->
<g id="edge4" class="edge">
<title>4&#45;&gt;0</title>
<path fill="none" stroke="#c0c0c0" stroke-width="2" d="M292.5719,-215.989C284.6975,-206.1289 276.102,-193.2441 272,-180 265.809,-160.0115 269.8198,-80.3316 276,-72 287.2455,-56.8399 329.3865,-42.33 365.8393,-32.1759"/>
<polygon fill="#c0c0c0" stroke="#c0c0c0" stroke-width="2" points="367.2078,-35.431 375.9396,-29.4306 365.3717,-28.6761 367.2078,-35.431"/>
</g>
<!-- 16 -->
<g id="node17" class="node">
<title>16</title>
<path fill="none" stroke="#d85656" stroke-width="2" d="M360.5,-180C360.5,-180 293.5,-180 293.5,-180 287.5,-180 281.5,-174 281.5,-168 281.5,-168 281.5,-156 281.5,-156 281.5,-150 287.5,-144 293.5,-144 293.5,-144 360.5,-144 360.5,-144 366.5,-144 372.5,-150 372.5,-156 372.5,-156 372.5,-168 372.5,-168 372.5,-174 366.5,-180 360.5,-180"/>
<text text-anchor="middle" x="327" y="-159.5" font-family="sans" font-size="10.00" fill="#000000">epistatic_shifts</text>
</g>
<!-- 4&#45;&gt;16 -->
<g id="edge39" class="edge">
<title>4&#45;&gt;16</title>
<path fill="none" stroke="#c0c0c0" stroke-width="2" d="M313.5422,-215.8314C315.4884,-208.0463 317.8068,-198.7729 319.9663,-190.1347"/>
<polygon fill="#c0c0c0" stroke="#c0c0c0" stroke-width="2" points="323.3668,-190.9636 322.3967,-180.4133 316.5758,-189.2658 323.3668,-190.9636"/>
</g>
<!-- 5 -->
<g id="node6" class="node">
<title>5</title>
<path fill="none" stroke="#56d87b" stroke-width="2" d="M659.5,-468C659.5,-468 570.5,-468 570.5,-468 564.5,-468 558.5,-462 558.5,-456 558.5,-456 558.5,-444 558.5,-444 558.5,-438 564.5,-432 570.5,-432 570.5,-432 659.5,-432 659.5,-432 665.5,-432 671.5,-438 671.5,-444 671.5,-444 671.5,-456 671.5,-456 671.5,-462 665.5,-468 659.5,-468"/>
<text text-anchor="middle" x="615" y="-447.5" font-family="sans" font-size="10.00" fill="#000000">process_ccs_XBB15</text>
</g>
<!-- 5&#45;&gt;0 -->
<g id="edge5" class="edge">
<title>5&#45;&gt;0</title>
<path fill="none" stroke="#c0c0c0" stroke-width="2" d="M671.8992,-432.1169C725.6193,-411.2631 798,-371.0883 798,-306 798,-306 798,-306 798,-162 798,-106.3663 759.9781,-98.3868 711,-72 672.3391,-51.1716 554.5838,-33.8051 482.4802,-24.7526"/>
<polygon fill="#c0c0c0" stroke="#c0c0c0" stroke-width="2" points="482.5425,-21.2336 472.1881,-23.4779 481.682,-28.1805 482.5425,-21.2336"/>
</g>
<!-- 12 -->
<g id="node13" class="node">
<title>12</title>
<path fill="none" stroke="#59d856" stroke-width="2" d="M643.5,-396C643.5,-396 578.5,-396 578.5,-396 572.5,-396 566.5,-390 566.5,-384 566.5,-384 566.5,-372 566.5,-372 566.5,-366 572.5,-360 578.5,-360 578.5,-360 643.5,-360 643.5,-360 649.5,-360 655.5,-366 655.5,-372 655.5,-372 655.5,-384 655.5,-384 655.5,-390 649.5,-396 643.5,-396"/>
<text text-anchor="middle" x="611" y="-375.5" font-family="sans" font-size="10.00" fill="#000000">count_variants</text>
</g>
<!-- 5&#45;&gt;12 -->
<g id="edge26" class="edge">
<title>5&#45;&gt;12</title>
<path fill="none" stroke="#c0c0c0" stroke-width="2" d="M613.9906,-431.8314C613.5628,-424.131 613.0541,-414.9743 612.5787,-406.4166"/>
<polygon fill="#c0c0c0" stroke="#c0c0c0" stroke-width="2" points="616.0724,-406.2037 612.023,-396.4133 609.0831,-406.592 616.0724,-406.2037"/>
</g>
<!-- 13 -->
<g id="node14" class="node">
<title>13</title>
<path fill="none" stroke="#78d856" stroke-width="2" d="M554,-324C554,-324 502,-324 502,-324 496,-324 490,-318 490,-312 490,-312 490,-300 490,-300 490,-294 496,-288 502,-288 502,-288 554,-288 554,-288 560,-288 566,-294 566,-300 566,-300 566,-312 566,-312 566,-318 560,-324 554,-324"/>
<text text-anchor="middle" x="528" y="-303.5" font-family="sans" font-size="10.00" fill="#000000">fit_titrations</text>
</g>
<!-- 5&#45;&gt;13 -->
<g id="edge29" class="edge">
<title>5&#45;&gt;13</title>
<path fill="none" stroke="#c0c0c0" stroke-width="2" d="M590.9858,-431.9126C579.643,-422.3127 566.7138,-409.6824 558,-396 545.8884,-376.9824 538.1515,-352.5683 533.5739,-333.9673"/>
<polygon fill="#c0c0c0" stroke="#c0c0c0" stroke-width="2" points="536.9428,-332.9994 531.2913,-324.0377 530.1207,-334.5677 536.9428,-332.9994"/>
</g>
<!-- 14 -->
<g id="node15" class="node">
<title>14</title>
<path fill="none" stroke="#56d89a" stroke-width="2" d="M757.5,-324C757.5,-324 662.5,-324 662.5,-324 656.5,-324 650.5,-318 650.5,-312 650.5,-312 650.5,-300 650.5,-300 650.5,-294 656.5,-288 662.5,-288 662.5,-288 757.5,-288 757.5,-288 763.5,-288 769.5,-294 769.5,-300 769.5,-300 769.5,-312 769.5,-312 769.5,-318 763.5,-324 757.5,-324"/>
<text text-anchor="middle" x="710" y="-303.5" font-family="sans" font-size="10.00" fill="#000000">calculate_expression</text>
</g>
<!-- 5&#45;&gt;14 -->
<g id="edge33" class="edge">
<title>5&#45;&gt;14</title>
<path fill="none" stroke="#c0c0c0" stroke-width="2" d="M634.4662,-431.6389C644.3592,-421.683 656.1306,-408.8181 665,-396 678.6499,-376.2732 690.604,-351.8137 698.754,-333.3748"/>
<polygon fill="#c0c0c0" stroke="#c0c0c0" stroke-width="2" points="702.0169,-334.6471 702.7674,-324.0789 695.5903,-331.8724 702.0169,-334.6471"/>
</g>
<!-- 6 -->
<g id="node7" class="node">
<title>6</title>
<path fill="none" stroke="#97d856" stroke-width="2" d="M908.5,-540C908.5,-540 759.5,-540 759.5,-540 753.5,-540 747.5,-534 747.5,-528 747.5,-528 747.5,-516 747.5,-516 747.5,-510 753.5,-504 759.5,-504 759.5,-504 908.5,-504 908.5,-504 914.5,-504 920.5,-510 920.5,-516 920.5,-516 920.5,-528 920.5,-528 920.5,-534 914.5,-540 908.5,-540"/>
<text text-anchor="middle" x="834" y="-525" font-family="sans" font-size="10.00" fill="#000000">get_ccs</text>
<text text-anchor="middle" x="834" y="-514" font-family="sans" font-size="10.00" fill="#000000">pacbioRun: pool1_BQ11_230520</text>
</g>
<!-- 6&#45;&gt;5 -->
<g id="edge16" class="edge">
<title>6&#45;&gt;5</title>
<path fill="none" stroke="#c0c0c0" stroke-width="2" d="M779.0197,-503.9243C748.8208,-493.9959 711.1942,-481.6255 679.5996,-471.2382"/>
<polygon fill="#c0c0c0" stroke="#c0c0c0" stroke-width="2" points="680.5958,-467.8815 670.0029,-468.0831 678.4095,-474.5313 680.5958,-467.8815"/>
</g>
<!-- 10 -->
<g id="node11" class="node">
<title>10</title>
<path fill="none" stroke="#d87556" stroke-width="2" d="M518.5,-468C518.5,-468 435.5,-468 435.5,-468 429.5,-468 423.5,-462 423.5,-456 423.5,-456 423.5,-444 423.5,-444 423.5,-438 429.5,-432 435.5,-432 435.5,-432 518.5,-432 518.5,-432 524.5,-432 530.5,-438 530.5,-444 530.5,-444 530.5,-456 530.5,-456 530.5,-462 524.5,-468 518.5,-468"/>
<text text-anchor="middle" x="477" y="-447.5" font-family="sans" font-size="10.00" fill="#000000">process_ccs_BQ11</text>
</g>
<!-- 6&#45;&gt;10 -->
<g id="edge20" class="edge">
<title>6&#45;&gt;10</title>
<path fill="none" stroke="#c0c0c0" stroke-width="2" d="M747.3549,-505.5826C665.646,-490.0919 554.9265,-469.0749 550,-468 546.9731,-467.3396 543.88,-466.6469 540.759,-465.9336"/>
<polygon fill="#c0c0c0" stroke="#c0c0c0" stroke-width="2" points="541.2765,-462.4605 530.7431,-463.5996 539.6879,-469.2778 541.2765,-462.4605"/>
</g>
<!-- 7 -->
<g id="node8" class="node">
<title>7</title>
<path fill="none" stroke="#97d856" stroke-width="2" d="M323.5,-540C323.5,-540 174.5,-540 174.5,-540 168.5,-540 162.5,-534 162.5,-528 162.5,-528 162.5,-516 162.5,-516 162.5,-510 168.5,-504 174.5,-504 174.5,-504 323.5,-504 323.5,-504 329.5,-504 335.5,-510 335.5,-516 335.5,-516 335.5,-528 335.5,-528 335.5,-534 329.5,-540 323.5,-540"/>
<text text-anchor="middle" x="249" y="-525" font-family="sans" font-size="10.00" fill="#000000">get_ccs</text>
<text text-anchor="middle" x="249" y="-514" font-family="sans" font-size="10.00" fill="#000000">pacbioRun: pool2_BQ11_230520</text>
</g>
<!-- 7&#45;&gt;5 -->
<g id="edge17" class="edge">
<title>7&#45;&gt;5</title>
<path fill="none" stroke="#c0c0c0" stroke-width="2" d="M335.605,-505.7501C338.7761,-505.1587 341.9159,-504.5738 345,-504 431.6443,-487.8792 453.7876,-486.2901 540,-468 542.671,-467.4333 545.3923,-466.8428 548.139,-466.2357"/>
<polygon fill="#c0c0c0" stroke="#c0c0c0" stroke-width="2" points="549.1655,-469.5922 558.1508,-463.9784 547.6258,-462.7636 549.1655,-469.5922"/>
</g>
<!-- 7&#45;&gt;10 -->
<g id="edge21" class="edge">
<title>7&#45;&gt;10</title>
<path fill="none" stroke="#c0c0c0" stroke-width="2" d="M306.2397,-503.9243C338.8957,-493.6119 379.8944,-480.6649 413.5334,-470.0421"/>
<polygon fill="#c0c0c0" stroke="#c0c0c0" stroke-width="2" points="414.7831,-473.3179 423.2649,-466.969 412.6751,-466.6428 414.7831,-473.3179"/>
</g>
<!-- 8 -->
<g id="node9" class="node">
<title>8</title>
<path fill="none" stroke="#97d856" stroke-width="2" d="M520.5,-540C520.5,-540 365.5,-540 365.5,-540 359.5,-540 353.5,-534 353.5,-528 353.5,-528 353.5,-516 353.5,-516 353.5,-510 359.5,-504 365.5,-504 365.5,-504 520.5,-504 520.5,-504 526.5,-504 532.5,-510 532.5,-516 532.5,-516 532.5,-528 532.5,-528 532.5,-534 526.5,-540 520.5,-540"/>
<text text-anchor="middle" x="443" y="-525" font-family="sans" font-size="10.00" fill="#000000">get_ccs</text>
<text text-anchor="middle" x="443" y="-514" font-family="sans" font-size="10.00" fill="#000000">pacbioRun: pool1_XBB15_230520</text>
</g>
<!-- 8&#45;&gt;5 -->
<g id="edge18" class="edge">
<title>8&#45;&gt;5</title>
<path fill="none" stroke="#c0c0c0" stroke-width="2" d="M486.4029,-503.8314C509.5091,-494.159 538.1038,-482.1891 562.4577,-471.9944"/>
<polygon fill="#c0c0c0" stroke="#c0c0c0" stroke-width="2" points="564.0363,-475.128 571.9092,-468.038 561.3333,-468.6709 564.0363,-475.128"/>
</g>
<!-- 8&#45;&gt;10 -->
<g id="edge22" class="edge">
<title>8&#45;&gt;10</title>
<path fill="none" stroke="#c0c0c0" stroke-width="2" d="M451.5796,-503.8314C455.3358,-495.8771 459.8257,-486.369 463.9798,-477.5723"/>
<polygon fill="#c0c0c0" stroke="#c0c0c0" stroke-width="2" points="467.1996,-478.9503 468.3048,-468.4133 460.8699,-475.9612 467.1996,-478.9503"/>
</g>
<!-- 9 -->
<g id="node10" class="node">
<title>9</title>
<path fill="none" stroke="#97d856" stroke-width="2" d="M717.5,-540C717.5,-540 562.5,-540 562.5,-540 556.5,-540 550.5,-534 550.5,-528 550.5,-528 550.5,-516 550.5,-516 550.5,-510 556.5,-504 562.5,-504 562.5,-504 717.5,-504 717.5,-504 723.5,-504 729.5,-510 729.5,-516 729.5,-516 729.5,-528 729.5,-528 729.5,-534 723.5,-540 717.5,-540"/>
<text text-anchor="middle" x="640" y="-525" font-family="sans" font-size="10.00" fill="#000000">get_ccs</text>
<text text-anchor="middle" x="640" y="-514" font-family="sans" font-size="10.00" fill="#000000">pacbioRun: pool2_XBB15_230520</text>
</g>
<!-- 9&#45;&gt;5 -->
<g id="edge19" class="edge">
<title>9&#45;&gt;5</title>
<path fill="none" stroke="#c0c0c0" stroke-width="2" d="M633.6914,-503.8314C630.9883,-496.0463 627.7684,-486.7729 624.769,-478.1347"/>
<polygon fill="#c0c0c0" stroke="#c0c0c0" stroke-width="2" points="627.98,-476.7119 621.3935,-468.4133 621.3673,-479.0081 627.98,-476.7119"/>
</g>
<!-- 9&#45;&gt;10 -->
<g id="edge23" class="edge">
<title>9&#45;&gt;10</title>
<path fill="none" stroke="#c0c0c0" stroke-width="2" d="M598.8682,-503.8314C577.0679,-494.2018 550.1122,-482.295 527.0996,-472.1299"/>
<polygon fill="#c0c0c0" stroke="#c0c0c0" stroke-width="2" points="528.3976,-468.877 517.836,-468.038 525.5692,-475.2802 528.3976,-468.877"/>
</g>
<!-- 10&#45;&gt;0 -->
<g id="edge6" class="edge">
<title>10&#45;&gt;0</title>
<path fill="none" stroke="#c0c0c0" stroke-width="2" d="M423.3329,-437.9119C331.0237,-415.5515 152,-364.6283 152,-306 152,-306 152,-306 152,-162 152,-65.9248 286.1883,-33.7716 366.0622,-23.1428"/>
<polygon fill="#c0c0c0" stroke="#c0c0c0" stroke-width="2" points="366.5126,-26.6138 375.998,-21.8938 365.6395,-19.6685 366.5126,-26.6138"/>
</g>
<!-- 10&#45;&gt;12 -->
<g id="edge25" class="edge">
<title>10&#45;&gt;12</title>
<path fill="none" stroke="#c0c0c0" stroke-width="2" d="M510.8139,-431.8314C528.2707,-422.4516 549.7487,-410.9112 568.3352,-400.9244"/>
<polygon fill="#c0c0c0" stroke="#c0c0c0" stroke-width="2" points="570.0446,-403.9792 577.197,-396.1628 566.7314,-397.8129 570.0446,-403.9792"/>
</g>
<!-- 10&#45;&gt;13 -->
<g id="edge28" class="edge">
<title>10&#45;&gt;13</title>
<path fill="none" stroke="#c0c0c0" stroke-width="2" d="M475.9207,-431.715C475.4742,-413.0199 476.6141,-383.4749 486,-360 489.9684,-350.0748 496.3375,-340.454 502.9289,-332.1504"/>
<polygon fill="#c0c0c0" stroke="#c0c0c0" stroke-width="2" points="505.7543,-334.2287 509.5137,-324.3233 500.3977,-329.7223 505.7543,-334.2287"/>
</g>
<!-- 10&#45;&gt;14 -->
<g id="edge32" class="edge">
<title>10&#45;&gt;14</title>
<path fill="none" stroke="#c0c0c0" stroke-width="2" d="M489.2409,-431.6454C503.5495,-411.4864 528.9976,-379.4048 558,-360 582.772,-343.4257 613.2182,-331.2992 640.3392,-322.787"/>
<polygon fill="#c0c0c0" stroke="#c0c0c0" stroke-width="2" points="641.6069,-326.0602 650.1639,-319.8129 639.5788,-319.3604 641.6069,-326.0602"/>
</g>
<!-- 11 -->
<g id="node12" class="node">
<title>11</title>
<path fill="none" stroke="#d8b456" stroke-width="2" d="M799,-468C799,-468 711,-468 711,-468 705,-468 699,-462 699,-456 699,-456 699,-444 699,-444 699,-438 705,-432 711,-432 711,-432 799,-432 799,-432 805,-432 811,-438 811,-444 811,-444 811,-456 811,-456 811,-462 805,-468 799,-468"/>
<text text-anchor="middle" x="755" y="-447.5" font-family="sans" font-size="10.00" fill="#000000">get_BA2_bc_lookup</text>
</g>
<!-- 11&#45;&gt;0 -->
<g id="edge7" class="edge">
<title>11&#45;&gt;0</title>
<path fill="none" stroke="#c0c0c0" stroke-width="2" d="M773.3802,-431.8287C797.2785,-406.1728 836,-356.7701 836,-306 836,-306 836,-306 836,-162 836,-108.4818 802.8973,-97.7845 756,-72 709.994,-46.7055 564.8268,-30.3034 482.493,-22.7808"/>
<polygon fill="#c0c0c0" stroke="#c0c0c0" stroke-width="2" points="482.5592,-19.2728 472.2862,-21.8643 481.9331,-26.2447 482.5592,-19.2728"/>
</g>
<!-- 11&#45;&gt;12 -->
<g id="edge24" class="edge">
<title>11&#45;&gt;12</title>
<path fill="none" stroke="#c0c0c0" stroke-width="2" d="M718.6627,-431.8314C699.6604,-422.3302 676.2242,-410.6121 656.0748,-400.5374"/>
<polygon fill="#c0c0c0" stroke="#c0c0c0" stroke-width="2" points="657.5855,-397.3797 647.076,-396.038 654.455,-403.6407 657.5855,-397.3797"/>
</g>
<!-- 11&#45;&gt;13 -->
<g id="edge27" class="edge">
<title>11&#45;&gt;13</title>
<path fill="none" stroke="#c0c0c0" stroke-width="2" d="M740.8238,-431.9089C724.4099,-411.986 695.6738,-380.1154 665,-360 637.5818,-342.0196 603.2514,-328.5019 575.8159,-319.4882"/>
<polygon fill="#c0c0c0" stroke="#c0c0c0" stroke-width="2" points="576.6364,-316.0762 566.0456,-316.3712 574.5088,-322.7451 576.6364,-316.0762"/>
</g>
<!-- 11&#45;&gt;14 -->
<g id="edge31" class="edge">
<title>11&#45;&gt;14</title>
<path fill="none" stroke="#c0c0c0" stroke-width="2" d="M752.4648,-431.7268C749.6024,-413.2955 744.2407,-384.1857 736,-360 732.9278,-350.9835 728.728,-341.5101 724.5999,-333.0596"/>
<polygon fill="#c0c0c0" stroke="#c0c0c0" stroke-width="2" points="727.6705,-331.3758 720.0335,-324.0323 721.4242,-334.5354 727.6705,-331.3758"/>
</g>
<!-- 12&#45;&gt;0 -->
<g id="edge8" class="edge">
<title>12&#45;&gt;0</title>
<path fill="none" stroke="#c0c0c0" stroke-width="2" d="M618.4815,-359.9219C638.5248,-308.2836 687.3122,-158.3015 617,-72 599.9349,-51.0542 532.5475,-35.6488 482.1734,-26.7701"/>
<polygon fill="#c0c0c0" stroke="#c0c0c0" stroke-width="2" points="482.4743,-23.2706 472.0263,-25.0283 481.29,-30.1697 482.4743,-23.2706"/>
</g>
<!-- 12&#45;&gt;13 -->
<g id="edge30" class="edge">
<title>12&#45;&gt;13</title>
<path fill="none" stroke="#c0c0c0" stroke-width="2" d="M590.0556,-359.8314C579.9309,-351.0485 567.6223,-340.3712 556.6452,-330.8489"/>
<polygon fill="#c0c0c0" stroke="#c0c0c0" stroke-width="2" points="558.7851,-328.0718 548.9377,-324.1628 554.1981,-333.3595 558.7851,-328.0718"/>
</g>
<!-- 12&#45;&gt;14 -->
<g id="edge34" class="edge">
<title>12&#45;&gt;14</title>
<path fill="none" stroke="#c0c0c0" stroke-width="2" d="M635.9819,-359.8314C648.2928,-350.8779 663.3107,-339.9558 676.5937,-330.2955"/>
<polygon fill="#c0c0c0" stroke="#c0c0c0" stroke-width="2" points="678.9973,-332.8752 685.0261,-324.1628 674.8801,-327.214 678.9973,-332.8752"/>
</g>
<!-- 13&#45;&gt;0 -->
<g id="edge9" class="edge">
<title>13&#45;&gt;0</title>
<path fill="none" stroke="#c0c0c0" stroke-width="2" d="M543.036,-287.7298C575.7034,-245.7068 646.3235,-140.5446 596,-72 582.224,-53.236 526.3858,-38.0461 482.0174,-28.612"/>
<polygon fill="#c0c0c0" stroke="#c0c0c0" stroke-width="2" points="482.6728,-25.1735 472.1706,-26.5712 481.2522,-32.0278 482.6728,-25.1735"/>
</g>
<!-- 13&#45;&gt;15 -->
<g id="edge35" class="edge">
<title>13&#45;&gt;15</title>
<path fill="none" stroke="#c0c0c0" stroke-width="2" d="M520.1774,-287.8314C516.7891,-279.9617 512.7459,-270.5712 508.9924,-261.8533"/>
<polygon fill="#c0c0c0" stroke="#c0c0c0" stroke-width="2" points="512.0973,-260.214 504.9279,-252.4133 505.6679,-262.9822 512.0973,-260.214"/>
</g>
<!-- 14&#45;&gt;0 -->
<g id="edge10" class="edge">
<title>14&#45;&gt;0</title>
<path fill="none" stroke="#c0c0c0" stroke-width="2" d="M714.4873,-287.9726C724.1067,-244.6064 741.5847,-133.5059 686,-72 659.3432,-42.5036 551.1538,-28.3078 482.4118,-22.14"/>
<polygon fill="#c0c0c0" stroke="#c0c0c0" stroke-width="2" points="482.4179,-18.6276 472.1535,-21.2527 481.8146,-25.6015 482.4179,-18.6276"/>
</g>
<!-- 14&#45;&gt;15 -->
<g id="edge36" class="edge">
<title>14&#45;&gt;15</title>
<path fill="none" stroke="#c0c0c0" stroke-width="2" d="M656.526,-287.9243C625.256,-277.3541 585.7976,-264.0161 553.9479,-253.25"/>
<polygon fill="#c0c0c0" stroke="#c0c0c0" stroke-width="2" points="554.9196,-249.8839 544.3253,-249.9973 552.6779,-256.5153 554.9196,-249.8839"/>
</g>
<!-- 15&#45;&gt;0 -->
<g id="edge11" class="edge">
<title>15&#45;&gt;0</title>
<path fill="none" stroke="#c0c0c0" stroke-width="2" d="M518.1444,-215.9716C551.9498,-184.9422 611.0599,-120.1402 577,-72 565.575,-55.8519 520.634,-41.1687 482.3916,-31.2036"/>
<polygon fill="#c0c0c0" stroke="#c0c0c0" stroke-width="2" points="482.8825,-27.7172 472.3286,-28.6474 481.1591,-34.5017 482.8825,-27.7172"/>
</g>
<!-- 15&#45;&gt;16 -->
<g id="edge38" class="edge">
<title>15&#45;&gt;16</title>
<path fill="none" stroke="#c0c0c0" stroke-width="2" d="M454.1018,-215.8314C431.2643,-206.159 403.002,-194.1891 378.9313,-183.9944"/>
<polygon fill="#c0c0c0" stroke="#c0c0c0" stroke-width="2" points="380.1629,-180.7151 369.5897,-180.038 377.4329,-187.1608 380.1629,-180.7151"/>
</g>
<!-- 17 -->
<g id="node18" class="node">
<title>17</title>
<path fill="none" stroke="#569ad8" stroke-width="2" d="M395.5,-108C395.5,-108 306.5,-108 306.5,-108 300.5,-108 294.5,-102 294.5,-96 294.5,-96 294.5,-84 294.5,-84 294.5,-78 300.5,-72 306.5,-72 306.5,-72 395.5,-72 395.5,-72 401.5,-72 407.5,-78 407.5,-84 407.5,-84 407.5,-96 407.5,-96 407.5,-102 401.5,-108 395.5,-108"/>
<text text-anchor="middle" x="351" y="-87.5" font-family="sans" font-size="10.00" fill="#000000">interactive_jsd_plot</text>
</g>
<!-- 15&#45;&gt;17 -->
<g id="edge40" class="edge">
<title>15&#45;&gt;17</title>
<path fill="none" stroke="#c0c0c0" stroke-width="2" d="M478.509,-215.7623C452.729,-190.3354 405.877,-144.1253 376.7091,-115.3569"/>
<polygon fill="#c0c0c0" stroke="#c0c0c0" stroke-width="2" points="378.9183,-112.6199 369.3409,-108.0896 374.0028,-117.6037 378.9183,-112.6199"/>
</g>
<!-- 18 -->
<g id="node19" class="node">
<title>18</title>
<path fill="none" stroke="#d6d856" stroke-width="2" d="M556,-108C556,-108 438,-108 438,-108 432,-108 426,-102 426,-96 426,-96 426,-84 426,-84 426,-78 432,-72 438,-72 438,-72 556,-72 556,-72 562,-72 568,-78 568,-84 568,-84 568,-96 568,-96 568,-102 562,-108 556,-108"/>
<text text-anchor="middle" x="497" y="-87.5" font-family="sans" font-size="10.00" fill="#000000">interactive_heatmap_plot</text>
</g>
<!-- 15&#45;&gt;18 -->
<g id="edge42" class="edge">
<title>15&#45;&gt;18</title>
<path fill="none" stroke="#c0c0c0" stroke-width="2" d="M497,-215.7623C497,-191.201 497,-147.2474 497,-118.3541"/>
<polygon fill="#c0c0c0" stroke="#c0c0c0" stroke-width="2" points="500.5001,-118.0896 497,-108.0896 493.5001,-118.0897 500.5001,-118.0896"/>
</g>
<!-- 16&#45;&gt;0 -->
<g id="edge12" class="edge">
<title>16&#45;&gt;0</title>
<path fill="none" stroke="#c0c0c0" stroke-width="2" d="M307.7897,-143.8322C290.2341,-124.9696 269.2249,-95.0522 285,-72 294.7808,-57.7074 332.3047,-43.6046 365.9015,-33.3972"/>
<polygon fill="#c0c0c0" stroke="#c0c0c0" stroke-width="2" points="367.1121,-36.6889 375.7055,-30.4918 365.1232,-29.9774 367.1121,-36.6889"/>
</g>
<!-- 16&#45;&gt;17 -->
<g id="edge41" class="edge">
<title>16&#45;&gt;17</title>
<path fill="none" stroke="#c0c0c0" stroke-width="2" d="M333.0562,-143.8314C335.6512,-136.0463 338.7424,-126.7729 341.6218,-118.1347"/>
<polygon fill="#c0c0c0" stroke="#c0c0c0" stroke-width="2" points="345.0203,-119.0069 344.8622,-108.4133 338.3795,-116.7933 345.0203,-119.0069"/>
</g>
<!-- 17&#45;&gt;0 -->
<g id="edge13" class="edge">
<title>17&#45;&gt;0</title>
<path fill="none" stroke="#c0c0c0" stroke-width="2" d="M369.421,-71.8314C378.1529,-63.219 388.7317,-52.7851 398.2423,-43.4048"/>
<polygon fill="#c0c0c0" stroke="#c0c0c0" stroke-width="2" points="400.923,-45.6769 405.5849,-36.1628 396.0075,-40.6931 400.923,-45.6769"/>
</g>
<!-- 18&#45;&gt;0 -->
<g id="edge14" class="edge">
<title>18&#45;&gt;0</title>
<path fill="none" stroke="#c0c0c0" stroke-width="2" d="M478.579,-71.8314C469.8471,-63.219 459.2683,-52.7851 449.7577,-43.4048"/>
<polygon fill="#c0c0c0" stroke="#c0c0c0" stroke-width="2" points="451.9925,-40.6931 442.4151,-36.1628 447.077,-45.6769 451.9925,-40.6931"/>
</g>
</g>
</svg>
